STARTFONT 2.3
FONT -FontForge-Bungee Shade-Book-R-Normal--14-140-72-72-P-120-ISO10646-1
SIZE 14 72 72  2
FONTBOUNDINGBOX 36 36 -9 -13
COMMENT "Generated by fontforge, http://fontforge.sourceforge.net"
COMMENT "Copyright 2008 The Bungee Project Authors (david@djr.com)"
STARTPROPERTIES 40
FOUNDRY "FontForge"
FAMILY_NAME "Bungee Shade"
WEIGHT_NAME "Book"
SLANT "R"
SETWIDTH_NAME "Normal"
ADD_STYLE_NAME ""
PIXEL_SIZE 14
POINT_SIZE 140
RESOLUTION_X 72
RESOLUTION_Y 72
SPACING "P"
AVERAGE_WIDTH 120
CHARSET_REGISTRY "ISO10646"
CHARSET_ENCODING "1"
FONTNAME_REGISTRY ""
CHARSET_COLLECTIONS "ISO8859-2 ISO8859-9 ISO8859-4 ISO10646-1"
BITS_PER_PIXEL 2
FONT_NAME "BungeeShade-Regular"
FACE_NAME "Bungee Shade"
COPYRIGHT "Copyright 2008 The Bungee Project Authors (david@djr.com)"
FONT_VERSION "1.000;PS 1.0;hotconv 1.0.72;makeotf.lib2.5.5900"
FONT_ASCENT 12
FONT_DESCENT 2
UNDERLINE_POSITION 0
UNDERLINE_THICKNESS 0
X_HEIGHT 10
CAP_HEIGHT 10
RAW_ASCENT 860
RAW_DESCENT 140
NORM_SPACE 5
RELATIVE_WEIGHT 40
RELATIVE_SETWIDTH 50
SUPERSCRIPT_X 0
SUPERSCRIPT_Y 4
SUPERSCRIPT_SIZE 8
SUBSCRIPT_X 0
SUBSCRIPT_Y 1
SUBSCRIPT_SIZE 8
AVG_LOWERCASE_WIDTH 115
AVG_UPPERCASE_WIDTH 118
ENDPROPERTIES
CHARS 1065
STARTCHAR space
ENCODING 32
SWIDTH 325 0
DWIDTH 5 0
BBX 1 1 0 0
BITMAP
00
ENDCHAR
STARTCHAR exclam
ENCODING 33
SWIDTH 524 0
DWIDTH 7 0
BBX 5 13 1 -2
BITMAP
1000
6000
E000
F000
F000
F000
F000
F540
FA40
A000
E000
FA80
FE00
ENDCHAR
STARTCHAR quotedbl
ENCODING 34
SWIDTH 746 0
DWIDTH 10 0
BBX 10 8 0 3
BITMAP
141410
741800
B41800
B41800
B41800
B41800
BFFFD0
6A6A40
ENDCHAR
STARTCHAR numbersign
ENCODING 35
SWIDTH 850 0
DWIDTH 12 0
BBX 12 13 0 -2
BITMAP
014444
070640
0A0600
281010
780000
7E0A09
790904
304040
B00000
F81814
BC2C10
3EBE80
3E3F00
ENDCHAR
STARTCHAR dollar
ENCODING 36
SWIDTH 750 0
DWIDTH 11 0
BBX 10 15 0 -3
BITMAP
000100
000010
000000
140410
741FC0
B40040
B80000
BE4000
7FF800
140000
740400
B40040
BF8140
BFE900
03F400
ENDCHAR
STARTCHAR percent
ENCODING 37
SWIDTH 1131 0
DWIDTH 16 0
BBX 16 13 0 -2
BITMAP
00004000
14018000
74424000
B4920000
B4420054
B4020801
B9050800
7FFD1860
1A6C2860
00282810
00383C00
007EBFA4
007D2FD0
ENDCHAR
STARTCHAR ampersand
ENCODING 38
SWIDTH 866 0
DWIDTH 12 0
BBX 12 13 0 -2
BITMAP
004000
050000
1C0000
2C0B80
3D0100
2D5140
240240
702F41
B00501
B40000
B80000
7FAA90
2FFF40
ENDCHAR
STARTCHAR quotesingle
ENCODING 39
SWIDTH 456 0
DWIDTH 6 0
BBX 6 8 0 3
BITMAP
0410
3400
B400
B400
7400
7800
7FD0
6A00
ENDCHAR
STARTCHAR parenleft
ENCODING 40
SWIDTH 529 0
DWIDTH 7 0
BBX 7 15 0 -2
BITMAP
0004
0400
1440
7414
B410
B400
B400
B400
B400
B400
B400
B800
BD00
7FE4
1BE0
ENDCHAR
STARTCHAR parenright
ENCODING 41
SWIDTH 529 0
DWIDTH 7 0
BBX 7 15 0 -2
BITMAP
0400
2404
B444
B900
BE00
6E00
1E00
1E00
1E00
1E00
1E00
1404
7404
BE90
BE00
ENDCHAR
STARTCHAR asterisk
ENCODING 42
SWIDTH 818 0
DWIDTH 11 0
BBX 11 11 0 0
BITMAP
001100
01D000
086044
280000
380504
7F8174
6A0410
0A0D10
1FAE50
1FAE00
020400
ENDCHAR
STARTCHAR plus
ENCODING 43
SWIDTH 834 0
DWIDTH 12 0
BBX 11 11 0 -1
BITMAP
001000
009000
01D000
059044
180400
780000
7E90A4
7FD0D0
02D000
02F900
01F800
ENDCHAR
STARTCHAR comma
ENCODING 44
SWIDTH 484 0
DWIDTH 7 0
BBX 5 8 0 -3
BITMAP
0400
2400
7400
B400
BE40
7800
7E80
7E00
ENDCHAR
STARTCHAR hyphen
ENCODING 45
SWIDTH 520 0
DWIDTH 7 0
BBX 7 5 0 2
BITMAP
0400
2400
B400
BEA8
BFE0
ENDCHAR
STARTCHAR period
ENCODING 46
SWIDTH 484 0
DWIDTH 7 0
BBX 6 6 0 -2
BITMAP
0400
2400
B400
B400
BEA0
7F80
ENDCHAR
STARTCHAR slash
ENCODING 47
SWIDTH 487 0
DWIDTH 7 0
BBX 5 15 0 -3
BITMAP
0600
1D00
1D00
2D00
2C00
2C00
3800
3800
7800
7400
7400
B000
B000
FF40
A900
ENDCHAR
STARTCHAR zero
ENCODING 48
SWIDTH 827 0
DWIDTH 12 0
BBX 11 13 0 -2
BITMAP
000010
040004
284000
741E00
741E00
B41E00
B41E00
B41E00
B44500
B81540
7D0010
3FFAD0
0BFE00
ENDCHAR
STARTCHAR one
ENCODING 49
SWIDTH 701 0
DWIDTH 10 0
BBX 10 13 0 -2
BITMAP
040100
280000
781000
790000
7F4000
1B4000
0B4000
0B4000
064000
241000
B40000
BEAA90
BFFF00
ENDCHAR
STARTCHAR two
ENCODING 50
SWIDTH 739 0
DWIDTH 10 0
BBX 10 13 0 -2
BITMAP
040040
280000
780000
7EA400
3F9000
040000
140040
740A00
B41900
B40000
B40000
BAAA90
BFFF40
ENDCHAR
STARTCHAR three
ENCODING 51
SWIDTH 737 0
DWIDTH 10 0
BBX 10 13 0 -2
BITMAP
040000
740000
B40000
BFE000
6E0040
0D0510
2E0000
2FF800
195000
340000
B40000
BEAA40
BFF900
ENDCHAR
STARTCHAR four
ENCODING 52
SWIDTH 809 0
DWIDTH 11 0
BBX 11 13 0 -2
BITMAP
041104
240900
741D00
741D00
741D00
741D00
780000
780040
7D0000
3FFD00
1ABD00
002FA0
001FD0
ENDCHAR
STARTCHAR five
ENCODING 53
SWIDTH 747 0
DWIDTH 10 0
BBX 10 13 0 -2
BITMAP
040010
280000
784010
781FC0
780010
784000
780000
7FFC00
695000
340000
B40000
BEAA40
7FF900
ENDCHAR
STARTCHAR six
ENCODING 54
SWIDTH 793 0
DWIDTH 11 0
BBX 11 13 0 -2
BITMAP
010010
040000
284010
741FC0
740000
B44004
B44000
B41D00
B41D00
B80000
7D0010
3FEA80
0BFD00
ENDCHAR
STARTCHAR seven
ENCODING 55
SWIDTH 727 0
DWIDTH 10 0
BBX 10 13 0 -2
BITMAP
140010
700000
B00000
BEA400
BFF400
004000
050000
1D0140
2C0900
2C0000
2C0000
2EA000
2F8000
ENDCHAR
STARTCHAR eight
ENCODING 56
SWIDTH 811 0
DWIDTH 11 0
BBX 10 12 0 -2
BITMAP
050000
1C0000
3C1D00
3D0900
3C5540
240000
742E00
B41E00
B40000
BD0010
7FEAD0
1BFE00
ENDCHAR
STARTCHAR nine
ENCODING 57
SWIDTH 793 0
DWIDTH 11 0
BBX 11 12 0 -2
BITMAP
040000
240040
741D00
B41D00
B40040
BD4040
7FFD00
190000
1D0004
2D0010
2FAA80
2FFD00
ENDCHAR
STARTCHAR colon
ENCODING 58
SWIDTH 484 0
DWIDTH 7 0
BBX 6 12 0 -2
BITMAP
0400
1400
7400
B400
B400
BA90
BA90
2400
B400
B400
BEA0
7F80
ENDCHAR
STARTCHAR semicolon
ENCODING 59
SWIDTH 484 0
DWIDTH 7 0
BBX 6 13 0 -3
BITMAP
0400
2400
7400
B400
BAA0
BA90
2400
7400
B400
BE40
7800
7E80
7E00
ENDCHAR
STARTCHAR less
ENCODING 60
SWIDTH 814 0
DWIDTH 11 0
BBX 10 9 0 -1
BITMAP
010000
080010
2806D0
380640
7C0000
3E4000
2FFA40
06FFE0
000680
ENDCHAR
STARTCHAR equal
ENCODING 61
SWIDTH 834 0
DWIDTH 12 0
BBX 11 9 0 0
BITMAP
040004
280000
780004
7FFFF4
2AAA94
180000
780000
7EAAA4
7FFFD0
ENDCHAR
STARTCHAR greater
ENCODING 62
SWIDTH 814 0
DWIDTH 11 0
BBX 10 11 1 -1
BITMAP
2A4000
B16900
F00190
F40110
FFA400
1B9000
240000
B00100
F06800
FA4000
500000
ENDCHAR
STARTCHAR question
ENCODING 63
SWIDTH 756 0
DWIDTH 11 0
BBX 10 13 0 -2
BITMAP
140040
740000
B40000
BEA800
BE5000
090000
2E0050
1FBF40
1D0100
1D0000
2D0000
2FA400
1FD000
ENDCHAR
STARTCHAR at
ENCODING 64
SWIDTH 967 0
DWIDTH 14 0
BBX 13 15 0 -3
BITMAP
01000100
087FF840
29AFFD40
75540640
75810640
B5834640
B5834640
B5834540
B5800540
B5C41100
78BAA900
7D16A400
3F940400
1FFFF400
01AA9000
ENDCHAR
STARTCHAR A
ENCODING 65
SWIDTH 830 0
DWIDTH 12 0
BBX 11 13 0 -2
BITMAP
004000
020000
050100
0C0400
180D00
281E00
340000
740010
B40000
B42F00
B41F00
BE9FA4
7F4FE0
ENDCHAR
STARTCHAR B
ENCODING 66
SWIDTH 825 0
DWIDTH 12 0
BBX 11 13 0 -2
BITMAP
040000
280000
784000
781D00
781900
784144
780010
781F00
781A00
784000
780000
7EAAA0
7FFF80
ENDCHAR
STARTCHAR C
ENCODING 67
SWIDTH 728 0
DWIDTH 10 0
BBX 10 13 0 -2
BITMAP
010010
040000
280000
740A90
741F40
B40000
B40000
B40000
B40000
780000
7D0000
3FEA90
1BFF40
ENDCHAR
STARTCHAR D
ENCODING 68
SWIDTH 846 0
DWIDTH 12 0
BBX 10 13 0 -2
BITMAP
040010
280000
784040
780400
781F00
781F00
780F00
780F00
780900
784000
780000
7EAA90
7FFE40
ENDCHAR
STARTCHAR E
ENCODING 69
SWIDTH 754 0
DWIDTH 11 0
BBX 10 13 0 -2
BITMAP
040000
280000
784000
781FD0
780040
784000
780000
781A40
780900
784000
780000
7EAA90
7FFF80
ENDCHAR
STARTCHAR F
ENCODING 70
SWIDTH 718 0
DWIDTH 10 0
BBX 10 13 0 -2
BITMAP
040010
280000
784000
780A90
781F80
780000
784000
780000
781F00
781800
780000
7E9000
7F4000
ENDCHAR
STARTCHAR G
ENCODING 71
SWIDTH 808 0
DWIDTH 11 0
BBX 11 13 0 -2
BITMAP
010010
040000
280000
741A90
741F40
B40100
B40A00
B41E00
B44400
780000
7D0000
3FEAA4
1BFFD0
ENDCHAR
STARTCHAR H
ENCODING 72
SWIDTH 859 0
DWIDTH 12 0
BBX 11 13 0 -2
BITMAP
041140
280700
780B00
780F00
780A00
784010
780000
781A00
781F00
780F00
780F00
7E9FA8
7F4BE0
ENDCHAR
STARTCHAR I
ENCODING 73
SWIDTH 705 0
DWIDTH 10 0
BBX 9 13 0 -2
BITMAP
040000
340000
B41000
B90140
BF4140
1B4000
0B4000
0B4000
0A0000
241000
B40000
BEAA80
7FFE00
ENDCHAR
STARTCHAR J
ENCODING 74
SWIDTH 788 0
DWIDTH 11 0
BBX 10 13 0 -2
BITMAP
000500
001C00
002C00
002C00
002C00
043C00
242C00
B42C00
B40040
B41100
BD0010
7FEB40
1BF900
ENDCHAR
STARTCHAR K
ENCODING 75
SWIDTH 846 0
DWIDTH 12 0
BBX 11 13 0 -2
BITMAP
041104
280500
781C00
781800
780000
784100
780000
781F00
781F00
780F00
780F00
7E9FA8
7F4BE0
ENDCHAR
STARTCHAR L
ENCODING 76
SWIDTH 795 0
DWIDTH 11 0
BBX 11 13 0 -2
BITMAP
041000
280000
780000
780000
780000
780100
780600
781E00
780400
784000
780000
7EAAA4
7FFFD0
ENDCHAR
STARTCHAR M
ENCODING 77
SWIDTH 949 0
DWIDTH 13 0
BBX 13 13 0 -2
BITMAP
04001040
28008000
78424400
78121000
78044000
78000000
78145000
781D9000
781ED000
7812D000
7802D000
7E92FA00
7F41FC00
ENDCHAR
STARTCHAR N
ENCODING 78
SWIDTH 853 0
DWIDTH 12 0
BBX 11 13 0 -2
BITMAP
040140
280300
784700
781200
780400
780000
781400
781C10
781E10
781F00
781F00
7E9FA4
7F4BE0
ENDCHAR
STARTCHAR O
ENCODING 79
SWIDTH 837 0
DWIDTH 12 0
BBX 11 13 0 -2
BITMAP
000010
040004
280000
741E00
741F00
B40F00
B40F00
B40F00
B44500
B81540
7D0014
3FFAD0
0BFE00
ENDCHAR
STARTCHAR P
ENCODING 80
SWIDTH 782 0
DWIDTH 11 0
BBX 11 13 0 -2
BITMAP
040010
280004
784000
780400
781E00
781E00
784000
780000
781A80
781E00
780000
7E9000
7F4000
ENDCHAR
STARTCHAR Q
ENCODING 81
SWIDTH 837 0
DWIDTH 12 0
BBX 11 14 0 -3
BITMAP
000010
040000
280000
741E00
741F00
B40F00
B40F00
B40F00
B84500
7C1404
7F4064
2FD080
07FA00
02F800
ENDCHAR
STARTCHAR R
ENCODING 82
SWIDTH 843 0
DWIDTH 12 0
BBX 11 13 0 -2
BITMAP
040050
280000
784000
781D00
781D00
780004
784040
780000
781F40
781F40
780B40
7E9BE8
7F4BE0
ENDCHAR
STARTCHAR S
ENCODING 83
SWIDTH 750 0
DWIDTH 11 0
BBX 10 13 0 -2
BITMAP
010010
040000
340010
741FC0
B40150
B80000
BE4000
7FF800
140000
740000
B40000
BEAA40
BFF900
ENDCHAR
STARTCHAR T
ENCODING 84
SWIDTH 756 0
DWIDTH 11 0
BBX 10 13 0 -2
BITMAP
140000
700000
F00400
FA40A0
BF8080
078000
078000
078000
078000
078000
078000
07E900
07F400
ENDCHAR
STARTCHAR U
ENCODING 85
SWIDTH 846 0
DWIDTH 12 0
BBX 10 13 0 -2
BITMAP
041140
280700
780F00
780F00
780F00
780F00
780F00
780F00
784000
781400
7E0010
2FFAD0
0BFE40
ENDCHAR
STARTCHAR V
ENCODING 86
SWIDTH 830 0
DWIDTH 12 0
BBX 9 13 0 -2
BITMAP
041100
340B00
B41F00
B41F00
B41F00
B41E00
B80D00
7C0400
7D0000
2E0100
1F0000
0FEA40
0BFE00
ENDCHAR
STARTCHAR W
ENCODING 87
SWIDTH 931 0
DWIDTH 13 0
BBX 11 13 0 -2
BITMAP
041010
340090
7402D0
B402D0
B405D0
B41450
B40000
B40000
780200
7C0700
3D0740
2FABE8
1F87E0
ENDCHAR
STARTCHAR X
ENCODING 88
SWIDTH 837 0
DWIDTH 12 0
BBX 11 13 0 -2
BITMAP
041140
340700
740E00
780900
7D0000
3F0110
1D0000
080400
241E00
741F00
741F00
BE9FA4
7F4FE0
ENDCHAR
STARTCHAR Y
ENCODING 89
SWIDTH 805 0
DWIDTH 11 0
BBX 11 13 0 -2
BITMAP
140104
740A00
B41E00
B41E00
B41D00
B84404
BD0000
3F0400
1F8040
0BC000
03C000
03EA00
03F800
ENDCHAR
STARTCHAR Z
ENCODING 90
SWIDTH 760 0
DWIDTH 11 0
BBX 10 13 0 -2
BITMAP
040010
280000
780000
7EA000
7FC110
014440
060000
080000
240000
740000
B40000
BEAAA0
BFFF80
ENDCHAR
STARTCHAR bracketleft
ENCODING 91
SWIDTH 529 0
DWIDTH 7 0
BBX 7 15 0 -2
BITMAP
0404
2400
B400
B414
B410
B400
B400
B400
B400
B400
B400
B400
B400
BEA4
BFE0
ENDCHAR
STARTCHAR backslash
ENCODING 92
SWIDTH 487 0
DWIDTH 7 0
BBX 7 15 0 -3
BITMAP
3000
F000
F400
B400
B800
7800
7C00
7C00
3C00
3D00
2D00
2E00
2E04
1FF4
0A80
ENDCHAR
STARTCHAR bracketright
ENCODING 93
SWIDTH 529 0
DWIDTH 7 0
BBX 7 15 0 -2
BITMAP
0404
2400
B410
B900
BE00
6E00
1E00
1E00
1E00
1E00
1E00
1400
7400
BEA4
BFD0
ENDCHAR
STARTCHAR asciicircum
ENCODING 94
SWIDTH 814 0
DWIDTH 11 0
BBX 11 10 0 1
BITMAP
004040
020000
0A0000
1D0400
1C0C00
281D00
382D00
742E00
BE5FA4
BE0FD0
ENDCHAR
STARTCHAR underscore
ENCODING 95
SWIDTH 834 0
DWIDTH 12 0
BBX 11 5 0 -3
BITMAP
040004
280000
780000
7EAAA4
7FFFE0
ENDCHAR
STARTCHAR grave
ENCODING 96
SWIDTH 600 0
DWIDTH 8 0
BBX 8 5 0 9
BITMAP
0400
2400
B400
BFE9
6BF8
ENDCHAR
STARTCHAR a
ENCODING 97
SWIDTH 830 0
DWIDTH 12 0
BBX 11 13 0 -2
BITMAP
004000
020000
050100
0C0400
180D00
281E00
340000
740010
B40000
B42F00
B41F00
BE9FA4
7F4FE0
ENDCHAR
STARTCHAR b
ENCODING 98
SWIDTH 825 0
DWIDTH 12 0
BBX 11 13 0 -2
BITMAP
040000
280000
784000
781D00
781900
784144
780010
781F00
781A00
784000
780000
7EAAA0
7FFF80
ENDCHAR
STARTCHAR c
ENCODING 99
SWIDTH 728 0
DWIDTH 10 0
BBX 10 13 0 -2
BITMAP
010010
040000
280000
740A90
741F40
B40000
B40000
B40000
B40000
780000
7D0000
3FEA90
1BFF40
ENDCHAR
STARTCHAR d
ENCODING 100
SWIDTH 846 0
DWIDTH 12 0
BBX 10 13 0 -2
BITMAP
040010
280000
784040
780400
781F00
781F00
780F00
780F00
780900
784000
780000
7EAA90
7FFE40
ENDCHAR
STARTCHAR e
ENCODING 101
SWIDTH 754 0
DWIDTH 11 0
BBX 10 13 0 -2
BITMAP
040000
280000
784000
781FD0
780040
784000
780000
781A40
780900
784000
780000
7EAA90
7FFF80
ENDCHAR
STARTCHAR f
ENCODING 102
SWIDTH 718 0
DWIDTH 10 0
BBX 10 13 0 -2
BITMAP
040010
280000
784000
780A90
781F80
780000
784000
780000
781F00
781800
780000
7E9000
7F4000
ENDCHAR
STARTCHAR g
ENCODING 103
SWIDTH 808 0
DWIDTH 11 0
BBX 11 13 0 -2
BITMAP
010010
040000
280000
741A90
741F40
B40100
B40A00
B41E00
B44400
780000
7D0000
3FEAA4
1BFFD0
ENDCHAR
STARTCHAR h
ENCODING 104
SWIDTH 859 0
DWIDTH 12 0
BBX 11 13 0 -2
BITMAP
041140
280700
780B00
780F00
780A00
784010
780000
781A00
781F00
780F00
780F00
7E9FA8
7F4BE0
ENDCHAR
STARTCHAR i
ENCODING 105
SWIDTH 705 0
DWIDTH 10 0
BBX 9 13 0 -2
BITMAP
040000
340000
B41000
B90140
BF4140
1B4000
0B4000
0B4000
0A0000
241000
B40000
BEAA80
7FFE00
ENDCHAR
STARTCHAR j
ENCODING 106
SWIDTH 788 0
DWIDTH 11 0
BBX 10 13 0 -2
BITMAP
000500
001C00
002C00
002C00
002C00
043C00
242C00
B42C00
B40040
B41100
BD0010
7FEB40
1BF900
ENDCHAR
STARTCHAR k
ENCODING 107
SWIDTH 846 0
DWIDTH 12 0
BBX 11 13 0 -2
BITMAP
041104
280500
781C00
781800
780000
784100
780000
781F00
781F00
780F00
780F00
7E9FA8
7F4BE0
ENDCHAR
STARTCHAR l
ENCODING 108
SWIDTH 795 0
DWIDTH 11 0
BBX 11 13 0 -2
BITMAP
041000
280000
780000
780000
780000
780100
780600
781E00
780400
784000
780000
7EAAA4
7FFFD0
ENDCHAR
STARTCHAR m
ENCODING 109
SWIDTH 949 0
DWIDTH 13 0
BBX 13 13 0 -2
BITMAP
04001040
28008000
78424400
78121000
78044000
78000000
78145000
781D9000
781ED000
7812D000
7802D000
7E92FA00
7F41FC00
ENDCHAR
STARTCHAR n
ENCODING 110
SWIDTH 853 0
DWIDTH 12 0
BBX 11 13 0 -2
BITMAP
040140
280300
784700
781200
780400
780000
781400
781C10
781E10
781F00
781F00
7E9FA4
7F4BE0
ENDCHAR
STARTCHAR o
ENCODING 111
SWIDTH 837 0
DWIDTH 12 0
BBX 11 13 0 -2
BITMAP
000010
040004
280000
741E00
741F00
B40F00
B40F00
B40F00
B44500
B81540
7D0014
3FFAD0
0BFE00
ENDCHAR
STARTCHAR p
ENCODING 112
SWIDTH 782 0
DWIDTH 11 0
BBX 11 13 0 -2
BITMAP
040010
280004
784000
780400
781E00
781E00
784000
780000
781A80
781E00
780000
7E9000
7F4000
ENDCHAR
STARTCHAR q
ENCODING 113
SWIDTH 837 0
DWIDTH 12 0
BBX 11 14 0 -3
BITMAP
000010
040000
280000
741E00
741F00
B40F00
B40F00
B40F00
B84500
7C1404
7F4064
2FD080
07FA00
02F800
ENDCHAR
STARTCHAR r
ENCODING 114
SWIDTH 843 0
DWIDTH 12 0
BBX 11 13 0 -2
BITMAP
040050
280000
784000
781D00
781D00
780004
784040
780000
781F40
781F40
780B40
7E9BE8
7F4BE0
ENDCHAR
STARTCHAR s
ENCODING 115
SWIDTH 750 0
DWIDTH 11 0
BBX 10 13 0 -2
BITMAP
010010
040000
340010
741FC0
B40150
B80000
BE4000
7FF800
140000
740000
B40000
BEAA40
BFF900
ENDCHAR
STARTCHAR t
ENCODING 116
SWIDTH 756 0
DWIDTH 11 0
BBX 10 13 0 -2
BITMAP
140000
700000
F00400
FA40A0
BF8080
078000
078000
078000
078000
078000
078000
07E900
07F400
ENDCHAR
STARTCHAR u
ENCODING 117
SWIDTH 846 0
DWIDTH 12 0
BBX 10 13 0 -2
BITMAP
041140
280700
780F00
780F00
780F00
780F00
780F00
780F00
784000
781400
7E0010
2FFAD0
0BFE40
ENDCHAR
STARTCHAR v
ENCODING 118
SWIDTH 830 0
DWIDTH 12 0
BBX 9 13 0 -2
BITMAP
041100
340B00
B41F00
B41F00
B41F00
B41E00
B80D00
7C0400
7D0000
2E0100
1F0000
0FEA40
0BFE00
ENDCHAR
STARTCHAR w
ENCODING 119
SWIDTH 931 0
DWIDTH 13 0
BBX 11 13 0 -2
BITMAP
041010
340090
7402D0
B402D0
B405D0
B41450
B40000
B40000
780200
7C0700
3D0740
2FABE8
1F87E0
ENDCHAR
STARTCHAR x
ENCODING 120
SWIDTH 837 0
DWIDTH 12 0
BBX 11 13 0 -2
BITMAP
041140
340700
740E00
780900
7D0000
3F0110
1D0000
080400
241E00
741F00
741F00
BE9FA4
7F4FE0
ENDCHAR
STARTCHAR y
ENCODING 121
SWIDTH 805 0
DWIDTH 11 0
BBX 11 13 0 -2
BITMAP
140104
740A00
B41E00
B41E00
B41D00
B84404
BD0000
3F0400
1F8040
0BC000
03C000
03EA00
03F800
ENDCHAR
STARTCHAR z
ENCODING 122
SWIDTH 760 0
DWIDTH 11 0
BBX 10 13 0 -2
BITMAP
040010
280000
780000
7EA000
7FC110
014440
060000
080000
240000
740000
B40000
BEAAA0
BFFF80
ENDCHAR
STARTCHAR braceleft
ENCODING 123
SWIDTH 555 0
DWIDTH 8 0
BBX 7 14 0 -2
BITMAP
0100
0800
2804
3804
3800
7010
B010
F840
F800
7800
3C00
3E10
2FE8
0BE0
ENDCHAR
STARTCHAR bar
ENCODING 124
SWIDTH 447 0
DWIDTH 6 0
BBX 5 16 0 -3
BITMAP
0400
1800
7800
7800
7800
7800
7800
7800
7800
7800
7800
7800
7800
7800
7F80
6A00
ENDCHAR
STARTCHAR braceright
ENCODING 125
SWIDTH 555 0
DWIDTH 8 0
BBX 8 15 0 -2
BITMAP
0400
2404
B444
B800
BE00
6E00
1E01
1F40
0E11
0E00
1E00
1404
7404
BE90
BE00
ENDCHAR
STARTCHAR asciitilde
ENCODING 126
SWIDTH 834 0
DWIDTH 12 0
BBX 11 5 0 2
BITMAP
000004
040000
380004
7FFEA4
7ABF80
ENDCHAR
STARTCHAR uni00A0
ENCODING 160
SWIDTH 325 0
DWIDTH 5 0
BBX 1 1 0 0
BITMAP
00
ENDCHAR
STARTCHAR exclamdown
ENCODING 161
SWIDTH 523 0
DWIDTH 7 0
BBX 5 13 1 -2
BITMAP
1000
6000
E000
F000
FF80
B000
F000
F000
F000
E000
E000
FA80
FE00
ENDCHAR
STARTCHAR cent
ENCODING 162
SWIDTH 728 0
DWIDTH 10 0
BBX 10 14 0 -2
BITMAP
001000
008040
000400
140000
340A90
741F40
B40000
B40000
B40000
780400
7E4010
2FD090
07FA40
02F800
ENDCHAR
STARTCHAR sterling
ENCODING 163
SWIDTH 795 0
DWIDTH 11 0
BBX 11 12 0 -2
BITMAP
040000
180010
380F80
700600
700000
B00100
F81E00
B80000
784000
780000
7EAAA4
7FFFD0
ENDCHAR
STARTCHAR currency
ENCODING 164
SWIDTH 921 0
DWIDTH 13 0
BBX 13 12 0 -2
BITMAP
04001000
28404040
BE101100
3E0B4000
1E0B8000
1E0B8000
1E111000
18004000
24155040
7DBFF500
7E69F800
14005000
ENDCHAR
STARTCHAR yen
ENCODING 165
SWIDTH 803 0
DWIDTH 11 0
BBX 11 13 0 -2
BITMAP
140104
740A00
B41E00
B41E00
B80800
BD0000
7E0010
2C0000
2C0400
3D4050
3FC080
03EA00
03F800
ENDCHAR
STARTCHAR brokenbar
ENCODING 166
SWIDTH 447 0
DWIDTH 6 0
BBX 6 16 0 -3
BITMAP
0400
2800
7800
7800
7800
7800
7E90
7E40
2800
7800
7800
7800
7800
7800
7F80
6A00
ENDCHAR
STARTCHAR section
ENCODING 167
SWIDTH 750 0
DWIDTH 11 0
BBX 10 13 0 -2
BITMAP
000010
040000
240000
741B80
B40000
B42C00
B80000
BD0040
7FE800
280000
340010
7EAA40
7FF900
ENDCHAR
STARTCHAR dieresis
ENCODING 168
SWIDTH 600 0
DWIDTH 8 0
BBX 9 5 0 9
BITMAP
005000
605000
F05040
FFFE00
A9A800
ENDCHAR
STARTCHAR copyright
ENCODING 169
SWIDTH 967 0
DWIDTH 14 0
BBX 13 15 0 -3
BITMAP
01000000
087FF800
29E55D40
75400A40
75C2AE40
B5C2AE40
B5C01E40
B5C01E40
B5C00A40
B5E00940
78BFFD40
7D164100
3F955500
1FFFF400
01AA4000
ENDCHAR
STARTCHAR ordfeminine
ENCODING 170
SWIDTH 620 0
DWIDTH 9 0
BBX 9 13 0 -2
BITMAP
010000
080000
281000
346000
745000
B10000
B05000
B0B000
B5B500
B9A900
700000
BAAA40
BFFC00
ENDCHAR
STARTCHAR guillemotleft
ENCODING 171
SWIDTH 912 0
DWIDTH 13 0
BBX 12 8 0 0
BITMAP
010040
040200
341A05
B41905
B40200
BD0380
7FEBFE
1BF5B8
ENDCHAR
STARTCHAR logicalnot
ENCODING 172
SWIDTH 834 0
DWIDTH 12 0
BBX 11 9 0 -1
BITMAP
000004
180000
780000
780000
7FFF00
2AAF00
000B00
000BA4
000BD0
ENDCHAR
STARTCHAR uni00AD
ENCODING 173
SWIDTH 520 0
DWIDTH 7 0
BBX 7 5 0 2
BITMAP
0400
2400
B400
BEA8
BFE0
ENDCHAR
STARTCHAR registered
ENCODING 174
SWIDTH 660 0
DWIDTH 9 0
BBX 9 10 0 1
BITMAP
02FE00
1A1640
3A2640
7A5640
BA2540
BA3540
BAFE40
7E5500
3FF800
069000
ENDCHAR
STARTCHAR macron
ENCODING 175
SWIDTH 600 0
DWIDTH 8 0
BBX 8 5 0 9
BITMAP
0400
2400
B400
BFFD
6AA4
ENDCHAR
STARTCHAR degree
ENCODING 176
SWIDTH 583 0
DWIDTH 8 0
BBX 7 8 0 3
BITMAP
0504
1400
74A0
B4A0
B400
B400
BEA4
2FE0
ENDCHAR
STARTCHAR plusminus
ENCODING 177
SWIDTH 834 0
DWIDTH 12 0
BBX 11 13 0 -2
BITMAP
001000
009000
01D000
059044
180000
780400
794054
7FD0E0
159044
180000
780000
7EAAA4
7FFFD0
ENDCHAR
STARTCHAR twosuperior
ENCODING 178
SWIDTH 585 0
DWIDTH 8 0
BBX 7 10 0 1
BITMAP
0400
3800
7E90
7E40
1414
7464
B400
B400
BFFC
AAA0
ENDCHAR
STARTCHAR threesuperior
ENCODING 179
SWIDTH 584 0
DWIDTH 8 0
BBX 7 10 0 1
BITMAP
1404
7400
BE80
6C14
2C00
2FD0
2400
B400
BFF4
6A90
ENDCHAR
STARTCHAR acute
ENCODING 180
SWIDTH 600 0
DWIDTH 8 0
BBX 8 4 0 9
BITMAP
1400
7400
BABD
BEA0
ENDCHAR
STARTCHAR mu
ENCODING 181
SWIDTH 813 0
DWIDTH 11 0
BBX 10 12 0 -3
BITMAP
040000
240600
741E00
741E00
741E00
741E00
744400
745000
740010
741A80
7EAE00
7F4000
ENDCHAR
STARTCHAR paragraph
ENCODING 182
SWIDTH 782 0
DWIDTH 11 0
BBX 10 12 0 -2
BITMAP
040000
340040
B00000
B00000
F00000
F41040
BD0000
7F4200
1F4200
0B4200
0BEB90
0BEF80
ENDCHAR
STARTCHAR periodcentered
ENCODING 183
SWIDTH 464 0
DWIDTH 7 0
BBX 6 6 0 1
BITMAP
0400
2400
B400
B400
BEA0
BF80
ENDCHAR
STARTCHAR cedilla
ENCODING 184
SWIDTH 600 0
DWIDTH 8 0
BBX 6 6 1 -4
BITMAP
0100
1C00
2810
3410
7E40
BD00
ENDCHAR
STARTCHAR onesuperior
ENCODING 185
SWIDTH 557 0
DWIDTH 8 0
BBX 7 10 0 1
BITMAP
0400
7840
7E00
6E00
1E00
1904
2400
B400
BFF8
6AA0
ENDCHAR
STARTCHAR ordmasculine
ENCODING 186
SWIDTH 625 0
DWIDTH 9 0
BBX 9 13 0 -2
BITMAP
010100
140000
746000
B07000
B07000
B07000
B40000
B40000
BE5500
7AA800
300000
BAAA40
BFFC00
ENDCHAR
STARTCHAR guillemotright
ENCODING 187
SWIDTH 912 0
DWIDTH 13 0
BBX 13 9 0 0
BITMAP
05415000
24590500
74050440
BD024000
7E439000
24020000
74190500
BAEEB400
791E8000
ENDCHAR
STARTCHAR onequarter
ENCODING 188
SWIDTH 1303 0
DWIDTH 18 0
BBX 18 13 0 -2
BITMAP
0400110000
3440800000
7802C10000
7E02810110
1E03820900
1E07430900
1906430900
2402070500
BEAB074040
BFFE0BE900
000E07FD00
001F901F90
001F801F40
ENDCHAR
STARTCHAR onehalf
ENCODING 189
SWIDTH 1260 0
DWIDTH 18 0
BBX 17 13 0 -2
BITMAP
0400110000
3440800000
7802C10000
7E02814000
1E03820000
1E07435000
190643E400
2402064000
BEAB060140
BFFE0A0900
000E0A0000
001FAFAA80
001F9FFE00
ENDCHAR
STARTCHAR threequarters
ENCODING 190
SWIDTH 1313 0
DWIDTH 18 0
BBX 18 13 0 -2
BITMAP
1404110000
7400900000
B402C10000
BD46C14110
2C01820A00
2FD1820A00
2401430A00
3402430500
BEAF074040
BFEB07E900
000E07FE00
000F901F90
001F801F80
ENDCHAR
STARTCHAR questiondown
ENCODING 191
SWIDTH 756 0
DWIDTH 11 0
BBX 10 13 0 -2
BITMAP
001000
009000
01D000
01E000
01FA40
050000
140000
740540
B41A40
B40000
BC0000
7FAAA0
2FFF80
ENDCHAR
STARTCHAR Agrave
ENCODING 192
SWIDTH 830 0
DWIDTH 12 0
BBX 11 16 0 -2
BITMAP
02AA50
0A0010
1F0000
0F9500
060000
060100
0D0400
1C0D00
281E00
340000
740010
B40000
B42F00
B41F00
BE9FA4
7F4FE0
ENDCHAR
STARTCHAR Aacute
ENCODING 193
SWIDTH 830 0
DWIDTH 12 0
BBX 11 17 0 -2
BITMAP
000150
01BEA0
070000
0E0010
1F0000
0F0000
090100
0C0400
180D00
281E00
340000
740010
B40000
B42F00
B41F00
BE9FA4
7F4FE0
ENDCHAR
STARTCHAR Acircumflex
ENCODING 194
SWIDTH 830 0
DWIDTH 12 0
BBX 11 16 0 -2
BITMAP
000010
060000
0F6F90
1F5550
0F0000
050100
0C0400
180D00
281E00
340000
740010
B40000
B42F00
B41F00
BE9FA4
7F4FE0
ENDCHAR
STARTCHAR Atilde
ENCODING 195
SWIDTH 830 0
DWIDTH 12 0
BBX 11 16 0 -2
BITMAP
001540
060000
0E1410
1FAA80
0F0000
060100
0D0400
1C0D00
281E00
340000
740010
B40000
B42F00
B41F00
BE9FA4
7F4FE0
ENDCHAR
STARTCHAR Adieresis
ENCODING 196
SWIDTH 830 0
DWIDTH 12 0
BBX 11 16 0 -2
BITMAP
010500
090800
1D0800
2FAA90
1F0000
0A0100
0D0400
1C0D00
281E00
340000
740010
B40000
B42F00
B41F00
BE9FA4
7F4FE0
ENDCHAR
STARTCHAR Aring
ENCODING 197
SWIDTH 830 0
DWIDTH 12 0
BBX 11 16 0 -2
BITMAP
010010
060000
0E0D00
1E0900
1F0000
0E0100
0D0400
1C0D00
281E00
340000
740010
B40000
B42F00
B41F00
BE9FA4
7F4FE0
ENDCHAR
STARTCHAR AE
ENCODING 198
SWIDTH 1105 0
DWIDTH 15 0
BBX 15 13 0 -2
BITMAP
01400004
06000000
0D001000
1C0502A4
284E02A0
385E1000
74000000
B4001290
B4000240
B42E0000
B42E0000
BE9FAAA4
7F4FFFE0
ENDCHAR
STARTCHAR Ccedilla
ENCODING 199
SWIDTH 728 0
DWIDTH 10 0
BBX 10 15 0 -4
BITMAP
000010
040000
280000
741FD0
741A00
B40000
B40000
B40000
B40000
780100
7E4000
3FC080
0BC000
03F800
02A000
ENDCHAR
STARTCHAR Egrave
ENCODING 200
SWIDTH 754 0
DWIDTH 11 0
BBX 10 17 0 -2
BITMAP
014000
0AAF80
2D0010
2D0000
280040
180000
784000
781FD0
780040
784000
780000
781A40
780900
784000
780000
7EAA90
7FFF80
ENDCHAR
STARTCHAR Eacute
ENCODING 201
SWIDTH 754 0
DWIDTH 11 0
BBX 10 17 0 -2
BITMAP
000150
01BE90
0A0000
1E0010
184000
280000
784000
781FD0
780040
784000
780000
781A40
780900
784000
780000
7EAA90
7FFF80
ENDCHAR
STARTCHAR Ecircumflex
ENCODING 202
SWIDTH 754 0
DWIDTH 11 0
BBX 10 16 0 -2
BITMAP
010000
090000
1EBE40
280000
280000
784000
781FD0
780040
784000
780000
781A40
780900
784000
780000
7EAA90
7FFF80
ENDCHAR
STARTCHAR Edieresis
ENCODING 203
SWIDTH 754 0
DWIDTH 11 0
BBX 10 16 0 -2
BITMAP
010400
090800
2D0800
2EAAA0
280000
384000
781FD0
780040
784000
780000
781A40
780900
784000
780000
7EAA90
7FFF80
ENDCHAR
STARTCHAR Igrave
ENCODING 204
SWIDTH 705 0
DWIDTH 10 0
BBX 9 17 0 -2
BITMAP
014000
0AAF80
3C0040
3C0000
380100
240000
741000
B90140
BF4140
1B4000
0B4000
0B4000
0A0000
241000
B40000
BEAA80
7FFE00
ENDCHAR
STARTCHAR Iacute
ENCODING 205
SWIDTH 705 0
DWIDTH 10 0
BBX 9 17 0 -2
BITMAP
000140
06FA80
1C0000
3C0040
390000
340000
741000
B90140
BF4140
1B4000
0B4000
0B4000
0A0000
241000
B40000
BEAA80
7FFE00
ENDCHAR
STARTCHAR Icircumflex
ENCODING 206
SWIDTH 705 0
DWIDTH 10 0
BBX 9 16 0 -2
BITMAP
000040
080000
2DBE40
380000
340000
741000
B90140
BF4140
1B4000
0B4000
0B4000
0A0000
241000
B40000
BEAA80
7FFE00
ENDCHAR
STARTCHAR Idieresis
ENCODING 207
SWIDTH 705 0
DWIDTH 10 0
BBX 10 16 0 -2
BITMAP
001400
182400
782400
7AAA90
740000
741000
B90140
BF4140
1B4000
0B4000
0B4000
0A0000
241000
B40000
BEAA80
7FFE00
ENDCHAR
STARTCHAR Eth
ENCODING 208
SWIDTH 856 0
DWIDTH 12 0
BBX 10 13 0 -2
BITMAP
040000
280000
784440
780F00
740740
700340
B04340
F80F40
B80000
784000
780000
7EAA90
3FFF40
ENDCHAR
STARTCHAR Ntilde
ENCODING 209
SWIDTH 853 0
DWIDTH 12 0
BBX 11 16 0 -2
BITMAP
001500
070000
0F1400
086F40
280F00
784700
781200
780400
780000
781400
781C10
781E10
781F00
781F00
7E9FA4
7F4BE0
ENDCHAR
STARTCHAR Ograve
ENCODING 210
SWIDTH 837 0
DWIDTH 12 0
BBX 10 17 0 -2
BITMAP
004000
02AA90
0E0010
0F0000
0E4140
040000
280000
741E00
741F00
B40F00
B40F00
B40F00
B44500
B81540
7D0010
3FFAD0
0BFE00
ENDCHAR
STARTCHAR Oacute
ENCODING 211
SWIDTH 837 0
DWIDTH 12 0
BBX 10 17 0 -2
BITMAP
000050
01AEA0
070000
0E0010
0E1410
080000
280000
741E00
741F00
B40F00
B40F00
B40F00
B44500
B81540
7D0010
3FFAD0
0BFE00
ENDCHAR
STARTCHAR Ocircumflex
ENCODING 212
SWIDTH 837 0
DWIDTH 12 0
BBX 10 16 0 -2
BITMAP
000110
060000
0F6E90
0E4010
080000
280000
741E00
741F00
B40F00
B40F00
B40F00
B44500
B81540
7D0010
3FFAD0
0BFE00
ENDCHAR
STARTCHAR Otilde
ENCODING 213
SWIDTH 837 0
DWIDTH 12 0
BBX 11 16 0 -2
BITMAP
011540
060000
0F1410
0F5550
080000
280000
741E00
741F00
B40F00
B40F00
B40F00
B44500
B81540
7D0014
3FFAD0
0BFE40
ENDCHAR
STARTCHAR Odieresis
ENCODING 214
SWIDTH 837 0
DWIDTH 12 0
BBX 11 17 0 -2
BITMAP
010000
050800
1D0800
1E0900
1F9590
080004
280000
741E00
741F00
B40F00
B40F00
B40F00
B44500
B81540
7D0014
3FFAD0
0BFE40
ENDCHAR
STARTCHAR multiply
ENCODING 215
SWIDTH 834 0
DWIDTH 12 0
BBX 10 9 1 -1
BITMAP
100400
740010
FD0440
7E1000
184040
201010
B47C00
FDBE00
781800
ENDCHAR
STARTCHAR Oslash
ENCODING 216
SWIDTH 837 0
DWIDTH 12 0
BBX 11 14 0 -3
BITMAP
005400
040044
280050
742900
742500
B42540
B41640
B41340
B45610
B81000
7D0014
3D1AD0
2FFE00
2A0000
ENDCHAR
STARTCHAR Ugrave
ENCODING 217
SWIDTH 846 0
DWIDTH 12 0
BBX 10 17 0 -2
BITMAP
005000
06AFD0
0E0010
1F0000
081E00
381B00
780F00
780F00
780F00
780F00
780F00
780F00
784000
781400
7E0010
2FFAD0
0BFE40
ENDCHAR
STARTCHAR Uacute
ENCODING 218
SWIDTH 846 0
DWIDTH 12 0
BBX 10 17 0 -2
BITMAP
000050
01BEA0
074000
0F0010
084B40
380700
780F00
780F00
780F00
780F00
780F00
780F00
784000
781400
7E0010
2FFAD0
0BFE40
ENDCHAR
STARTCHAR Ucircumflex
ENCODING 219
SWIDTH 846 0
DWIDTH 12 0
BBX 10 16 0 -2
BITMAP
010110
070000
0F6F90
081F40
380B00
780F00
780F00
780F00
780F00
780F00
780F00
784000
781400
7E0010
2FFAD0
0BFE40
ENDCHAR
STARTCHAR Udieresis
ENCODING 220
SWIDTH 846 0
DWIDTH 12 0
BBX 12 17 0 -2
BITMAP
010100
060500
1E0900
1E0900
1EAFA9
381F00
780F00
780F00
780F00
780F00
780F00
780F00
784000
781440
7E0000
2FFAD0
0BFE40
ENDCHAR
STARTCHAR Yacute
ENCODING 221
SWIDTH 805 0
DWIDTH 11 0
BBX 11 17 0 -2
BITMAP
000150
01BEA0
0A0000
1E0010
145A44
741A00
B41E00
B41E00
B41D00
B84404
BD0000
3F0400
1F8040
0BC000
03C000
03EA00
03F800
ENDCHAR
STARTCHAR Thorn
ENCODING 222
SWIDTH 792 0
DWIDTH 11 0
BBX 11 13 0 -2
BITMAP
041000
280000
780010
784004
780400
781E00
781E00
780000
784004
780010
781F80
7EA900
7F4000
ENDCHAR
STARTCHAR germandbls
ENCODING 223
SWIDTH 859 0
DWIDTH 12 0
BBX 11 13 0 -2
BITMAP
040010
280000
784000
780400
781C04
781840
781800
781F80
781900
781800
781800
7EBEA4
7FBF80
ENDCHAR
STARTCHAR agrave
ENCODING 224
SWIDTH 830 0
DWIDTH 12 0
BBX 11 16 0 -2
BITMAP
02AA50
0A0010
1F0000
0F9500
060000
060100
0D0400
1C0D00
281E00
340000
740010
B40000
B42F00
B41F00
BE9FA4
7F4FE0
ENDCHAR
STARTCHAR aacute
ENCODING 225
SWIDTH 830 0
DWIDTH 12 0
BBX 11 17 0 -2
BITMAP
000150
01BEA0
070000
0E0010
1F0000
0F0000
090100
0C0400
180D00
281E00
340000
740010
B40000
B42F00
B41F00
BE9FA4
7F4FE0
ENDCHAR
STARTCHAR acircumflex
ENCODING 226
SWIDTH 830 0
DWIDTH 12 0
BBX 11 16 0 -2
BITMAP
000010
060000
0F6F90
1F5550
0F0000
050100
0C0400
180D00
281E00
340000
740010
B40000
B42F00
B41F00
BE9FA4
7F4FE0
ENDCHAR
STARTCHAR atilde
ENCODING 227
SWIDTH 830 0
DWIDTH 12 0
BBX 11 16 0 -2
BITMAP
001540
060000
0E1410
1FAA80
0F0000
060100
0D0400
1C0D00
281E00
340000
740010
B40000
B42F00
B41F00
BE9FA4
7F4FE0
ENDCHAR
STARTCHAR adieresis
ENCODING 228
SWIDTH 830 0
DWIDTH 12 0
BBX 11 16 0 -2
BITMAP
010500
090800
1D0800
2FAA90
1F0000
0A0100
0D0400
1C0D00
281E00
340000
740010
B40000
B42F00
B41F00
BE9FA4
7F4FE0
ENDCHAR
STARTCHAR aring
ENCODING 229
SWIDTH 830 0
DWIDTH 12 0
BBX 11 16 0 -2
BITMAP
010010
060000
0E0D00
1E0900
1F0000
0E0100
0D0400
1C0D00
281E00
340000
740010
B40000
B42F00
B41F00
BE9FA4
7F4FE0
ENDCHAR
STARTCHAR ae
ENCODING 230
SWIDTH 1105 0
DWIDTH 15 0
BBX 15 13 0 -2
BITMAP
01400004
06000000
0D001000
1C0502A4
284E02A0
385E1000
74000000
B4001290
B4000240
B42E0000
B42E0000
BE9FAAA4
7F4FFFE0
ENDCHAR
STARTCHAR ccedilla
ENCODING 231
SWIDTH 728 0
DWIDTH 10 0
BBX 10 15 0 -4
BITMAP
000010
040000
280000
741FD0
741A00
B40000
B40000
B40000
B40000
780100
7E4000
3FC080
0BC000
03F800
02A000
ENDCHAR
STARTCHAR egrave
ENCODING 232
SWIDTH 754 0
DWIDTH 11 0
BBX 10 17 0 -2
BITMAP
014000
0AAF80
2D0010
2D0000
280040
180000
784000
781FD0
780040
784000
780000
781A40
780900
784000
780000
7EAA90
7FFF80
ENDCHAR
STARTCHAR eacute
ENCODING 233
SWIDTH 754 0
DWIDTH 11 0
BBX 10 17 0 -2
BITMAP
000150
01BE90
0A0000
1E0010
184000
280000
784000
781FD0
780040
784000
780000
781A40
780900
784000
780000
7EAA90
7FFF80
ENDCHAR
STARTCHAR ecircumflex
ENCODING 234
SWIDTH 754 0
DWIDTH 11 0
BBX 10 16 0 -2
BITMAP
010000
090000
1EBE40
280000
280000
784000
781FD0
780040
784000
780000
781A40
780900
784000
780000
7EAA90
7FFF80
ENDCHAR
STARTCHAR edieresis
ENCODING 235
SWIDTH 754 0
DWIDTH 11 0
BBX 10 16 0 -2
BITMAP
010400
090800
2D0800
2EAAA0
280000
384000
781FD0
780040
784000
780000
781A40
780900
784000
780000
7EAA90
7FFF80
ENDCHAR
STARTCHAR igrave
ENCODING 236
SWIDTH 705 0
DWIDTH 10 0
BBX 9 17 0 -2
BITMAP
014000
0AAF80
3C0040
3C0000
380100
240000
741000
B90140
BF4140
1B4000
0B4000
0B4000
0A0000
241000
B40000
BEAA80
7FFE00
ENDCHAR
STARTCHAR iacute
ENCODING 237
SWIDTH 705 0
DWIDTH 10 0
BBX 9 17 0 -2
BITMAP
000140
06FA80
1C0000
3C0040
390000
340000
741000
B90140
BF4140
1B4000
0B4000
0B4000
0A0000
241000
B40000
BEAA80
7FFE00
ENDCHAR
STARTCHAR icircumflex
ENCODING 238
SWIDTH 705 0
DWIDTH 10 0
BBX 9 16 0 -2
BITMAP
000040
080000
2DBE40
380000
340000
741000
B90140
BF4140
1B4000
0B4000
0B4000
0A0000
241000
B40000
BEAA80
7FFE00
ENDCHAR
STARTCHAR idieresis
ENCODING 239
SWIDTH 705 0
DWIDTH 10 0
BBX 10 16 0 -2
BITMAP
001400
182400
782400
7AAA90
740000
741000
B90140
BF4140
1B4000
0B4000
0B4000
0A0000
241000
B40000
BEAA80
7FFE00
ENDCHAR
STARTCHAR eth
ENCODING 240
SWIDTH 856 0
DWIDTH 12 0
BBX 10 13 0 -2
BITMAP
040000
280000
784440
780F00
740740
700340
B04340
F80F40
B80000
784000
780000
7EAA90
3FFF40
ENDCHAR
STARTCHAR ntilde
ENCODING 241
SWIDTH 853 0
DWIDTH 12 0
BBX 11 16 0 -2
BITMAP
001500
070000
0F1400
086F40
280F00
784700
781200
780400
780000
781400
781C10
781E10
781F00
781F00
7E9FA4
7F4BE0
ENDCHAR
STARTCHAR ograve
ENCODING 242
SWIDTH 837 0
DWIDTH 12 0
BBX 10 17 0 -2
BITMAP
004000
02AA90
0E0010
0F0000
0E4140
040000
280000
741E00
741F00
B40F00
B40F00
B40F00
B44500
B81540
7D0010
3FFAD0
0BFE00
ENDCHAR
STARTCHAR oacute
ENCODING 243
SWIDTH 837 0
DWIDTH 12 0
BBX 10 17 0 -2
BITMAP
000050
01AEA0
070000
0E0010
0E1410
080000
280000
741E00
741F00
B40F00
B40F00
B40F00
B44500
B81540
7D0010
3FFAD0
0BFE00
ENDCHAR
STARTCHAR ocircumflex
ENCODING 244
SWIDTH 837 0
DWIDTH 12 0
BBX 10 16 0 -2
BITMAP
000110
060000
0F6E90
0E4010
080000
280000
741E00
741F00
B40F00
B40F00
B40F00
B44500
B81540
7D0010
3FFAD0
0BFE00
ENDCHAR
STARTCHAR otilde
ENCODING 245
SWIDTH 837 0
DWIDTH 12 0
BBX 11 16 0 -2
BITMAP
011540
060000
0F1410
0F5550
080000
280000
741E00
741F00
B40F00
B40F00
B40F00
B44500
B81540
7D0014
3FFAD0
0BFE40
ENDCHAR
STARTCHAR odieresis
ENCODING 246
SWIDTH 837 0
DWIDTH 12 0
BBX 11 17 0 -2
BITMAP
010000
050800
1D0800
1E0900
1F9590
080004
280000
741E00
741F00
B40F00
B40F00
B40F00
B44500
B81540
7D0014
3FFAD0
0BFE40
ENDCHAR
STARTCHAR divide
ENCODING 247
SWIDTH 834 0
DWIDTH 12 0
BBX 11 12 0 -1
BITMAP
001000
008000
02C000
03D000
05AA44
180000
780000
7EAAA4
6BC090
02C000
03EA00
02F800
ENDCHAR
STARTCHAR oslash
ENCODING 248
SWIDTH 837 0
DWIDTH 12 0
BBX 11 14 0 -3
BITMAP
005400
040044
280050
742900
742500
B42540
B41640
B41340
B45610
B81000
7D0014
3D1AD0
2FFE00
2A0000
ENDCHAR
STARTCHAR ugrave
ENCODING 249
SWIDTH 846 0
DWIDTH 12 0
BBX 10 17 0 -2
BITMAP
005000
06AFD0
0E0010
1F0000
081E00
381B00
780F00
780F00
780F00
780F00
780F00
780F00
784000
781400
7E0010
2FFAD0
0BFE40
ENDCHAR
STARTCHAR uacute
ENCODING 250
SWIDTH 846 0
DWIDTH 12 0
BBX 10 17 0 -2
BITMAP
000050
01BEA0
074000
0F0010
084B40
380700
780F00
780F00
780F00
780F00
780F00
780F00
784000
781400
7E0010
2FFAD0
0BFE40
ENDCHAR
STARTCHAR ucircumflex
ENCODING 251
SWIDTH 846 0
DWIDTH 12 0
BBX 10 16 0 -2
BITMAP
010110
070000
0F6F90
081F40
380B00
780F00
780F00
780F00
780F00
780F00
780F00
784000
781400
7E0010
2FFAD0
0BFE40
ENDCHAR
STARTCHAR udieresis
ENCODING 252
SWIDTH 846 0
DWIDTH 12 0
BBX 12 17 0 -2
BITMAP
010100
060500
1E0900
1E0900
1EAFA9
381F00
780F00
780F00
780F00
780F00
780F00
780F00
784000
781440
7E0000
2FFAD0
0BFE40
ENDCHAR
STARTCHAR yacute
ENCODING 253
SWIDTH 805 0
DWIDTH 11 0
BBX 11 17 0 -2
BITMAP
000150
01BEA0
0A0000
1E0010
145A44
741A00
B41E00
B41E00
B41D00
B84404
BD0000
3F0400
1F8040
0BC000
03C000
03EA00
03F800
ENDCHAR
STARTCHAR thorn
ENCODING 254
SWIDTH 792 0
DWIDTH 11 0
BBX 11 13 0 -2
BITMAP
041000
280000
780010
784004
780400
781E00
781E00
780000
784004
780010
781F80
7EA900
7F4000
ENDCHAR
STARTCHAR ydieresis
ENCODING 255
SWIDTH 805 0
DWIDTH 11 0
BBX 11 16 0 -2
BITMAP
010400
090800
2D0800
2ABFA8
241E00
741E00
B41E00
B41D00
B84400
BD0000
7F0400
1F8000
0BC000
03C000
03EA00
03F800
ENDCHAR
STARTCHAR Amacron
ENCODING 256
SWIDTH 830 0
DWIDTH 12 0
BBX 11 15 0 -2
BITMAP
060000
0E0010
1FAA90
0F0000
0A0100
0D0400
1C0D00
281E00
340000
740010
B40000
B42F00
B41F00
BE9FA4
7F4FE0
ENDCHAR
STARTCHAR amacron
ENCODING 257
SWIDTH 830 0
DWIDTH 12 0
BBX 11 15 0 -2
BITMAP
060000
0E0010
1FAA90
0F0000
0A0100
0D0400
1C0D00
281E00
340000
740010
B40000
B42F00
B41F00
BE9FA4
7F4FE0
ENDCHAR
STARTCHAR Abreve
ENCODING 258
SWIDTH 830 0
DWIDTH 12 0
BBX 11 17 0 -2
BITMAP
001100
060A00
0E0000
1F9100
0FAA90
0B0010
060100
0D0404
1C0D04
281E00
340000
740010
B40000
B42F00
B41F00
BE9FA4
7F4FE0
ENDCHAR
STARTCHAR abreve
ENCODING 259
SWIDTH 830 0
DWIDTH 12 0
BBX 11 17 0 -2
BITMAP
001100
060A00
0E0000
1F9100
0FAA90
0B0010
060100
0D0404
1C0D04
281E00
340000
740010
B40000
B42F00
B41F00
BE9FA4
7F4FE0
ENDCHAR
STARTCHAR Aogonek
ENCODING 260
SWIDTH 830 0
DWIDTH 12 0
BBX 11 16 0 -5
BITMAP
004000
020000
050100
0C0400
180D00
281E00
340000
740010
B40000
B42F00
B41F00
BE9E04
7F4E00
001F00
001FF4
000A90
ENDCHAR
STARTCHAR aogonek
ENCODING 261
SWIDTH 830 0
DWIDTH 12 0
BBX 11 16 0 -5
BITMAP
004000
020000
050100
0C0400
180D00
281E00
340000
740010
B40000
B42F00
B41F00
BE9E04
7F4E00
001F00
001FF4
000A90
ENDCHAR
STARTCHAR Cacute
ENCODING 262
SWIDTH 728 0
DWIDTH 10 0
BBX 10 17 0 -2
BITMAP
000050
01BEA0
070000
0F0010
0E0010
0C0000
040000
240A90
741F40
B40000
B40000
B40000
B40000
B80000
7D0000
3FEA90
1BFF40
ENDCHAR
STARTCHAR cacute
ENCODING 263
SWIDTH 728 0
DWIDTH 10 0
BBX 10 17 0 -2
BITMAP
000050
01BEA0
070000
0F0010
0E0010
0C0000
040000
240A90
741F40
B40000
B40000
B40000
B40000
B80000
7D0000
3FEA90
1BFF40
ENDCHAR
STARTCHAR Ccircumflex
ENCODING 264
SWIDTH 728 0
DWIDTH 10 0
BBX 10 15 0 -2
BITMAP
050400
1EBE90
1E5010
1C0000
140000
340A90
741F40
B40000
B40000
B40000
B40000
B80000
7D0000
3FEA90
0BFF40
ENDCHAR
STARTCHAR ccircumflex
ENCODING 265
SWIDTH 728 0
DWIDTH 10 0
BBX 10 15 0 -2
BITMAP
050400
1EBE90
1E5010
1C0000
140000
340A90
741F40
B40000
B40000
B40000
B40000
B80000
7D0000
3FEA90
0BFF40
ENDCHAR
STARTCHAR Cdotaccent
ENCODING 266
SWIDTH 728 0
DWIDTH 10 0
BBX 10 16 0 -2
BITMAP
001000
01C000
03C000
025010
000000
040000
340A90
741F40
B40000
B40000
B40000
B40000
B80000
7D0000
3FEA90
0BFF40
ENDCHAR
STARTCHAR cdotaccent
ENCODING 267
SWIDTH 728 0
DWIDTH 10 0
BBX 10 16 0 -2
BITMAP
001000
01C000
03C000
025010
000000
040000
340A90
741F40
B40000
B40000
B40000
B40000
B80000
7D0000
3FEA90
0BFF40
ENDCHAR
STARTCHAR Ccaron
ENCODING 268
SWIDTH 728 0
DWIDTH 10 0
BBX 10 17 0 -2
BITMAP
014000
061000
1E0000
1F9140
1E5010
040000
140000
340A90
741F40
B40000
B40000
B40000
B40000
B80000
7D0000
3FEA90
0BFF40
ENDCHAR
STARTCHAR ccaron
ENCODING 269
SWIDTH 728 0
DWIDTH 10 0
BBX 10 17 0 -2
BITMAP
014000
061000
1E0000
1F9140
1E5010
040000
140000
340A90
741F40
B40000
B40000
B40000
B40000
B80000
7D0000
3FEA90
0BFF40
ENDCHAR
STARTCHAR Dcaron
ENCODING 270
SWIDTH 846 0
DWIDTH 12 0
BBX 10 17 0 -2
BITMAP
004000
061000
0F0000
0F9040
080010
280000
784040
780400
781F00
781F00
780F00
780F00
780900
784000
780000
7EAA90
7FFE40
ENDCHAR
STARTCHAR dcaron
ENCODING 271
SWIDTH 846 0
DWIDTH 12 0
BBX 10 17 0 -2
BITMAP
004000
061000
0F0000
0F9040
080010
280000
784040
780400
781F00
781F00
780F00
780F00
780900
784000
780000
7EAA90
7FFE40
ENDCHAR
STARTCHAR Dcroat
ENCODING 272
SWIDTH 856 0
DWIDTH 12 0
BBX 10 13 0 -2
BITMAP
040000
280000
784440
780F00
740740
700340
B04340
F80F40
B80000
784000
780000
7EAA90
3FFF40
ENDCHAR
STARTCHAR dcroat
ENCODING 273
SWIDTH 856 0
DWIDTH 12 0
BBX 10 13 0 -2
BITMAP
040000
280000
784440
780F00
740740
700340
B04340
F80F40
B80000
784000
780000
7EAA90
3FFF40
ENDCHAR
STARTCHAR Emacron
ENCODING 274
SWIDTH 754 0
DWIDTH 11 0
BBX 10 16 0 -2
BITMAP
010000
090000
1D0000
280000
280000
784000
781FD0
780040
784000
780000
781A40
780900
784000
780000
7EAA90
7FFF80
ENDCHAR
STARTCHAR emacron
ENCODING 275
SWIDTH 754 0
DWIDTH 11 0
BBX 10 16 0 -2
BITMAP
010000
090000
1D0000
280000
280000
784000
781FD0
780040
784000
780000
781A40
780900
784000
780000
7EAA90
7FFF80
ENDCHAR
STARTCHAR Ebreve
ENCODING 276
SWIDTH 754 0
DWIDTH 11 0
BBX 10 17 0 -2
BITMAP
011100
091900
1E0400
1F5100
180000
180000
784000
781FD0
780040
784000
780000
781A40
780900
784000
780000
7EAA90
7FFF80
ENDCHAR
STARTCHAR ebreve
ENCODING 277
SWIDTH 754 0
DWIDTH 11 0
BBX 10 17 0 -2
BITMAP
011100
091900
1E0400
1F5100
180000
180000
784000
781FD0
780040
784000
780000
781A40
780900
784000
780000
7EAA90
7FFF80
ENDCHAR
STARTCHAR Edotaccent
ENCODING 278
SWIDTH 754 0
DWIDTH 11 0
BBX 10 16 0 -2
BITMAP
004100
028000
078000
040000
280000
784000
781FD0
780040
784000
780000
781A40
780900
784000
780000
7EAA90
7FFF80
ENDCHAR
STARTCHAR edotaccent
ENCODING 279
SWIDTH 754 0
DWIDTH 11 0
BBX 10 16 0 -2
BITMAP
004100
028000
078000
040000
280000
784000
781FD0
780040
784000
780000
781A40
780900
784000
780000
7EAA90
7FFF80
ENDCHAR
STARTCHAR Eogonek
ENCODING 280
SWIDTH 754 0
DWIDTH 11 0
BBX 10 16 0 -5
BITMAP
040000
280000
784000
781FD0
780040
784000
780000
781A40
780900
784040
780000
7EA810
7FF800
007C00
007FD0
002A40
ENDCHAR
STARTCHAR eogonek
ENCODING 281
SWIDTH 754 0
DWIDTH 11 0
BBX 10 16 0 -5
BITMAP
040000
280000
784000
781FD0
780040
784000
780000
781A40
780900
784040
780000
7EA810
7FF800
007C00
007FD0
002A40
ENDCHAR
STARTCHAR Ecaron
ENCODING 282
SWIDTH 754 0
DWIDTH 11 0
BBX 10 17 0 -2
BITMAP
014000
091000
1E0000
1F9140
180000
280000
784000
781FD0
780040
784000
780000
781A40
780900
784000
780000
7EAA90
7FFF80
ENDCHAR
STARTCHAR ecaron
ENCODING 283
SWIDTH 754 0
DWIDTH 11 0
BBX 10 17 0 -2
BITMAP
014000
091000
1E0000
1F9140
180000
280000
784000
781FD0
780040
784000
780000
781A40
780900
784000
780000
7EAA90
7FFF80
ENDCHAR
STARTCHAR Gcircumflex
ENCODING 284
SWIDTH 808 0
DWIDTH 11 0
BBX 11 16 0 -2
BITMAP
000010
020000
0B6F90
0E5550
080000
040000
241A90
741F40
B40100
B40A00
B41E00
B44400
B80000
7D0000
3FEAA4
1BFFD0
ENDCHAR
STARTCHAR gcircumflex
ENCODING 285
SWIDTH 808 0
DWIDTH 11 0
BBX 11 16 0 -2
BITMAP
000010
020000
0B6F90
0E5550
080000
040000
241A90
741F40
B40100
B40A00
B41E00
B44400
B80000
7D0000
3FEAA4
1BFFD0
ENDCHAR
STARTCHAR Gbreve
ENCODING 286
SWIDTH 808 0
DWIDTH 11 0
BBX 11 17 0 -2
BITMAP
000110
060A00
0F0000
0F9540
0E5010
040000
140000
341A90
741F40
B40100
B40A00
B41E00
B44400
B80000
7D0000
3FEAA4
0BFFD0
ENDCHAR
STARTCHAR gbreve
ENCODING 287
SWIDTH 808 0
DWIDTH 11 0
BBX 11 17 0 -2
BITMAP
000110
060A00
0F0000
0F9540
0E5010
040000
140000
341A90
741F40
B40100
B40A00
B41E00
B44400
B80000
7D0000
3FEAA4
0BFFD0
ENDCHAR
STARTCHAR Gdotaccent
ENCODING 288
SWIDTH 808 0
DWIDTH 11 0
BBX 11 16 0 -2
BITMAP
001000
009000
02D000
025010
040000
180000
341A90
741F40
B40100
B40A00
B41E00
B44400
B80000
7D0000
3FEAA4
1BFFD0
ENDCHAR
STARTCHAR gdotaccent
ENCODING 289
SWIDTH 808 0
DWIDTH 11 0
BBX 11 16 0 -2
BITMAP
001000
009000
02D000
025010
040000
180000
341A90
741F40
B40100
B40A00
B41E00
B44400
B80000
7D0000
3FEAA4
1BFFD0
ENDCHAR
STARTCHAR Gcommaaccent
ENCODING 290
SWIDTH 808 0
DWIDTH 11 0
BBX 11 18 0 -7
BITMAP
010010
040000
280000
741A90
741F40
B40100
B40A00
B41E00
B44400
780000
7D0000
3FEAA4
0BD090
02D000
02E400
02D040
01F900
01F400
ENDCHAR
STARTCHAR gcommaaccent
ENCODING 291
SWIDTH 808 0
DWIDTH 11 0
BBX 11 18 0 -7
BITMAP
010010
040000
280000
741A90
741F40
B40100
B40A00
B41E00
B44400
780000
7D0000
3FEAA4
0BD090
02D000
02E400
02D040
01F900
01F400
ENDCHAR
STARTCHAR Hcircumflex
ENCODING 292
SWIDTH 859 0
DWIDTH 12 0
BBX 11 17 0 -2
BITMAP
000100
004010
070000
0F1A40
081F40
280B00
780B00
780F00
780A00
784010
780000
781A00
781F00
780F00
780F00
7E9FA8
7F4BE0
ENDCHAR
STARTCHAR hcircumflex
ENCODING 293
SWIDTH 859 0
DWIDTH 12 0
BBX 11 17 0 -2
BITMAP
000100
004010
070000
0F1A40
081F40
280B00
780B00
780F00
780A00
784010
780000
781A00
781F00
780F00
780F00
7E9FA8
7F4BE0
ENDCHAR
STARTCHAR Hbar
ENCODING 294
SWIDTH 879 0
DWIDTH 12 0
BBX 12 13 0 -2
BITMAP
041041
280240
740600
704010
F00000
F80F41
B80500
784010
780000
780F40
780F40
7E9BE8
3F4BE0
ENDCHAR
STARTCHAR hbar
ENCODING 295
SWIDTH 879 0
DWIDTH 12 0
BBX 12 13 0 -2
BITMAP
041041
280240
740600
704010
F00000
F80F41
B80500
784010
780000
780F40
780F40
7E9BE8
3F4BE0
ENDCHAR
STARTCHAR Itilde
ENCODING 296
SWIDTH 705 0
DWIDTH 10 0
BBX 9 16 0 -2
BITMAP
005400
080000
3C5000
380000
340000
741000
B90140
BF4140
1B4000
0B4000
0B4000
0A0000
241000
B40000
BEAA80
7FFE00
ENDCHAR
STARTCHAR itilde
ENCODING 297
SWIDTH 705 0
DWIDTH 10 0
BBX 9 16 0 -2
BITMAP
005400
080000
3C5000
380000
340000
741000
B90140
BF4140
1B4000
0B4000
0B4000
0A0000
241000
B40000
BEAA80
7FFE00
ENDCHAR
STARTCHAR Imacron
ENCODING 298
SWIDTH 705 0
DWIDTH 10 0
BBX 10 16 0 -2
BITMAP
000040
080000
3C0000
3AAA90
340000
741000
B90140
BF4140
1B4000
0B4000
0B4000
0A0000
241000
B40000
BEAA80
7FFE00
ENDCHAR
STARTCHAR imacron
ENCODING 299
SWIDTH 705 0
DWIDTH 10 0
BBX 10 16 0 -2
BITMAP
000040
080000
3C0000
3AAA90
340000
741000
B90140
BF4140
1B4000
0B4000
0B4000
0A0000
241000
B40000
BEAA80
7FFE00
ENDCHAR
STARTCHAR Ibreve
ENCODING 300
SWIDTH 705 0
DWIDTH 10 0
BBX 9 17 0 -2
BITMAP
000440
182800
3C0100
3E4500
380000
240000
741000
B90140
BF4140
1B4000
0B4000
0B4000
0A0000
241000
B40000
BEAA80
7FFE00
ENDCHAR
STARTCHAR ibreve
ENCODING 301
SWIDTH 705 0
DWIDTH 10 0
BBX 9 17 0 -2
BITMAP
000440
182800
3C0100
3E4500
380000
240000
741000
B90140
BF4140
1B4000
0B4000
0B4000
0A0000
241000
B40000
BEAA80
7FFE00
ENDCHAR
STARTCHAR Iogonek
ENCODING 302
SWIDTH 705 0
DWIDTH 10 0
BBX 9 16 0 -5
BITMAP
040000
340000
B41000
B90140
BF4140
1B4000
0B4000
0B4000
0A0000
241100
B40000
BEA040
7FF100
00F400
00FF80
006A00
ENDCHAR
STARTCHAR iogonek
ENCODING 303
SWIDTH 705 0
DWIDTH 10 0
BBX 9 16 0 -5
BITMAP
040000
340000
B41000
B90140
BF4140
1B4000
0B4000
0B4000
0A0000
241100
B40000
BEA040
7FF100
00F400
00FF80
006A00
ENDCHAR
STARTCHAR Idotaccent
ENCODING 304
SWIDTH 705 0
DWIDTH 10 0
BBX 9 16 0 -2
BITMAP
004000
074000
0B4000
040000
240000
B41000
B90140
BF4140
1B4000
0B4000
0B4000
0A0000
241000
B40000
BEAA80
7FFE00
ENDCHAR
STARTCHAR dotlessi
ENCODING 305
SWIDTH 705 0
DWIDTH 10 0
BBX 9 13 0 -2
BITMAP
040000
340000
B41000
B90140
BF4140
1B4000
0B4000
0B4000
0A0000
241000
B40000
BEAA80
7FFE00
ENDCHAR
STARTCHAR IJ
ENCODING 306
SWIDTH 844 0
DWIDTH 12 0
BBX 10 13 0 -2
BITMAP
041140
280700
781F00
781F00
781F00
781F00
795F00
7F9F00
194400
280000
780000
7EAA90
7FFE40
ENDCHAR
STARTCHAR ij
ENCODING 307
SWIDTH 844 0
DWIDTH 12 0
BBX 10 13 0 -2
BITMAP
041140
280700
781F00
781F00
781F00
781F00
795F00
7F9F00
194400
280000
780000
7EAA90
7FFE40
ENDCHAR
STARTCHAR Jcircumflex
ENCODING 308
SWIDTH 788 0
DWIDTH 11 0
BBX 12 16 0 -2
BITMAP
001000
006000
01E6E9
01FD58
005C00
002C00
002C00
002C00
043C00
242C00
B42C00
B40040
B41000
BD0010
7FEB40
1BF900
ENDCHAR
STARTCHAR jcircumflex
ENCODING 309
SWIDTH 788 0
DWIDTH 11 0
BBX 12 16 0 -2
BITMAP
001000
006000
01E6E9
01FD58
005C00
002C00
002C00
002C00
043C00
242C00
B42C00
B40040
B41000
BD0010
7FEB40
1BF900
ENDCHAR
STARTCHAR Kcommaaccent
ENCODING 310
SWIDTH 846 0
DWIDTH 12 0
BBX 11 18 0 -7
BITMAP
041104
280500
781C00
781800
780000
784100
780000
781F00
781F00
780F00
780F00
7E9AA8
7FD0A0
02D000
02E400
02D040
01F900
01F400
ENDCHAR
STARTCHAR kcommaaccent
ENCODING 311
SWIDTH 846 0
DWIDTH 12 0
BBX 11 18 0 -7
BITMAP
041104
280500
781C00
781800
780000
784100
780000
781F00
781F00
780F00
780F00
7E9AA8
7FD0A0
02D000
02E400
02D040
01F900
01F400
ENDCHAR
STARTCHAR kgreenlandic
ENCODING 312
SWIDTH 846 0
DWIDTH 12 0
BBX 11 13 0 -2
BITMAP
041104
280500
781C00
781800
780000
784100
780000
781F00
781F00
780F00
780F00
7E9FA8
7F4BE0
ENDCHAR
STARTCHAR Lacute
ENCODING 313
SWIDTH 795 0
DWIDTH 11 0
BBX 11 16 0 -2
BITMAP
015540
180000
780000
786D00
781000
780000
780000
780000
780100
780600
781E00
780400
784000
780000
7EAAA4
7FFFD0
ENDCHAR
STARTCHAR lacute
ENCODING 314
SWIDTH 795 0
DWIDTH 11 0
BBX 11 16 0 -2
BITMAP
015540
180000
780000
786D00
781000
780000
780000
780000
780100
780600
781E00
780400
784000
780000
7EAAA4
7FFFD0
ENDCHAR
STARTCHAR Lcommaaccent
ENCODING 315
SWIDTH 795 0
DWIDTH 11 0
BBX 11 18 0 -7
BITMAP
041000
280000
780000
780000
780000
780100
780600
781E00
780400
784000
780000
7EAAA4
7FC090
02C000
03E400
02D000
02F900
02F400
ENDCHAR
STARTCHAR lcommaaccent
ENCODING 316
SWIDTH 795 0
DWIDTH 11 0
BBX 11 18 0 -7
BITMAP
041000
280000
780000
780000
780000
780100
780600
781E00
780400
784000
780000
7EAAA4
7FC090
02C000
03E400
02D000
02F900
02F400
ENDCHAR
STARTCHAR Lcaron
ENCODING 317
SWIDTH 795 0
DWIDTH 11 0
BBX 11 13 0 -2
BITMAP
041104
280A00
781D00
781D00
781E50
781F90
781A00
781E00
780400
784000
780000
7EAAA4
7FFFD0
ENDCHAR
STARTCHAR lcaron
ENCODING 318
SWIDTH 795 0
DWIDTH 11 0
BBX 11 13 0 -2
BITMAP
041104
280A00
781D00
781D00
781E50
781F90
781A00
781E00
780400
784000
780000
7EAAA4
7FFFD0
ENDCHAR
STARTCHAR Ldot
ENCODING 319
SWIDTH 795 0
DWIDTH 11 0
BBX 11 13 0 -2
BITMAP
041000
280000
780000
780600
781E00
781E54
781F90
781A00
780400
784000
780000
7EAAA4
7FFFD0
ENDCHAR
STARTCHAR ldot
ENCODING 320
SWIDTH 795 0
DWIDTH 11 0
BBX 11 13 0 -2
BITMAP
041000
280000
780000
780600
781E00
781E54
781F90
781A00
780400
784000
780000
7EAAA4
7FFFD0
ENDCHAR
STARTCHAR Lslash
ENCODING 321
SWIDTH 805 0
DWIDTH 11 0
BBX 11 13 0 -2
BITMAP
041000
280000
780000
780400
740000
704100
F00A00
F80E00
B80500
780000
780000
7EAAA4
3FFFD0
ENDCHAR
STARTCHAR lslash
ENCODING 322
SWIDTH 805 0
DWIDTH 11 0
BBX 11 13 0 -2
BITMAP
041000
280000
780000
780400
740000
704100
F00A00
F80E00
B80500
780000
780000
7EAAA4
3FFFD0
ENDCHAR
STARTCHAR Nacute
ENCODING 323
SWIDTH 853 0
DWIDTH 12 0
BBX 11 17 0 -2
BITMAP
000050
00BEA0
074000
0F0010
085B40
280700
784700
781200
780400
780000
781400
781C10
781E10
781F00
781F00
7E9FA4
7F4BE0
ENDCHAR
STARTCHAR nacute
ENCODING 324
SWIDTH 853 0
DWIDTH 12 0
BBX 11 17 0 -2
BITMAP
000050
00BEA0
074000
0F0010
085B40
280700
784700
781200
780400
780000
781400
781C10
781E10
781F00
781F00
7E9FA4
7F4BE0
ENDCHAR
STARTCHAR Ncommaaccent
ENCODING 325
SWIDTH 853 0
DWIDTH 12 0
BBX 11 18 0 -7
BITMAP
040140
280300
784700
781200
780400
780000
781400
781C10
781E10
781F00
781F00
7E9AA4
7FD0A0
02D000
02E400
02D040
01F900
01F400
ENDCHAR
STARTCHAR ncommaaccent
ENCODING 326
SWIDTH 853 0
DWIDTH 12 0
BBX 11 18 0 -7
BITMAP
040140
280300
784700
781200
780400
780000
781400
781C10
781E10
781F00
781F00
7E9AA4
7FD0A0
02D000
02E400
02D040
01F900
01F400
ENDCHAR
STARTCHAR Ncaron
ENCODING 327
SWIDTH 853 0
DWIDTH 12 0
BBX 11 17 0 -2
BITMAP
018000
0A1400
0E0000
0F9190
086F40
280700
784700
781200
780400
780000
781400
781C10
781E10
781F00
781F00
7E9FA4
7F4BE0
ENDCHAR
STARTCHAR ncaron
ENCODING 328
SWIDTH 853 0
DWIDTH 12 0
BBX 11 17 0 -2
BITMAP
018000
0A1400
0E0000
0F9190
086F40
280700
784700
781200
780400
780000
781400
781C10
781E10
781F00
781F00
7E9FA4
7F4BE0
ENDCHAR
STARTCHAR napostrophe
ENCODING 329
SWIDTH 853 0
DWIDTH 12 0
BBX 12 18 0 -2
BITMAP
040000
244000
B40000
BE4000
780000
7D5195
780700
784700
781200
780400
780000
781400
781C10
781E10
781F00
781F00
7E9FA4
7F4BE0
ENDCHAR
STARTCHAR Eng
ENCODING 330
SWIDTH 846 0
DWIDTH 12 0
BBX 11 15 0 -4
BITMAP
004010
041000
180000
780500
781F00
781F00
780F00
780F00
780F00
780E00
781800
7EB804
7FB960
007F80
001500
ENDCHAR
STARTCHAR eng
ENCODING 331
SWIDTH 846 0
DWIDTH 12 0
BBX 11 15 0 -4
BITMAP
004010
041000
180000
780500
781F00
781F00
780F00
780F00
780F00
780E00
781800
7EB804
7FB960
007F80
001500
ENDCHAR
STARTCHAR Omacron
ENCODING 332
SWIDTH 837 0
DWIDTH 12 0
BBX 11 15 0 -2
BITMAP
060000
0F0010
0F9590
080004
280000
741E00
741F00
B40F00
B40F00
B40F00
B44500
B81540
7D0014
3FFAD0
0BFE40
ENDCHAR
STARTCHAR omacron
ENCODING 333
SWIDTH 837 0
DWIDTH 12 0
BBX 11 15 0 -2
BITMAP
060000
0F0010
0F9590
080004
280000
741E00
741F00
B40F00
B40F00
B40F00
B44500
B81540
7D0014
3FFAD0
0BFE40
ENDCHAR
STARTCHAR Obreve
ENCODING 334
SWIDTH 837 0
DWIDTH 12 0
BBX 11 17 0 -2
BITMAP
001100
060500
0F0000
1F8040
0F9550
040004
280000
741E00
741F00
B40F00
B40F00
B40F00
B44500
B81540
7D0014
3FFAD0
0BFE40
ENDCHAR
STARTCHAR obreve
ENCODING 335
SWIDTH 837 0
DWIDTH 12 0
BBX 11 17 0 -2
BITMAP
001100
060500
0F0000
1F8040
0F9550
040004
280000
741E00
741F00
B40F00
B40F00
B40F00
B44500
B81540
7D0014
3FFAD0
0BFE40
ENDCHAR
STARTCHAR Ohungarumlaut
ENCODING 336
SWIDTH 837 0
DWIDTH 12 0
BBX 11 18 0 -2
BITMAP
004440
024600
070600
0B0A00
0E0D00
1F9590
080004
280000
741E00
741F00
B40F00
B40F00
B40F00
B44500
B81540
7D0014
3FFAD0
0BFE40
ENDCHAR
STARTCHAR ohungarumlaut
ENCODING 337
SWIDTH 837 0
DWIDTH 12 0
BBX 11 18 0 -2
BITMAP
004440
024600
070600
0B0A00
0E0D00
1F9590
080004
280000
741E00
741F00
B40F00
B40F00
B40F00
B44500
B81540
7D0014
3FFAD0
0BFE40
ENDCHAR
STARTCHAR OE
ENCODING 338
SWIDTH 1115 0
DWIDTH 16 0
BBX 15 13 0 -2
BITMAP
01000000
04000000
28001000
740503F8
741E0010
B41E1000
B41E0000
B41E0290
B4090280
78001000
7D000000
3FEAAAA8
1BFFFFE0
ENDCHAR
STARTCHAR oe
ENCODING 339
SWIDTH 1115 0
DWIDTH 16 0
BBX 15 13 0 -2
BITMAP
01000000
04000000
28001000
740503F8
741E0010
B41E1000
B41E0000
B41E0290
B4090280
78001000
7D000000
3FEAAAA8
1BFFFFE0
ENDCHAR
STARTCHAR Racute
ENCODING 340
SWIDTH 843 0
DWIDTH 12 0
BBX 11 16 0 -2
BITMAP
006A90
060000
0E0000
1D1540
180000
784000
781D00
781D00
780004
784040
780000
781F40
781F40
780B40
7E9BE8
7F4BE0
ENDCHAR
STARTCHAR racute
ENCODING 341
SWIDTH 843 0
DWIDTH 12 0
BBX 11 16 0 -2
BITMAP
006A90
060000
0E0000
1D1540
180000
784000
781D00
781D00
780004
784040
780000
781F40
781F40
780B40
7E9BE8
7F4BE0
ENDCHAR
STARTCHAR Rcommaaccent
ENCODING 342
SWIDTH 843 0
DWIDTH 12 0
BBX 11 18 0 -7
BITMAP
040050
284000
780000
781D00
781D00
780044
784140
781A00
781F40
780B40
780B40
7E96A8
7FD060
02D000
02E800
02D040
01F900
01F400
ENDCHAR
STARTCHAR rcommaaccent
ENCODING 343
SWIDTH 843 0
DWIDTH 12 0
BBX 11 18 0 -7
BITMAP
040050
284000
780000
781D00
781D00
780044
784140
781A00
781F40
780B40
780B40
7E96A8
7FD060
02D000
02E800
02D040
01F900
01F400
ENDCHAR
STARTCHAR Rcaron
ENCODING 344
SWIDTH 843 0
DWIDTH 12 0
BBX 11 17 0 -2
BITMAP
004000
061000
0F0000
0F9190
0EAA40
180000
784000
781D00
781D00
780004
784040
780000
781F40
781F40
780B40
7E9BE8
7F4BE0
ENDCHAR
STARTCHAR rcaron
ENCODING 345
SWIDTH 843 0
DWIDTH 12 0
BBX 11 17 0 -2
BITMAP
004000
061000
0F0000
0F9190
0EAA40
180000
784000
781D00
781D00
780004
784040
780000
781F40
781F40
780B40
7E9BE8
7F4BE0
ENDCHAR
STARTCHAR Sacute
ENCODING 346
SWIDTH 750 0
DWIDTH 11 0
BBX 10 17 0 -2
BITMAP
000140
02FA90
0A0000
2D0040
2D0010
280000
140010
741FC0
B40150
B80000
BE4000
7FF800
140000
740000
B40000
BEAA40
BFF900
ENDCHAR
STARTCHAR sacute
ENCODING 347
SWIDTH 750 0
DWIDTH 11 0
BBX 10 17 0 -2
BITMAP
000140
02FA90
0A0000
2D0040
2D0010
280000
140010
741FC0
B40150
B80000
BE4000
7FF800
140000
740000
B40000
BEAA40
BFF900
ENDCHAR
STARTCHAR Scircumflex
ENCODING 348
SWIDTH 750 0
DWIDTH 11 0
BBX 10 15 0 -2
BITMAP
090000
2EBE40
2E4010
280000
140010
741FC0
B40150
B80000
BE4000
7FF800
140000
740000
B40000
BEAA40
BFF900
ENDCHAR
STARTCHAR scircumflex
ENCODING 349
SWIDTH 750 0
DWIDTH 11 0
BBX 10 15 0 -2
BITMAP
090000
2EBE40
2E4010
280000
140010
741FC0
B40150
B80000
BE4000
7FF800
140000
740000
B40000
BEAA40
BFF900
ENDCHAR
STARTCHAR Scedilla
ENCODING 350
SWIDTH 750 0
DWIDTH 11 0
BBX 10 15 0 -4
BITMAP
000010
040000
340000
741FC0
B40140
B80000
BE4000
7FF800
140000
740400
B40000
BF4240
BF4100
0BF400
0A9000
ENDCHAR
STARTCHAR scedilla
ENCODING 351
SWIDTH 750 0
DWIDTH 11 0
BBX 10 15 0 -4
BITMAP
000010
040000
340000
741FC0
B40140
B80000
BE4000
7FF800
140000
740400
B40000
BF4240
BF4100
0BF400
0A9000
ENDCHAR
STARTCHAR Scaron
ENCODING 352
SWIDTH 750 0
DWIDTH 11 0
BBX 10 17 0 -2
BITMAP
014000
091000
1D0000
2F9100
2E4010
040000
240010
741FC0
B40150
B80000
BE4000
7FF800
140000
740000
B40000
BEAA40
BFF900
ENDCHAR
STARTCHAR scaron
ENCODING 353
SWIDTH 750 0
DWIDTH 11 0
BBX 10 17 0 -2
BITMAP
014000
091000
1D0000
2F9100
2E4010
040000
240010
741FC0
B40150
B80000
BE4000
7FF800
140000
740000
B40000
BEAA40
BFF900
ENDCHAR
STARTCHAR Tcommaaccent
ENCODING 354
SWIDTH 756 0
DWIDTH 11 0
BBX 10 18 0 -7
BITMAP
140000
700400
F00000
FA40A0
BF8080
078000
078000
078000
078000
078000
078000
07E900
078000
078100
07E400
078100
03E800
03E000
ENDCHAR
STARTCHAR tcommaaccent
ENCODING 355
SWIDTH 756 0
DWIDTH 11 0
BBX 10 18 0 -7
BITMAP
140000
700400
F00000
FA40A0
BF8080
078000
078000
078000
078000
078000
078000
07E900
078000
078100
07E400
078100
03E800
03E000
ENDCHAR
STARTCHAR Tcaron
ENCODING 356
SWIDTH 756 0
DWIDTH 11 0
BBX 10 17 0 -2
BITMAP
014000
091000
2D0000
2F8100
240000
700000
F00400
FA40A0
FF8080
078000
078000
078000
078000
078000
078000
07E900
07F400
ENDCHAR
STARTCHAR tcaron
ENCODING 357
SWIDTH 756 0
DWIDTH 11 0
BBX 10 17 0 -2
BITMAP
014000
091000
2D0000
2F8100
240000
700000
F00400
FA40A0
FF8080
078000
078000
078000
078000
078000
078000
07E900
07F400
ENDCHAR
STARTCHAR Tbar
ENCODING 358
SWIDTH 756 0
DWIDTH 11 0
BBX 10 13 0 -2
BITMAP
140000
700000
F00400
F50050
FF80D0
5A4040
1C0400
3D0010
3F8080
2B8000
078000
07E900
07F400
ENDCHAR
STARTCHAR tbar
ENCODING 359
SWIDTH 756 0
DWIDTH 11 0
BBX 10 13 0 -2
BITMAP
140000
700000
F00400
F50050
FF80D0
5A4040
1C0400
3D0010
3F8080
2B8000
078000
07E900
07F400
ENDCHAR
STARTCHAR Utilde
ENCODING 360
SWIDTH 846 0
DWIDTH 12 0
BBX 10 16 0 -2
BITMAP
011500
070000
0F1400
081F40
381B00
780F00
780F00
780F00
780F00
780F00
780F00
784000
781400
7E0010
2FFAD0
0BFE40
ENDCHAR
STARTCHAR utilde
ENCODING 361
SWIDTH 846 0
DWIDTH 12 0
BBX 10 16 0 -2
BITMAP
011500
070000
0F1400
081F40
381B00
780F00
780F00
780F00
780F00
780F00
780F00
784000
781400
7E0010
2FFAD0
0BFE40
ENDCHAR
STARTCHAR Umacron
ENCODING 362
SWIDTH 846 0
DWIDTH 12 0
BBX 12 15 0 -2
BITMAP
060000
0F0000
0EAFA9
281F00
780F00
780F00
780F00
780F00
780F00
780F00
784000
781440
7E0000
3FFAD0
0BFE40
ENDCHAR
STARTCHAR umacron
ENCODING 363
SWIDTH 846 0
DWIDTH 12 0
BBX 12 15 0 -2
BITMAP
060000
0F0000
0EAFA9
281F00
780F00
780F00
780F00
780F00
780F00
780F00
784000
781440
7E0000
3FFAD0
0BFE40
ENDCHAR
STARTCHAR Ubreve
ENCODING 364
SWIDTH 846 0
DWIDTH 12 0
BBX 10 17 0 -2
BITMAP
000110
060500
0F0000
0F8000
081F40
281B00
780F00
780F00
780F00
780F00
780F00
780F00
784000
781440
7E0010
2FFAD0
0BFE40
ENDCHAR
STARTCHAR ubreve
ENCODING 365
SWIDTH 846 0
DWIDTH 12 0
BBX 10 17 0 -2
BITMAP
000110
060500
0F0000
0F8000
081F40
281B00
780F00
780F00
780F00
780F00
780F00
780F00
784000
781440
7E0010
2FFAD0
0BFE40
ENDCHAR
STARTCHAR Uring
ENCODING 366
SWIDTH 846 0
DWIDTH 12 0
BBX 10 19 0 -2
BITMAP
000040
010010
0A0900
0E0E00
0F0000
0F8000
081F40
281B00
780F00
780F00
780F00
780F00
780F00
780F00
784500
781400
7E0010
2FFAD0
0BFE40
ENDCHAR
STARTCHAR uring
ENCODING 367
SWIDTH 846 0
DWIDTH 12 0
BBX 10 19 0 -2
BITMAP
000040
010010
0A0900
0E0E00
0F0000
0F8000
081F40
281B00
780F00
780F00
780F00
780F00
780F00
780F00
784500
781400
7E0010
2FFAD0
0BFE40
ENDCHAR
STARTCHAR Uhungarumlaut
ENCODING 368
SWIDTH 846 0
DWIDTH 12 0
BBX 12 18 0 -2
BITMAP
004040
014200
074700
0B0A00
0B0A00
0EAFA9
281B00
780F00
780F00
780F00
780F00
780F00
780F00
784000
781440
7E0000
3FFAD0
0BFE40
ENDCHAR
STARTCHAR uhungarumlaut
ENCODING 369
SWIDTH 846 0
DWIDTH 12 0
BBX 12 18 0 -2
BITMAP
004040
014200
074700
0B0A00
0B0A00
0EAFA9
281B00
780F00
780F00
780F00
780F00
780F00
780F00
784000
781440
7E0000
3FFAD0
0BFE40
ENDCHAR
STARTCHAR Uogonek
ENCODING 370
SWIDTH 846 0
DWIDTH 12 0
BBX 11 16 0 -5
BITMAP
041140
280700
780F00
780F00
780F00
780F00
780F00
780F00
784010
781540
7E0014
3FE090
0BD000
01E000
01FF40
00A900
ENDCHAR
STARTCHAR uogonek
ENCODING 371
SWIDTH 846 0
DWIDTH 12 0
BBX 11 16 0 -5
BITMAP
041140
280700
780F00
780F00
780F00
780F00
780F00
780F00
784010
781540
7E0014
3FE090
0BD000
01E000
01FF40
00A900
ENDCHAR
STARTCHAR Wcircumflex
ENCODING 372
SWIDTH 931 0
DWIDTH 13 0
BBX 11 17 0 -2
BITMAP
000440
005014
024000
079640
042FD0
3402D0
7402D0
B402D0
B405D0
B41450
B40000
B40000
780200
7C0700
3D0740
2FABE8
1F87E0
ENDCHAR
STARTCHAR wcircumflex
ENCODING 373
SWIDTH 931 0
DWIDTH 13 0
BBX 11 17 0 -2
BITMAP
000440
005014
024000
079640
042FD0
3402D0
7402D0
B402D0
B405D0
B41450
B40000
B40000
780200
7C0700
3D0740
2FABE8
1F87E0
ENDCHAR
STARTCHAR Ycircumflex
ENCODING 374
SWIDTH 805 0
DWIDTH 11 0
BBX 11 16 0 -2
BITMAP
010000
0A0000
1E6E50
142F04
740A00
B41E00
B41E00
B40D00
B84004
BD0000
3F0400
1F8040
0BC000
03C000
03EA00
03F800
ENDCHAR
STARTCHAR ycircumflex
ENCODING 375
SWIDTH 805 0
DWIDTH 11 0
BBX 11 16 0 -2
BITMAP
010000
0A0000
1E6E50
142F04
740A00
B41E00
B41E00
B40D00
B84004
BD0000
3F0400
1F8040
0BC000
03C000
03EA00
03F800
ENDCHAR
STARTCHAR Ydieresis
ENCODING 376
SWIDTH 805 0
DWIDTH 11 0
BBX 11 16 0 -2
BITMAP
010400
090800
2D0800
2ABFA8
241E00
741E00
B41E00
B41D00
B84400
BD0000
7F0400
1F8000
0BC000
03C000
03EA00
03F800
ENDCHAR
STARTCHAR Zacute
ENCODING 377
SWIDTH 760 0
DWIDTH 11 0
BBX 10 17 0 -2
BITMAP
000140
02FE90
0A0000
1D0040
284010
280000
780000
7EA000
7FC110
014440
060000
080000
240000
740000
B40000
BEAAA0
BFFF80
ENDCHAR
STARTCHAR zacute
ENCODING 378
SWIDTH 760 0
DWIDTH 11 0
BBX 10 17 0 -2
BITMAP
000140
02FE90
0A0000
1D0040
284010
280000
780000
7EA000
7FC110
014440
060000
080000
240000
740000
B40000
BEAAA0
BFFF80
ENDCHAR
STARTCHAR Zdotaccent
ENCODING 379
SWIDTH 760 0
DWIDTH 11 0
BBX 10 16 0 -2
BITMAP
004100
028000
078000
040010
280000
780000
7EA000
7FC110
014440
060000
080000
240000
740000
B40000
BEAAA0
BFFF80
ENDCHAR
STARTCHAR zdotaccent
ENCODING 380
SWIDTH 760 0
DWIDTH 11 0
BBX 10 16 0 -2
BITMAP
004100
028000
078000
040010
280000
780000
7EA000
7FC110
014440
060000
080000
240000
740000
B40000
BEAAA0
BFFF80
ENDCHAR
STARTCHAR Zcaron
ENCODING 381
SWIDTH 760 0
DWIDTH 11 0
BBX 10 17 0 -2
BITMAP
014000
091000
2D0000
2F9100
180010
280000
780000
7EA000
7FC110
014440
060000
080000
240000
740000
B40000
BEAAA0
BFFF80
ENDCHAR
STARTCHAR zcaron
ENCODING 382
SWIDTH 760 0
DWIDTH 11 0
BBX 10 17 0 -2
BITMAP
014000
091000
2D0000
2F9100
180010
280000
780000
7EA000
7FC110
014440
060000
080000
240000
740000
B40000
BEAAA0
BFFF80
ENDCHAR
STARTCHAR Schwa
ENCODING 399
SWIDTH 815 0
DWIDTH 11 0
BBX 11 13 0 -2
BITMAP
010000
0D0004
2E0000
2FFE00
195500
340010
B40000
B41F00
B40400
B80000
7D0010
7FFA80
1BFE00
ENDCHAR
STARTCHAR florin
ENCODING 402
SWIDTH 674 0
DWIDTH 9 0
BBX 9 13 0 -2
BITMAP
000040
004000
034000
0B0140
0A0140
741000
B40000
BF0280
740100
740000
B40400
BE9000
BE4000
ENDCHAR
STARTCHAR Ohorn
ENCODING 416
SWIDTH 847 0
DWIDTH 12 0
BBX 12 14 0 -2
BITMAP
000011
000004
040051
280010
741E00
741F00
B40F00
B40F00
B40F00
B44500
B81540
7D0010
3FFAD0
1BFE00
ENDCHAR
STARTCHAR ohorn
ENCODING 417
SWIDTH 847 0
DWIDTH 12 0
BBX 12 14 0 -2
BITMAP
000011
000004
040051
280010
741E00
741F00
B40F00
B40F00
B40F00
B44500
B81540
7D0010
3FFAD0
1BFE00
ENDCHAR
STARTCHAR Uhorn
ENCODING 431
SWIDTH 856 0
DWIDTH 12 0
BBX 12 14 0 -2
BITMAP
000010
041000
280701
780F00
780F00
780F00
780F00
780F00
780F00
784000
781400
7E0010
3FFAD0
0BFE40
ENDCHAR
STARTCHAR uhorn
ENCODING 432
SWIDTH 856 0
DWIDTH 12 0
BBX 12 14 0 -2
BITMAP
000010
041000
280701
780F00
780F00
780F00
780F00
780F00
780F00
784000
781400
7E0010
3FFAD0
0BFE40
ENDCHAR
STARTCHAR Acaron
ENCODING 461
SWIDTH 830 0
DWIDTH 12 0
BBX 11 17 0 -2
BITMAP
014000
061000
0E0000
1F9140
0F4000
020000
050100
0C0400
180D00
281E00
340000
740010
B40000
B42F00
B41F00
BE9FA4
7F4FE0
ENDCHAR
STARTCHAR acaron
ENCODING 462
SWIDTH 830 0
DWIDTH 12 0
BBX 11 17 0 -2
BITMAP
014000
061000
0E0000
1F9140
0F4000
020000
050100
0C0400
180D00
281E00
340000
740010
B40000
B42F00
B41F00
BE9FA4
7F4FE0
ENDCHAR
STARTCHAR Icaron
ENCODING 463
SWIDTH 705 0
DWIDTH 10 0
BBX 9 17 0 -2
BITMAP
010000
184000
3C0000
3E4100
380000
240000
B41000
B90140
BF4140
1B4000
0B4000
0B4000
0A0000
241000
B40000
BEAA80
7FFE00
ENDCHAR
STARTCHAR icaron
ENCODING 464
SWIDTH 705 0
DWIDTH 10 0
BBX 9 17 0 -2
BITMAP
010000
184000
3C0000
3E4100
380000
240000
B41000
B90140
BF4140
1B4000
0B4000
0B4000
0A0000
241000
B40000
BEAA80
7FFE00
ENDCHAR
STARTCHAR Ocaron
ENCODING 465
SWIDTH 837 0
DWIDTH 12 0
BBX 11 17 0 -2
BITMAP
014000
061000
0F0000
0F9140
0B5540
040000
280000
741E00
741F00
B40F00
B40F00
B40F00
B44500
B81540
7D0014
3FFAD0
0BFE40
ENDCHAR
STARTCHAR ocaron
ENCODING 466
SWIDTH 837 0
DWIDTH 12 0
BBX 11 17 0 -2
BITMAP
014000
061000
0F0000
0F9140
0B5540
040000
280000
741E00
741F00
B40F00
B40F00
B40F00
B44500
B81540
7D0014
3FFAD0
0BFE40
ENDCHAR
STARTCHAR Ucaron
ENCODING 467
SWIDTH 846 0
DWIDTH 12 0
BBX 10 17 0 -2
BITMAP
018000
071400
0F0000
0F9040
081F40
380700
780F00
780F00
780F00
780F00
780F00
780F00
784000
781400
7E0010
2FFAD0
0BFE40
ENDCHAR
STARTCHAR ucaron
ENCODING 468
SWIDTH 846 0
DWIDTH 12 0
BBX 10 17 0 -2
BITMAP
018000
071400
0F0000
0F9040
081F40
380700
780F00
780F00
780F00
780F00
780F00
780F00
784000
781400
7E0010
2FFAD0
0BFE40
ENDCHAR
STARTCHAR Udieresismacron
ENCODING 469
SWIDTH 846 0
DWIDTH 12 0
BBX 12 18 0 -2
BITMAP
060000
0F5A50
0E0900
0E0900
1E0900
1EAFA9
281F00
780F00
780F00
780F00
780F00
780F00
780F00
784000
781440
7E0000
3FFAD0
0BFE40
ENDCHAR
STARTCHAR udieresismacron
ENCODING 470
SWIDTH 846 0
DWIDTH 12 0
BBX 12 18 0 -2
BITMAP
060000
0F5A50
0E0900
0E0900
1E0900
1EAFA9
281F00
780F00
780F00
780F00
780F00
780F00
780F00
784000
781440
7E0000
3FFAD0
0BFE40
ENDCHAR
STARTCHAR Udieresisacute
ENCODING 471
SWIDTH 846 0
DWIDTH 12 0
BBX 12 20 0 -2
BITMAP
000A80
007E40
00E000
019140
060400
1E0900
1E0900
1EAFA9
381F00
780F00
780F00
780F00
780F00
780F00
780F00
784000
781440
7E0000
2FFAD0
0BFE40
ENDCHAR
STARTCHAR udieresisacute
ENCODING 472
SWIDTH 846 0
DWIDTH 12 0
BBX 12 20 0 -2
BITMAP
000A80
007E40
00E000
019140
060400
1E0900
1E0900
1EAFA9
381F00
780F00
780F00
780F00
780F00
780F00
780F00
784000
781440
7E0000
2FFAD0
0BFE40
ENDCHAR
STARTCHAR Udieresiscaron
ENCODING 473
SWIDTH 846 0
DWIDTH 12 0
BBX 12 20 0 -2
BITMAP
02D000
0B1400
0F4010
0FAA40
0A0900
0E0900
1E0900
1EAFA9
281F00
780F00
780F00
780F00
780F00
780F00
780F00
784000
781440
7E0000
2FFAD0
0BFE40
ENDCHAR
STARTCHAR udieresiscaron
ENCODING 474
SWIDTH 846 0
DWIDTH 12 0
BBX 12 20 0 -2
BITMAP
02D000
0B1400
0F4010
0FAA40
0A0900
0E0900
1E0900
1EAFA9
281F00
780F00
780F00
780F00
780F00
780F00
780F00
784000
781440
7E0000
2FFAD0
0BFE40
ENDCHAR
STARTCHAR Udieresisgrave
ENCODING 475
SWIDTH 846 0
DWIDTH 12 0
BBX 12 20 0 -2
BITMAP
007900
01EB40
02D000
028100
060800
1E0900
1E0900
1EAFA9
381F00
780F00
780F00
780F00
780F00
780F00
780F00
784000
781440
7E0000
2FFAD0
0BFE40
ENDCHAR
STARTCHAR udieresisgrave
ENCODING 476
SWIDTH 846 0
DWIDTH 12 0
BBX 12 20 0 -2
BITMAP
007900
01EB40
02D000
028100
060800
1E0900
1E0900
1EAFA9
381F00
780F00
780F00
780F00
780F00
780F00
780F00
784000
781440
7E0000
2FFAD0
0BFE40
ENDCHAR
STARTCHAR Gcaron
ENCODING 486
SWIDTH 808 0
DWIDTH 11 0
BBX 11 17 0 -2
BITMAP
014000
061000
1E0000
1F9140
1E5010
040000
140000
341A90
741F40
B40100
B40A00
B41E00
B44400
B80000
7D0000
3FEAA4
0BFFD0
ENDCHAR
STARTCHAR gcaron
ENCODING 487
SWIDTH 808 0
DWIDTH 11 0
BBX 11 17 0 -2
BITMAP
014000
061000
1E0000
1F9140
1E5010
040000
140000
341A90
741F40
B40100
B40A00
B41E00
B44400
B80000
7D0000
3FEAA4
0BFFD0
ENDCHAR
STARTCHAR Scommaaccent
ENCODING 536
SWIDTH 750 0
DWIDTH 11 0
BBX 10 18 0 -7
BITMAP
010010
040000
340010
741FC0
B40150
B81400
BE4040
7FF800
140000
740000
B40000
BEAA40
BF8000
038100
07E500
07C000
03E800
03E000
ENDCHAR
STARTCHAR scommaaccent
ENCODING 537
SWIDTH 750 0
DWIDTH 11 0
BBX 10 18 0 -7
BITMAP
010010
040000
340010
741FC0
B40150
B81400
BE4040
7FF800
140000
740000
B40000
BEAA40
BF8000
038100
07E500
07C000
03E800
03E000
ENDCHAR
STARTCHAR uni021A
ENCODING 538
SWIDTH 756 0
DWIDTH 11 0
BBX 10 18 0 -7
BITMAP
140000
700400
F00000
FA40A0
BF8080
078000
078000
078000
078000
078000
078000
07E900
078000
078100
07E400
078100
03E800
03E000
ENDCHAR
STARTCHAR uni021B
ENCODING 539
SWIDTH 756 0
DWIDTH 11 0
BBX 10 18 0 -7
BITMAP
140000
700400
F00000
FA40A0
BF8080
078000
078000
078000
078000
078000
078000
07E900
078000
078100
07E400
078100
03E800
03E000
ENDCHAR
STARTCHAR dotlessj
ENCODING 567
SWIDTH 788 0
DWIDTH 11 0
BBX 10 13 0 -2
BITMAP
000500
001C00
002C00
002C00
002C00
043C00
242C00
B42C00
B40040
B41100
BD0010
7FEB40
1BF900
ENDCHAR
STARTCHAR ascript
ENCODING 593
SWIDTH 846 0
DWIDTH 12 0
BBX 11 13 0 -2
BITMAP
004010
041004
280000
741E00
741F00
B40F00
B40F00
B40F00
B40000
B80000
7D0000
3FEAA4
1BFFE0
ENDCHAR
STARTCHAR schwa
ENCODING 601
SWIDTH 815 0
DWIDTH 11 0
BBX 11 13 0 -2
BITMAP
010000
0D0004
2E0000
2FFE00
195500
340010
B40000
B41F00
B40400
B80000
7D0010
7FFA80
1BFE00
ENDCHAR
STARTCHAR gscript
ENCODING 609
SWIDTH 815 0
DWIDTH 11 0
BBX 11 14 0 -3
BITMAP
014050
040004
240000
741E00
B41E00
B40000
B80010
BE4000
3FFE00
0A5400
0D0004
1E0010
2FFF80
1AA900
ENDCHAR
STARTCHAR commaturnedmod
ENCODING 699
SWIDTH 600 0
DWIDTH 8 0
BBX 6 7 1 4
BITMAP
0150
1890
3400
7400
7800
7FC0
6A00
ENDCHAR
STARTCHAR apostrophemod
ENCODING 700
SWIDTH 600 0
DWIDTH 8 0
BBX 6 7 1 5
BITMAP
0400
2400
7400
7E40
7810
3E80
7D00
ENDCHAR
STARTCHAR ringhalfright
ENCODING 702
SWIDTH 412 0
DWIDTH 6 0
BBX 5 7 0 4
BITMAP
1400
7400
FD00
B400
7040
FF40
A900
ENDCHAR
STARTCHAR ringhalfleft
ENCODING 703
SWIDTH 412 0
DWIDTH 6 0
BBX 6 7 0 4
BITMAP
0410
2000
B080
F040
F400
BFD0
6A00
ENDCHAR
STARTCHAR circumflex
ENCODING 710
SWIDTH 600 0
DWIDTH 8 0
BBX 8 4 0 10
BITMAP
0400
7410
BBFE
B9B8
ENDCHAR
STARTCHAR caron
ENCODING 711
SWIDTH 600 0
DWIDTH 8 0
BBX 8 6 0 9
BITMAP
0400
2440
B400
BD05
BFF8
1B80
ENDCHAR
STARTCHAR verticallinemod
ENCODING 712
SWIDTH 456 0
DWIDTH 6 0
BBX 6 8 0 3
BITMAP
0410
3400
7400
7400
7400
7800
7FD0
6A00
ENDCHAR
STARTCHAR firsttonechinese
ENCODING 713
SWIDTH 600 0
DWIDTH 8 0
BBX 8 5 0 9
BITMAP
0400
2400
B400
BFFD
6AA4
ENDCHAR
STARTCHAR secondtonechinese
ENCODING 714
SWIDTH 600 0
DWIDTH 8 0
BBX 8 4 0 9
BITMAP
1400
7400
BABD
BEA0
ENDCHAR
STARTCHAR fourthtonechinese
ENCODING 715
SWIDTH 600 0
DWIDTH 8 0
BBX 8 5 0 9
BITMAP
0400
2400
B400
BFE9
6BF8
ENDCHAR
STARTCHAR verticallinelowmod
ENCODING 716
SWIDTH 456 0
DWIDTH 6 0
BBX 6 8 0 -4
BITMAP
0410
3400
7400
7400
7400
7800
7FD0
6A00
ENDCHAR
STARTCHAR breve
ENCODING 728
SWIDTH 600 0
DWIDTH 8 0
BBX 8 6 0 9
BITMAP
0400
2010
B400
F901
BFF8
2FD0
ENDCHAR
STARTCHAR dotaccent
ENCODING 729
SWIDTH 600 0
DWIDTH 8 0
BBX 5 6 1 9
BITMAP
0400
1800
7800
7800
7FC0
6A00
ENDCHAR
STARTCHAR ring
ENCODING 730
SWIDTH 600 0
DWIDTH 8 0
BBX 8 7 0 9
BITMAP
0400
3060
B0B0
F000
F901
BFF8
2FE0
ENDCHAR
STARTCHAR ogonek
ENCODING 731
SWIDTH 600 0
DWIDTH 8 0
BBX 6 6 1 -5
BITMAP
0500
1810
3800
7800
7FD0
2A40
ENDCHAR
STARTCHAR tilde
ENCODING 732
SWIDTH 600 0
DWIDTH 8 0
BBX 8 5 0 9
BITMAP
0555
2400
B541
BFFD
ABE4
ENDCHAR
STARTCHAR hungarumlaut
ENCODING 733
SWIDTH 600 0
DWIDTH 8 0
BBX 10 7 -1 9
BITMAP
011100
091800
1C2800
282400
383400
7FFF00
696800
ENDCHAR
STARTCHAR gravecmb
ENCODING 768
SWIDTH 100 0
DWIDTH 1 0
BBX 9 5 -4 9
BITMAP
040000
180040
780000
7FFA40
2AFD00
ENDCHAR
STARTCHAR acutecmb
ENCODING 769
SWIDTH 100 0
DWIDTH 1 0
BBX 9 4 -4 9
BITMAP
040000
280040
7EAE00
7FA400
ENDCHAR
STARTCHAR circumflexcmb
ENCODING 770
SWIDTH 100 0
DWIDTH 1 0
BBX 9 4 -4 10
BITMAP
040000
281000
7EFE40
79BD00
ENDCHAR
STARTCHAR tildecmb
ENCODING 771
SWIDTH 100 0
DWIDTH 1 0
BBX 9 5 -4 9
BITMAP
045500
180000
795040
7FFE00
7AF800
ENDCHAR
STARTCHAR uni0304
ENCODING 772
SWIDTH 600 0
DWIDTH 8 0
BBX 8 5 0 9
BITMAP
0400
2400
B400
BFFD
6AA4
ENDCHAR
STARTCHAR brevecmb
ENCODING 774
SWIDTH 100 0
DWIDTH 1 0
BBX 9 6 -4 9
BITMAP
044400
181400
780040
7D0100
7FFD00
1FE400
ENDCHAR
STARTCHAR dotaccentcmb
ENCODING 775
SWIDTH 100 0
DWIDTH 1 0
BBX 5 6 -2 9
BITMAP
0400
2000
B000
F000
FF40
A900
ENDCHAR
STARTCHAR dieresiscmb
ENCODING 776
SWIDTH 100 0
DWIDTH 1 0
BBX 9 5 -4 9
BITMAP
041000
242000
B42040
BFFF40
69A900
ENDCHAR
STARTCHAR hookcmb
ENCODING 777
SWIDTH 100 0
DWIDTH 1 0
BBX 6 6 -2 9
BITMAP
7000
FA00
F800
7E90
7F40
1400
ENDCHAR
STARTCHAR ringcmb
ENCODING 778
SWIDTH 100 0
DWIDTH 1 0
BBX 9 7 -4 9
BITMAP
040000
282400
783400
784040
7D0140
7FFD00
1FE400
ENDCHAR
STARTCHAR hungarumlautcmb
ENCODING 779
SWIDTH 100 0
DWIDTH 1 0
BBX 8 7 -4 9
BITMAP
0111
0918
1C18
2C24
3834
7FFF
2968
ENDCHAR
STARTCHAR caroncmb
ENCODING 780
SWIDTH 100 0
DWIDTH 1 0
BBX 9 6 -4 9
BITMAP
050000
184000
780000
7E4640
7FFC00
0B9000
ENDCHAR
STARTCHAR horncmb
ENCODING 795
SWIDTH 100 0
DWIDTH 1 0
BBX 5 6 -2 7
BITMAP
0440
1400
7000
B000
F900
E400
ENDCHAR
STARTCHAR dotbelowcmb
ENCODING 803
SWIDTH 100 0
DWIDTH 1 0
BBX 5 6 -2 -6
BITMAP
0400
2000
B000
F000
FF40
A900
ENDCHAR
STARTCHAR dieresisbelowcmb
ENCODING 804
SWIDTH 100 0
DWIDTH 1 0
BBX 9 5 -4 -5
BITMAP
041000
242000
B42040
BFFF40
69A900
ENDCHAR
STARTCHAR commaaccent
ENCODING 806
SWIDTH 600 0
DWIDTH 8 0
BBX 6 7 1 -7
BITMAP
0400
2400
7400
7E40
7810
3E80
7D00
ENDCHAR
STARTCHAR cedillacmb
ENCODING 807
SWIDTH 100 0
DWIDTH 1 0
BBX 7 6 -3 -4
BITMAP
0100
0904
1C00
2810
3E90
7F00
ENDCHAR
STARTCHAR ogonekcmb
ENCODING 808
SWIDTH 100 0
DWIDTH 1 0
BBX 6 6 -2 -5
BITMAP
0540
2410
7400
B800
BFD0
2A40
ENDCHAR
STARTCHAR brevebelowcmb
ENCODING 814
SWIDTH 100 0
DWIDTH 1 0
BBX 9 6 -4 -6
BITMAP
044400
181400
780040
7D0100
7FFD00
1FE400
ENDCHAR
STARTCHAR macronbelowcmb
ENCODING 817
SWIDTH 100 0
DWIDTH 1 0
BBX 9 4 -4 -6
BITMAP
180000
780040
7FFE00
2AA800
ENDCHAR
STARTCHAR uni0394
ENCODING 916
SWIDTH 830 0
DWIDTH 12 0
BBX 11 12 0 -2
BITMAP
010000
0A1000
0D0400
1D0D00
2C0D00
381E00
341E00
741500
B40000
B40000
BFFFF4
6AAA90
ENDCHAR
STARTCHAR uni03A9
ENCODING 937
SWIDTH 877 0
DWIDTH 12 0
BBX 12 12 0 -2
BITMAP
010004
081040
280600
380F40
780B40
780B40
780B40
744A11
701500
B40500
BFFFFD
6A9AA4
ENDCHAR
STARTCHAR uni03BC
ENCODING 956
SWIDTH 813 0
DWIDTH 11 0
BBX 10 12 0 -3
BITMAP
040000
240600
741E00
741E00
741E00
741E00
744400
745000
740010
741A80
7EAE00
7F4000
ENDCHAR
STARTCHAR pi
ENCODING 960
SWIDTH 821 0
DWIDTH 12 0
BBX 11 10 0 -2
BITMAP
140004
744000
740500
741E00
741E00
741E00
741E00
781E04
7FDFF4
6A0A80
ENDCHAR
STARTCHAR Ddotbelow
ENCODING 7692
SWIDTH 846 0
DWIDTH 12 0
BBX 11 17 0 -6
BITMAP
040000
280000
784040
780400
781F00
781F00
780F00
780F00
780900
784000
780004
7EAAE0
7FD040
01D000
02D040
02FE00
01A800
ENDCHAR
STARTCHAR ddotbelow
ENCODING 7693
SWIDTH 846 0
DWIDTH 12 0
BBX 11 17 0 -6
BITMAP
040000
280000
784040
780400
781F00
781F00
780F00
780F00
780900
784000
780004
7EAAE0
7FD040
01D000
02D040
02FE00
01A800
ENDCHAR
STARTCHAR Dlinebelow
ENCODING 7694
SWIDTH 846 0
DWIDTH 12 0
BBX 10 16 0 -5
BITMAP
040010
280000
784040
780400
781F00
781F00
780F00
780F00
780900
784000
780010
7FAAD0
7F0000
0B0000
0FAA90
0FFF40
ENDCHAR
STARTCHAR dlinebelow
ENCODING 7695
SWIDTH 846 0
DWIDTH 12 0
BBX 10 16 0 -5
BITMAP
040010
280000
784040
780400
781F00
781F00
780F00
780F00
780900
784000
780010
7FAAD0
7F0000
0B0000
0FAA90
0FFF40
ENDCHAR
STARTCHAR Gmacron
ENCODING 7712
SWIDTH 808 0
DWIDTH 11 0
BBX 11 16 0 -2
BITMAP
004010
020000
0B0000
0FAAA0
0D0000
040000
241A90
741F40
B40100
B40A00
B41E00
B44400
B80000
7D0000
3FEAA4
0BFFD0
ENDCHAR
STARTCHAR gmacron
ENCODING 7713
SWIDTH 808 0
DWIDTH 11 0
BBX 11 16 0 -2
BITMAP
004010
020000
0B0000
0FAAA0
0D0000
040000
241A90
741F40
B40100
B40A00
B41E00
B44400
B80000
7D0000
3FEAA4
0BFFD0
ENDCHAR
STARTCHAR Hdotbelow
ENCODING 7716
SWIDTH 859 0
DWIDTH 12 0
BBX 11 17 0 -6
BITMAP
041140
280700
780B00
780F00
780A00
784010
780000
781A00
781F00
780F00
780F00
7E9AA8
7FD060
01D000
02D000
02FE00
01A800
ENDCHAR
STARTCHAR hdotbelow
ENCODING 7717
SWIDTH 859 0
DWIDTH 12 0
BBX 11 17 0 -6
BITMAP
041140
280700
780B00
780F00
780A00
784010
780000
781A00
781F00
780F00
780F00
7E9AA8
7FD060
01D000
02D000
02FE00
01A800
ENDCHAR
STARTCHAR Hbrevebelow
ENCODING 7722
SWIDTH 859 0
DWIDTH 12 0
BBX 12 17 0 -6
BITMAP
041140
280700
780B00
780F00
780A00
784010
780000
781A00
781F00
780F00
781F41
7F9FA8
7F0A00
0B0040
0F4000
0FEA40
06FD00
ENDCHAR
STARTCHAR hbrevebelow
ENCODING 7723
SWIDTH 859 0
DWIDTH 12 0
BBX 12 17 0 -6
BITMAP
041140
280700
780B00
780F00
780A00
784010
780000
781A00
781F00
780F00
781F41
7F9FA8
7F0A00
0B0040
0F4000
0FEA40
06FD00
ENDCHAR
STARTCHAR Ldotbelow
ENCODING 7734
SWIDTH 795 0
DWIDTH 11 0
BBX 11 17 0 -6
BITMAP
041000
280000
780000
780000
780000
780100
780600
781E00
780400
784000
780000
7EAAA4
7FC090
02C000
03C000
03FE00
02A400
ENDCHAR
STARTCHAR ldotbelow
ENCODING 7735
SWIDTH 795 0
DWIDTH 11 0
BBX 11 17 0 -6
BITMAP
041000
280000
780000
780000
780000
780100
780600
781E00
780400
784000
780000
7EAAA4
7FC090
02C000
03C000
03FE00
02A400
ENDCHAR
STARTCHAR Ldotbelowmacron
ENCODING 7736
SWIDTH 795 0
DWIDTH 11 0
BBX 11 20 0 -6
BITMAP
010000
060000
1E0010
1EAF80
281A00
780000
780000
780000
780100
780600
781E00
780400
784000
780000
7EAAA4
7FC090
02C000
03C000
03FE00
02A400
ENDCHAR
STARTCHAR ldotbelowmacron
ENCODING 7737
SWIDTH 795 0
DWIDTH 11 0
BBX 11 20 0 -6
BITMAP
010000
060000
1E0010
1EAF80
281A00
780000
780000
780000
780100
780600
781E00
780400
784000
780000
7EAAA4
7FC090
02C000
03C000
03FE00
02A400
ENDCHAR
STARTCHAR Llinebelow
ENCODING 7738
SWIDTH 795 0
DWIDTH 11 0
BBX 11 16 0 -5
BITMAP
041000
280000
780000
780000
780000
780100
780600
781E00
780400
784000
780000
7EAAA4
7E0010
1E0000
1FAA80
1FFE00
ENDCHAR
STARTCHAR llinebelow
ENCODING 7739
SWIDTH 795 0
DWIDTH 11 0
BBX 11 16 0 -5
BITMAP
041000
280000
780000
780000
780000
780100
780600
781E00
780400
784000
780000
7EAAA4
7E0010
1E0000
1FAA80
1FFE00
ENDCHAR
STARTCHAR Mdotbelow
ENCODING 7746
SWIDTH 949 0
DWIDTH 13 0
BBX 13 17 0 -6
BITMAP
04001040
28008000
78424400
78121000
78044000
78000000
78145000
781D9000
781ED000
7812D000
7802D000
7E91BA00
7F603C00
00F00000
00F00000
00FF4000
00A90000
ENDCHAR
STARTCHAR mdotbelow
ENCODING 7747
SWIDTH 949 0
DWIDTH 13 0
BBX 13 17 0 -6
BITMAP
04001040
28008000
78424400
78121000
78044000
78000000
78145000
781D9000
781ED000
7812D000
7802D000
7E91BA00
7F603C00
00F00000
00F00000
00FF4000
00A90000
ENDCHAR
STARTCHAR Ndotaccent
ENCODING 7748
SWIDTH 853 0
DWIDTH 12 0
BBX 11 16 0 -2
BITMAP
001000
01D000
02D040
046F40
280B00
784700
781200
780400
780000
781400
781C10
781E10
781F00
781F00
7E9FA4
7F4BE0
ENDCHAR
STARTCHAR ndotaccent
ENCODING 7749
SWIDTH 853 0
DWIDTH 12 0
BBX 11 16 0 -2
BITMAP
001000
01D000
02D040
046F40
280B00
784700
781200
780400
780000
781400
781C10
781E10
781F00
781F00
7E9FA4
7F4BE0
ENDCHAR
STARTCHAR Ndotbelow
ENCODING 7750
SWIDTH 853 0
DWIDTH 12 0
BBX 11 17 0 -6
BITMAP
040140
280300
784700
781200
780400
780000
781400
781C10
781E10
781F00
781F00
7E9AA4
7FD0A0
02D000
02D000
02FE00
01A800
ENDCHAR
STARTCHAR ndotbelow
ENCODING 7751
SWIDTH 853 0
DWIDTH 12 0
BBX 11 17 0 -6
BITMAP
040140
280300
784700
781200
780400
780000
781400
781C10
781E10
781F00
781F00
7E9AA4
7FD0A0
02D000
02D000
02FE00
01A800
ENDCHAR
STARTCHAR Nlinebelow
ENCODING 7752
SWIDTH 853 0
DWIDTH 12 0
BBX 11 16 0 -5
BITMAP
040140
280300
784700
781200
780400
780000
781400
781C10
781E10
781F00
781F00
7F9AA8
7F0000
0B0000
0FAA90
0FFF40
ENDCHAR
STARTCHAR nlinebelow
ENCODING 7753
SWIDTH 853 0
DWIDTH 12 0
BBX 11 16 0 -5
BITMAP
040140
280300
784700
781200
780400
780000
781400
781C10
781E10
781F00
781F00
7F9AA8
7F0000
0B0000
0FAA90
0FFF40
ENDCHAR
STARTCHAR Rdotbelow
ENCODING 7770
SWIDTH 843 0
DWIDTH 12 0
BBX 11 17 0 -6
BITMAP
040050
280000
784000
781D00
781D00
780004
784040
780000
781F40
781F40
780B40
7E96A8
7F9060
01D000
02D000
02FF00
01A800
ENDCHAR
STARTCHAR rdotbelow
ENCODING 7771
SWIDTH 843 0
DWIDTH 12 0
BBX 11 17 0 -6
BITMAP
040050
280000
784000
781D00
781D00
780004
784040
780000
781F40
781F40
780B40
7E96A8
7F9060
01D000
02D000
02FF00
01A800
ENDCHAR
STARTCHAR Rdotbelowmacron
ENCODING 7772
SWIDTH 843 0
DWIDTH 12 0
BBX 11 20 0 -6
BITMAP
010000
090000
2D0000
2EAA80
280000
384000
781D00
781D00
780004
784040
780000
781F40
781F40
780B40
7E96A8
7F9060
01D000
02D000
02FF00
01A800
ENDCHAR
STARTCHAR rdotbelowmacron
ENCODING 7773
SWIDTH 843 0
DWIDTH 12 0
BBX 11 20 0 -6
BITMAP
010000
090000
2D0000
2EAA80
280000
384000
781D00
781D00
780004
784040
780000
781F40
781F40
780B40
7E96A8
7F9060
01D000
02D000
02FF00
01A800
ENDCHAR
STARTCHAR Rlinebelow
ENCODING 7774
SWIDTH 843 0
DWIDTH 12 0
BBX 12 16 0 -5
BITMAP
040050
284000
780000
781D00
781D00
780044
784140
780500
781F40
781F40
781B41
7F96A8
7F0010
0B0000
0FAA90
0FFF40
ENDCHAR
STARTCHAR rlinebelow
ENCODING 7775
SWIDTH 843 0
DWIDTH 12 0
BBX 12 16 0 -5
BITMAP
040050
284000
780000
781D00
781D00
780044
784140
780500
781F40
781F40
781B41
7F96A8
7F0010
0B0000
0FAA90
0FFF40
ENDCHAR
STARTCHAR Sdotaccent
ENCODING 7776
SWIDTH 750 0
DWIDTH 11 0
BBX 10 16 0 -2
BITMAP
004100
018000
078000
064010
000000
140010
741FC0
B40150
B80000
BE4000
7FF800
140000
740000
B40000
BEAA40
BFF900
ENDCHAR
STARTCHAR sdotaccent
ENCODING 7777
SWIDTH 750 0
DWIDTH 11 0
BBX 10 16 0 -2
BITMAP
004100
018000
078000
064010
000000
140010
741FC0
B40150
B80000
BE4000
7FF800
140000
740000
B40000
BEAA40
BFF900
ENDCHAR
STARTCHAR Sdotbelow
ENCODING 7778
SWIDTH 750 0
DWIDTH 11 0
BBX 10 17 0 -6
BITMAP
010010
040000
340010
741FC0
B40140
B80000
BE4000
7FF800
140000
740000
B40010
BEAA40
BF8000
038000
078000
07FD00
02A400
ENDCHAR
STARTCHAR sdotbelow
ENCODING 7779
SWIDTH 750 0
DWIDTH 11 0
BBX 10 17 0 -6
BITMAP
010010
040000
340010
741FC0
B40140
B80000
BE4000
7FF800
140000
740000
B40010
BEAA40
BF8000
038000
078000
07FD00
02A400
ENDCHAR
STARTCHAR Tdotbelow
ENCODING 7788
SWIDTH 756 0
DWIDTH 11 0
BBX 10 17 0 -6
BITMAP
140000
700000
F00400
FA40A0
BF8080
078000
078000
078000
078000
078000
078000
07E900
078000
038000
078000
07FD00
06A000
ENDCHAR
STARTCHAR tdotbelow
ENCODING 7789
SWIDTH 756 0
DWIDTH 11 0
BBX 10 17 0 -6
BITMAP
140000
700000
F00400
FA40A0
BF8080
078000
078000
078000
078000
078000
078000
07E900
078000
038000
078000
07FD00
06A000
ENDCHAR
STARTCHAR Tlinebelow
ENCODING 7790
SWIDTH 756 0
DWIDTH 11 0
BBX 10 16 0 -5
BITMAP
140000
700400
F00000
FA40A0
BF8080
078000
078000
078000
078000
078000
078000
06A900
090000
2D0000
2FAA40
2FFE00
ENDCHAR
STARTCHAR tlinebelow
ENCODING 7791
SWIDTH 756 0
DWIDTH 11 0
BBX 10 16 0 -5
BITMAP
140000
700400
F00000
FA40A0
BF8080
078000
078000
078000
078000
078000
078000
06A900
090000
2D0000
2FAA40
2FFE00
ENDCHAR
STARTCHAR Wgrave
ENCODING 7808
SWIDTH 931 0
DWIDTH 13 0
BBX 11 17 0 -2
BITMAP
005000
02ABE4
074004
0B4000
042E80
3416D0
7402D0
B402D0
B405D0
B41450
B40000
B40000
780200
7C0700
3D0740
2FABE8
1F87E0
ENDCHAR
STARTCHAR wgrave
ENCODING 7809
SWIDTH 931 0
DWIDTH 13 0
BBX 11 17 0 -2
BITMAP
005000
02ABE4
074004
0B4000
042E80
3416D0
7402D0
B402D0
B405D0
B41450
B40000
B40000
780200
7C0700
3D0740
2FABE8
1F87E0
ENDCHAR
STARTCHAR Wacute
ENCODING 7810
SWIDTH 931 0
DWIDTH 13 0
BBX 11 17 0 -2
BITMAP
000050
006FA4
028000
078004
040B90
341490
7402D0
B402D0
B405D0
B41450
B40000
B40000
780200
7C0700
3D0740
2FABE8
1F87E0
ENDCHAR
STARTCHAR wacute
ENCODING 7811
SWIDTH 931 0
DWIDTH 13 0
BBX 11 17 0 -2
BITMAP
000050
006FA4
028000
078004
040B90
341490
7402D0
B402D0
B405D0
B41450
B40000
B40000
780200
7C0700
3D0740
2FABE8
1F87E0
ENDCHAR
STARTCHAR Wdieresis
ENCODING 7812
SWIDTH 931 0
DWIDTH 13 0
BBX 13 16 0 -2
BITMAP
00410000
03020000
0B420000
0AAFEA40
241AD000
7401D000
B402D000
B405D000
B4145000
B4000000
B4000000
78020000
7C070000
7D074000
2FABE800
1F87E000
ENDCHAR
STARTCHAR wdieresis
ENCODING 7813
SWIDTH 931 0
DWIDTH 13 0
BBX 13 16 0 -2
BITMAP
00410000
03020000
0B420000
0AAFEA40
241AD000
7401D000
B402D000
B405D000
B4145000
B4000000
B4000000
78020000
7C070000
7D074000
2FABE800
1F87E000
ENDCHAR
STARTCHAR Ydotaccent
ENCODING 7822
SWIDTH 805 0
DWIDTH 11 0
BBX 11 16 0 -2
BITMAP
005000
02C000
03C040
142F44
741E00
B41E00
B41E00
B41D00
B84404
BD0000
3F0400
1F8040
0BC000
03C000
03EA00
03F800
ENDCHAR
STARTCHAR ydotaccent
ENCODING 7823
SWIDTH 805 0
DWIDTH 11 0
BBX 11 16 0 -2
BITMAP
005000
02C000
03C040
142F44
741E00
B41E00
B41E00
B41D00
B84404
BD0000
3F0400
1F8040
0BC000
03C000
03EA00
03F800
ENDCHAR
STARTCHAR Zdotbelow
ENCODING 7826
SWIDTH 760 0
DWIDTH 11 0
BBX 10 17 0 -6
BITMAP
040010
280000
780000
7EA000
7FC110
014440
060000
080000
240000
740000
B40000
BEAAA0
BF8080
038000
078000
07FD00
02A400
ENDCHAR
STARTCHAR zdotbelow
ENCODING 7827
SWIDTH 760 0
DWIDTH 11 0
BBX 10 17 0 -6
BITMAP
040010
280000
780000
7EA000
7FC110
014440
060000
080000
240000
740000
B40000
BEAAA0
BF8080
038000
078000
07FD00
02A400
ENDCHAR
STARTCHAR tdieresis
ENCODING 7831
SWIDTH 756 0
DWIDTH 11 0
BBX 10 16 0 -2
BITMAP
001400
1C0800
3C1800
340000
300000
F00400
FA40A0
FF8080
078000
078000
078000
078000
078000
078000
07E900
07F400
ENDCHAR
STARTCHAR Germandbls
ENCODING 7838
SWIDTH 859 0
DWIDTH 12 0
BBX 11 13 0 -2
BITMAP
040010
280000
784000
780400
781C04
781840
781800
781F80
781900
781800
781800
7EBEA4
7FBF80
ENDCHAR
STARTCHAR Adotbelow
ENCODING 7840
SWIDTH 830 0
DWIDTH 12 0
BBX 11 17 0 -6
BITMAP
004000
020000
050100
0C0400
180D00
281E00
340000
740010
B40000
B42F00
B41F00
BE9AA4
7FC0A0
02C000
03D000
03FE00
02A800
ENDCHAR
STARTCHAR adotbelow
ENCODING 7841
SWIDTH 830 0
DWIDTH 12 0
BBX 11 17 0 -6
BITMAP
004000
020000
050100
0C0400
180D00
281E00
340000
740010
B40000
B42F00
B41F00
BE9AA4
7FC0A0
02C000
03D000
03FE00
02A800
ENDCHAR
STARTCHAR Ahookabove
ENCODING 7842
SWIDTH 830 0
DWIDTH 12 0
BBX 11 17 0 -2
BITMAP
004000
028140
07E400
02D040
024000
020000
050100
0C0400
180D00
281E00
340000
740010
B40000
B42F00
B41F00
BE9FA4
7F4FE0
ENDCHAR
STARTCHAR ahookabove
ENCODING 7843
SWIDTH 830 0
DWIDTH 12 0
BBX 11 17 0 -2
BITMAP
004000
028140
07E400
02D040
024000
020000
050100
0C0400
180D00
281E00
340000
740010
B40000
B42F00
B41F00
BE9FA4
7F4FE0
ENDCHAR
STARTCHAR Acircumflexacute
ENCODING 7844
SWIDTH 830 0
DWIDTH 12 0
BBX 11 19 0 -2
BITMAP
000154
000900
002D00
000040
010000
0B6F90
0F5550
0F0000
050100
0C0400
180D00
281E00
340000
740010
B40000
B42F00
B41F00
BE9FA4
7F4FE0
ENDCHAR
STARTCHAR acircumflexacute
ENCODING 7845
SWIDTH 830 0
DWIDTH 12 0
BBX 11 19 0 -2
BITMAP
000154
000900
002D00
000040
010000
0B6F90
0F5550
0F0000
050100
0C0400
180D00
281E00
340000
740010
B40000
B42F00
B41F00
BE9FA4
7F4FE0
ENDCHAR
STARTCHAR Acircumflexgrave
ENCODING 7846
SWIDTH 830 0
DWIDTH 12 0
BBX 11 19 0 -2
BITMAP
000550
001C00
003C00
001040
010000
0B6F90
0F5550
0F0000
050100
0C0400
180D00
281E00
340000
740010
B40000
B42F00
B41F00
BE9FA4
7F4FE0
ENDCHAR
STARTCHAR acircumflexgrave
ENCODING 7847
SWIDTH 830 0
DWIDTH 12 0
BBX 11 19 0 -2
BITMAP
000550
001C00
003C00
001040
010000
0B6F90
0F5550
0F0000
050100
0C0400
180D00
281E00
340000
740010
B40000
B42F00
B41F00
BE9FA4
7F4FE0
ENDCHAR
STARTCHAR Acircumflexhookabove
ENCODING 7848
SWIDTH 830 0
DWIDTH 12 0
BBX 12 21 0 -2
BITMAP
000104
000900
002E90
002F01
001F69
000164
020000
0B6F90
1F5550
0F0000
050100
0C0400
180D00
281E00
340000
740010
B40000
B42F00
B41F00
BE9FA4
7F4FE0
ENDCHAR
STARTCHAR acircumflexhookabove
ENCODING 7849
SWIDTH 830 0
DWIDTH 12 0
BBX 12 21 0 -2
BITMAP
000104
000900
002E90
002F01
001F69
000164
020000
0B6F90
1F5550
0F0000
050100
0C0400
180D00
281E00
340000
740010
B40000
B42F00
B41F00
BE9FA4
7F4FE0
ENDCHAR
STARTCHAR Acircumflextilde
ENCODING 7850
SWIDTH 830 0
DWIDTH 12 0
BBX 11 19 0 -2
BITMAP
020000
0A0100
1FA950
1F9140
060000
0B6F90
0F5550
0F0000
050100
0C0400
180D00
281E00
340000
740010
B40000
B42F00
B41F00
BE9FA4
7F4FE0
ENDCHAR
STARTCHAR acircumflextilde
ENCODING 7851
SWIDTH 830 0
DWIDTH 12 0
BBX 11 19 0 -2
BITMAP
020000
0A0100
1FA950
1F9140
060000
0B6F90
0F5550
0F0000
050100
0C0400
180D00
281E00
340000
740010
B40000
B42F00
B41F00
BE9FA4
7F4FE0
ENDCHAR
STARTCHAR Acircumflexdotbelow
ENCODING 7852
SWIDTH 830 0
DWIDTH 12 0
BBX 11 20 0 -6
BITMAP
000010
060000
0F6F90
1F5550
0F0000
050100
0C0400
180D00
281E00
340000
740010
B40000
B42F00
B41F00
BE9AA4
7FC0A0
02C000
03D000
03FE00
02A800
ENDCHAR
STARTCHAR acircumflexdotbelow
ENCODING 7853
SWIDTH 830 0
DWIDTH 12 0
BBX 11 20 0 -6
BITMAP
000010
060000
0F6F90
1F5550
0F0000
050100
0C0400
180D00
281E00
340000
740010
B40000
B42F00
B41F00
BE9AA4
7FC0A0
02C000
03D000
03FE00
02A800
ENDCHAR
STARTCHAR Abreveacute
ENCODING 7854
SWIDTH 830 0
DWIDTH 12 0
BBX 11 20 0 -2
BITMAP
000680
002A40
00B000
00A040
060E00
0E0000
1F9100
0FAA90
0B0010
060100
0D0404
1C0D04
281E00
340000
740010
B40000
B42F00
B41F00
BE9FA4
7F4FE0
ENDCHAR
STARTCHAR abreveacute
ENCODING 7855
SWIDTH 830 0
DWIDTH 12 0
BBX 11 20 0 -2
BITMAP
000680
002A40
00B000
00A040
060E00
0E0000
1F9100
0FAA90
0B0010
060100
0D0404
1C0D04
281E00
340000
740010
B40000
B42F00
B41F00
BE9FA4
7F4FE0
ENDCHAR
STARTCHAR Abrevegrave
ENCODING 7856
SWIDTH 830 0
DWIDTH 12 0
BBX 11 20 0 -2
BITMAP
00A400
029900
078000
074000
060A00
0E0000
1F9100
1FAA90
0B0010
060100
0D0404
1C0D04
281E00
340000
740010
B40000
B42F00
B41F00
BE9FA4
7F4FE0
ENDCHAR
STARTCHAR abrevegrave
ENCODING 7857
SWIDTH 830 0
DWIDTH 12 0
BBX 11 20 0 -2
BITMAP
00A400
029900
078000
074000
060A00
0E0000
1F9100
1FAA90
0B0010
060100
0D0404
1C0D04
281E00
340000
740010
B40000
B42F00
B41F00
BE9FA4
7F4FE0
ENDCHAR
STARTCHAR Abrevehookabove
ENCODING 7858
SWIDTH 830 0
DWIDTH 12 0
BBX 11 21 0 -2
BITMAP
001000
01D500
02F400
01F040
00AF40
060E00
0E0000
1F9100
0FAA90
0B0010
060100
0D0404
1C0D04
281E00
340000
740010
B40000
B42F00
B41F00
BE9FA4
7F4FE0
ENDCHAR
STARTCHAR abrevehookabove
ENCODING 7859
SWIDTH 830 0
DWIDTH 12 0
BBX 11 21 0 -2
BITMAP
001000
01D500
02F400
01F040
00AF40
060E00
0E0000
1F9100
0FAA90
0B0010
060100
0D0404
1C0D04
281E00
340000
740010
B40000
B42F00
B41F00
BE9FA4
7F4FE0
ENDCHAR
STARTCHAR Abrevetilde
ENCODING 7860
SWIDTH 830 0
DWIDTH 12 0
BBX 11 19 0 -2
BITMAP
060000
0E1010
1FAF90
0E0E00
0E0000
1F9100
1FAA90
0B0010
060100
0D0404
1C0D04
281E00
340000
740010
B40000
B42F00
B41F00
BE9FA4
7F4FE0
ENDCHAR
STARTCHAR abrevetilde
ENCODING 7861
SWIDTH 830 0
DWIDTH 12 0
BBX 11 19 0 -2
BITMAP
060000
0E1010
1FAF90
0E0E00
0E0000
1F9100
1FAA90
0B0010
060100
0D0404
1C0D04
281E00
340000
740010
B40000
B42F00
B41F00
BE9FA4
7F4FE0
ENDCHAR
STARTCHAR Abrevedotbelow
ENCODING 7862
SWIDTH 830 0
DWIDTH 12 0
BBX 11 21 0 -6
BITMAP
001100
060A00
0E0000
1F9100
0FAA90
0B0010
060100
0D0404
1C0D04
281E00
340000
740010
B40000
B42F00
B41F00
BE9AA4
7FC0A0
02C000
03D000
03FE00
02A800
ENDCHAR
STARTCHAR abrevedotbelow
ENCODING 7863
SWIDTH 830 0
DWIDTH 12 0
BBX 11 21 0 -6
BITMAP
001100
060A00
0E0000
1F9100
0FAA90
0B0010
060100
0D0404
1C0D04
281E00
340000
740010
B40000
B42F00
B41F00
BE9AA4
7FC0A0
02C000
03D000
03FE00
02A800
ENDCHAR
STARTCHAR Edotbelow
ENCODING 7864
SWIDTH 754 0
DWIDTH 11 0
BBX 10 17 0 -6
BITMAP
040000
280000
784000
781FD0
780040
784000
780000
781A40
780900
784000
780000
7EAAA0
7F8080
038000
078000
07FD00
02A400
ENDCHAR
STARTCHAR edotbelow
ENCODING 7865
SWIDTH 754 0
DWIDTH 11 0
BBX 10 17 0 -6
BITMAP
040000
280000
784000
781FD0
780040
784000
780000
781A40
780900
784000
780000
7EAAA0
7F8080
038000
078000
07FD00
02A400
ENDCHAR
STARTCHAR Ehookabove
ENCODING 7866
SWIDTH 754 0
DWIDTH 11 0
BBX 10 17 0 -2
BITMAP
004100
074040
0BE400
07C000
040000
280000
784000
781FD0
780040
784000
780000
781A40
780900
784000
780000
7EAA90
7FFF80
ENDCHAR
STARTCHAR ehookabove
ENCODING 7867
SWIDTH 754 0
DWIDTH 11 0
BBX 10 17 0 -2
BITMAP
004100
074040
0BE400
07C000
040000
280000
784000
781FD0
780040
784000
780000
781A40
780900
784000
780000
7EAA90
7FFF80
ENDCHAR
STARTCHAR Etilde
ENCODING 7868
SWIDTH 754 0
DWIDTH 11 0
BBX 10 16 0 -2
BITMAP
011540
090000
2D5000
280000
280000
784000
781FD0
780040
784000
780000
781A40
780900
784000
780000
7EAA90
7FFF80
ENDCHAR
STARTCHAR etilde
ENCODING 7869
SWIDTH 754 0
DWIDTH 11 0
BBX 10 16 0 -2
BITMAP
011540
090000
2D5000
280000
280000
784000
781FD0
780040
784000
780000
781A40
780900
784000
780000
7EAA90
7FFF80
ENDCHAR
STARTCHAR Ecircumflexacute
ENCODING 7870
SWIDTH 754 0
DWIDTH 11 0
BBX 10 19 0 -2
BITMAP
000550
001C00
003C40
001140
050000
1EBE50
280000
280000
784000
781FD0
780040
784000
780000
781A40
780900
784000
780000
7EAA90
7FFF80
ENDCHAR
STARTCHAR ecircumflexacute
ENCODING 7871
SWIDTH 754 0
DWIDTH 11 0
BBX 10 19 0 -2
BITMAP
000550
001C00
003C40
001140
050000
1EBE50
280000
280000
784000
781FD0
780040
784000
780000
781A40
780900
784000
780000
7EAA90
7FFF80
ENDCHAR
STARTCHAR Ecircumflexgrave
ENCODING 7872
SWIDTH 754 0
DWIDTH 11 0
BBX 10 19 0 -2
BITMAP
000540
002810
007800
001140
050000
1EBE50
280000
280000
784000
781FD0
780040
784000
780000
781A40
780900
784000
780000
7EAA90
7FFF80
ENDCHAR
STARTCHAR ecircumflexgrave
ENCODING 7873
SWIDTH 754 0
DWIDTH 11 0
BBX 10 19 0 -2
BITMAP
000540
002810
007800
001140
050000
1EBE50
280000
280000
784000
781FD0
780040
784000
780000
781A40
780900
784000
780000
7EAA90
7FFF80
ENDCHAR
STARTCHAR Ecircumflexhookabove
ENCODING 7874
SWIDTH 754 0
DWIDTH 11 0
BBX 11 20 0 -2
BITMAP
001800
003E80
003E10
002E68
0001A0
050000
1EBE50
280000
280000
784000
781FD0
780040
784000
780000
781A40
780900
784000
780000
7EAA90
7FFF80
ENDCHAR
STARTCHAR ecircumflexhookabove
ENCODING 7875
SWIDTH 754 0
DWIDTH 11 0
BBX 11 20 0 -2
BITMAP
001800
003E80
003E10
002E68
0001A0
050000
1EBE50
280000
280000
784000
781FD0
780040
784000
780000
781A40
780900
784000
780000
7EAA90
7FFF80
ENDCHAR
STARTCHAR Ecircumflextilde
ENCODING 7876
SWIDTH 754 0
DWIDTH 11 0
BBX 10 19 0 -2
BITMAP
050000
1D0100
2EA940
2F9100
190000
1EBE50
280000
280000
784000
781FD0
780040
784000
780000
781A40
780900
784000
780000
7EAA90
7FFF80
ENDCHAR
STARTCHAR ecircumflextilde
ENCODING 7877
SWIDTH 754 0
DWIDTH 11 0
BBX 10 19 0 -2
BITMAP
050000
1D0100
2EA940
2F9100
190000
1EBE50
280000
280000
784000
781FD0
780040
784000
780000
781A40
780900
784000
780000
7EAA90
7FFF80
ENDCHAR
STARTCHAR Ecircumflexdotbelow
ENCODING 7878
SWIDTH 754 0
DWIDTH 11 0
BBX 10 20 0 -6
BITMAP
010000
090000
1EBE40
280000
280000
784000
781FD0
780040
784000
780000
781A40
780900
784000
780000
7EAAA0
7F8180
078000
078000
07FD00
06A000
ENDCHAR
STARTCHAR ecircumflexdotbelow
ENCODING 7879
SWIDTH 754 0
DWIDTH 11 0
BBX 10 20 0 -6
BITMAP
010000
090000
1EBE40
280000
280000
784000
781FD0
780040
784000
780000
781A40
780900
784000
780000
7EAAA0
7F8180
078000
078000
07FD00
06A000
ENDCHAR
STARTCHAR Ihookabove
ENCODING 7880
SWIDTH 705 0
DWIDTH 10 0
BBX 9 17 0 -2
BITMAP
010000
0A0500
1F9000
0B4100
040000
340000
B41000
B90140
BF4140
1B4000
0B4000
0B4000
0A0000
241000
B40000
BEAA80
7FFE00
ENDCHAR
STARTCHAR ihookabove
ENCODING 7881
SWIDTH 705 0
DWIDTH 10 0
BBX 9 17 0 -2
BITMAP
010000
0A0500
1F9000
0B4100
040000
340000
B41000
B90140
BF4140
1B4000
0B4000
0B4000
0A0000
241000
B40000
BEAA80
7FFE00
ENDCHAR
STARTCHAR Idotbelow
ENCODING 7882
SWIDTH 705 0
DWIDTH 10 0
BBX 9 17 0 -6
BITMAP
040000
340000
B41000
B90140
BF4140
1B4000
0B4000
0B4000
0A0000
241000
B40000
BEAA80
7F4100
074000
0B4100
0BF800
06A000
ENDCHAR
STARTCHAR idotbelow
ENCODING 7883
SWIDTH 705 0
DWIDTH 10 0
BBX 9 17 0 -6
BITMAP
040000
340000
B41000
B90140
BF4140
1B4000
0B4000
0B4000
0A0000
241000
B40000
BEAA80
7F4100
074000
0B4100
0BF800
06A000
ENDCHAR
STARTCHAR Odotbelow
ENCODING 7884
SWIDTH 837 0
DWIDTH 12 0
BBX 11 16 0 -5
BITMAP
000010
040004
280000
741E00
741F00
B40F00
B40F00
B40F00
B44500
B81540
7D0004
7FE5A0
2FD040
02D000
02FA40
02F900
ENDCHAR
STARTCHAR odotbelow
ENCODING 7885
SWIDTH 837 0
DWIDTH 12 0
BBX 11 16 0 -5
BITMAP
000010
040004
280000
741E00
741F00
B40F00
B40F00
B40F00
B44500
B81540
7D0004
7FE5A0
2FD040
02D000
02FA40
02F900
ENDCHAR
STARTCHAR Ohookabove
ENCODING 7886
SWIDTH 837 0
DWIDTH 12 0
BBX 10 18 0 -2
BITMAP
004000
018140
03E440
07D100
01E640
014010
040000
280000
741E00
741F00
B40F00
B40F00
B40F00
B44500
B81540
7D0010
3FFAD0
0BFE00
ENDCHAR
STARTCHAR ohookabove
ENCODING 7887
SWIDTH 837 0
DWIDTH 12 0
BBX 10 18 0 -2
BITMAP
004000
018140
03E440
07D100
01E640
014010
040000
280000
741E00
741F00
B40F00
B40F00
B40F00
B44500
B81540
7D0010
3FFAD0
0BFE00
ENDCHAR
STARTCHAR Ocircumflexacute
ENCODING 7888
SWIDTH 837 0
DWIDTH 12 0
BBX 11 20 0 -2
BITMAP
0001A4
000694
001D00
002810
010010
060000
0F6E90
0E4010
080000
280000
741E00
741F00
B40F00
B40F00
B40F00
B44500
B81540
7D0010
3FFAD0
0BFE00
ENDCHAR
STARTCHAR ocircumflexacute
ENCODING 7889
SWIDTH 837 0
DWIDTH 12 0
BBX 11 20 0 -2
BITMAP
0001A4
000694
001D00
002810
010010
060000
0F6E90
0E4010
080000
280000
741E00
741F00
B40F00
B40F00
B40F00
B44500
B81540
7D0010
3FFAD0
0BFE00
ENDCHAR
STARTCHAR Ocircumflexgrave
ENCODING 7890
SWIDTH 837 0
DWIDTH 12 0
BBX 10 20 0 -2
BITMAP
000140
000EB0
003C00
002800
014000
060000
0F6E90
0E4010
080000
280000
741E00
741F00
B40F00
B40F00
B40F00
B44500
B81540
7D0010
3FFAD0
0BFE00
ENDCHAR
STARTCHAR ocircumflexgrave
ENCODING 7891
SWIDTH 837 0
DWIDTH 12 0
BBX 10 20 0 -2
BITMAP
000140
000EB0
003C00
002800
014000
060000
0F6E90
0E4010
080000
280000
741E00
741F00
B40F00
B40F00
B40F00
B44500
B81540
7D0010
3FFAD0
0BFE00
ENDCHAR
STARTCHAR Ocircumflexhookabove
ENCODING 7892
SWIDTH 837 0
DWIDTH 12 0
BBX 12 21 0 -2
BITMAP
000104
000901
002F90
001F00
000664
010110
060000
0F6E90
0E4010
080000
280000
741E00
741F00
B40F00
B40F00
B40F00
B44500
B81540
7D0010
3FFAD0
0BFE00
ENDCHAR
STARTCHAR ocircumflexhookabove
ENCODING 7893
SWIDTH 837 0
DWIDTH 12 0
BBX 12 21 0 -2
BITMAP
000104
000901
002F90
001F00
000664
010110
060000
0F6E90
0E4010
080000
280000
741E00
741F00
B40F00
B40F00
B40F00
B44500
B81540
7D0010
3FFAD0
0BFE00
ENDCHAR
STARTCHAR Ocircumflextilde
ENCODING 7894
SWIDTH 837 0
DWIDTH 12 0
BBX 10 19 0 -2
BITMAP
060000
0F1410
0FE680
060110
0A0000
0F6E90
0E4010
080000
280000
741E00
741F00
B40F00
B40F00
B40F00
B44500
B81540
7D0010
3FFAD0
0BFE00
ENDCHAR
STARTCHAR ocircumflextilde
ENCODING 7895
SWIDTH 837 0
DWIDTH 12 0
BBX 10 19 0 -2
BITMAP
060000
0F1410
0FE680
060110
0A0000
0F6E90
0E4010
080000
280000
741E00
741F00
B40F00
B40F00
B40F00
B44500
B81540
7D0010
3FFAD0
0BFE00
ENDCHAR
STARTCHAR Ocircumflexdotbelow
ENCODING 7896
SWIDTH 837 0
DWIDTH 12 0
BBX 10 19 0 -5
BITMAP
000110
060000
0F6E90
0E4010
080000
280500
741F00
B41F00
B40F00
B40F00
B40E00
B44000
B81540
7D0000
2FE580
02D000
02D000
02FA00
02F800
ENDCHAR
STARTCHAR ocircumflexdotbelow
ENCODING 7897
SWIDTH 837 0
DWIDTH 12 0
BBX 10 19 0 -5
BITMAP
000110
060000
0F6E90
0E4010
080000
280500
741F00
B41F00
B40F00
B40F00
B40E00
B44000
B81540
7D0000
2FE580
02D000
02D000
02FA00
02F800
ENDCHAR
STARTCHAR Ohornacute
ENCODING 7898
SWIDTH 847 0
DWIDTH 12 0
BBX 12 17 0 -2
BITMAP
000040
02AA90
090000
2D0011
2D0004
180051
280010
741E00
741F00
B40F00
B40F00
B40F00
B44500
B81540
7D0010
3FFAD0
1BFE00
ENDCHAR
STARTCHAR ohornacute
ENCODING 7899
SWIDTH 847 0
DWIDTH 12 0
BBX 12 17 0 -2
BITMAP
000040
02AA90
090000
2D0011
2D0004
180051
280010
741E00
741F00
B40F00
B40F00
B40F00
B44500
B81540
7D0010
3FFAD0
1BFE00
ENDCHAR
STARTCHAR Ohorngrave
ENCODING 7900
SWIDTH 847 0
DWIDTH 12 0
BBX 12 16 0 -2
BITMAP
065540
1C0000
2D4011
2A4004
040051
280010
741E00
741F00
B40F00
B40F00
B40F00
B44500
B81540
7D0010
3FFAD0
1BFE00
ENDCHAR
STARTCHAR ohorngrave
ENCODING 7901
SWIDTH 847 0
DWIDTH 12 0
BBX 12 16 0 -2
BITMAP
065540
1C0000
2D4011
2A4004
040051
280010
741E00
741F00
B40F00
B40F00
B40F00
B44500
B81540
7D0010
3FFAD0
1BFE00
ENDCHAR
STARTCHAR Ohornhookabove
ENCODING 7902
SWIDTH 847 0
DWIDTH 12 0
BBX 12 18 0 -2
BITMAP
004000
018140
03E440
07D140
02EA40
014004
040051
280010
741E00
741F00
B40F00
B40F00
B40F00
B44500
B81540
7D0010
3FFAD0
1BFE00
ENDCHAR
STARTCHAR ohornhookabove
ENCODING 7903
SWIDTH 847 0
DWIDTH 12 0
BBX 12 18 0 -2
BITMAP
004000
018140
03E440
07D140
02EA40
014004
040051
280010
741E00
741F00
B40F00
B40F00
B40F00
B44500
B81540
7D0010
3FFAD0
1BFE00
ENDCHAR
STARTCHAR Ohorntilde
ENCODING 7904
SWIDTH 847 0
DWIDTH 12 0
BBX 12 17 0 -2
BITMAP
000140
050000
1D1500
2D5451
2E4004
080051
280010
741E00
741F00
B40F00
B40F00
B40F00
B44500
B81540
7D0010
3FFAD0
1BFE00
ENDCHAR
STARTCHAR ohorntilde
ENCODING 7905
SWIDTH 847 0
DWIDTH 12 0
BBX 12 17 0 -2
BITMAP
000140
050000
1D1500
2D5451
2E4004
080051
280010
741E00
741F00
B40F00
B40F00
B40F00
B44500
B81540
7D0010
3FFAD0
1BFE00
ENDCHAR
STARTCHAR Ohorndotbelow
ENCODING 7906
SWIDTH 847 0
DWIDTH 12 0
BBX 12 18 0 -5
BITMAP
000001
000050
000004
040051
280010
741E00
B41F00
B40F00
B40F00
B40F00
B44500
B81540
7D0000
2FE580
02D000
02D000
02FA00
02F800
ENDCHAR
STARTCHAR ohorndotbelow
ENCODING 7907
SWIDTH 847 0
DWIDTH 12 0
BBX 12 18 0 -5
BITMAP
000001
000050
000004
040051
280010
741E00
B41F00
B40F00
B40F00
B40F00
B44500
B81540
7D0000
2FE580
02D000
02D000
02FA00
02F800
ENDCHAR
STARTCHAR Udotbelow
ENCODING 7908
SWIDTH 846 0
DWIDTH 12 0
BBX 9 16 0 -5
BITMAP
041140
380700
780F00
780F00
780F00
780F00
780F00
780F00
784000
781400
7E0000
1FE580
02D000
02D000
02FA00
02FC00
ENDCHAR
STARTCHAR udotbelow
ENCODING 7909
SWIDTH 846 0
DWIDTH 12 0
BBX 9 16 0 -5
BITMAP
041140
380700
780F00
780F00
780F00
780F00
780F00
780F00
784000
781400
7E0000
1FE580
02D000
02D000
02FA00
02FC00
ENDCHAR
STARTCHAR Uhookabove
ENCODING 7910
SWIDTH 846 0
DWIDTH 12 0
BBX 10 18 0 -2
BITMAP
001040
009000
02E900
02E000
00F680
041F40
281B00
780F00
780F00
780F00
780F00
780F00
780F00
784000
781400
7E0010
2FFAD0
0BFE40
ENDCHAR
STARTCHAR uhookabove
ENCODING 7911
SWIDTH 846 0
DWIDTH 12 0
BBX 10 18 0 -2
BITMAP
001040
009000
02E900
02E000
00F680
041F40
281B00
780F00
780F00
780F00
780F00
780F00
780F00
784000
781400
7E0010
2FFAD0
0BFE40
ENDCHAR
STARTCHAR Uhornacute
ENCODING 7912
SWIDTH 856 0
DWIDTH 12 0
BBX 12 17 0 -2
BITMAP
000040
02BA90
090000
2D0040
285A00
380701
780F00
780F00
780F00
780F00
780F00
780F00
784000
781400
7E0010
3FFAD0
0BFE40
ENDCHAR
STARTCHAR uhornacute
ENCODING 7913
SWIDTH 856 0
DWIDTH 12 0
BBX 12 17 0 -2
BITMAP
000040
02BA90
090000
2D0040
285A00
380701
780F00
780F00
780F00
780F00
780F00
780F00
784000
781400
7E0010
3FFAD0
0BFE40
ENDCHAR
STARTCHAR Uhorngrave
ENCODING 7914
SWIDTH 856 0
DWIDTH 12 0
BBX 12 16 0 -2
BITMAP
06A940
1C0040
2D0010
295A00
281B01
780F00
780F00
780F00
780F00
780F00
780F00
784000
781400
7E0010
3FFAD0
0BFE40
ENDCHAR
STARTCHAR uhorngrave
ENCODING 7915
SWIDTH 856 0
DWIDTH 12 0
BBX 12 16 0 -2
BITMAP
06A940
1C0040
2D0010
295A00
281B01
780F00
780F00
780F00
780F00
780F00
780F00
784000
781400
7E0010
3FFAD0
0BFE40
ENDCHAR
STARTCHAR Uhornhookabove
ENCODING 7916
SWIDTH 856 0
DWIDTH 12 0
BBX 12 18 0 -2
BITMAP
001040
00C000
02D400
03E000
01E640
041E00
281701
780F00
780F00
780F00
780F00
780F00
780F00
784000
781400
7E0010
3FFAD0
0BFE40
ENDCHAR
STARTCHAR uhornhookabove
ENCODING 7917
SWIDTH 856 0
DWIDTH 12 0
BBX 12 18 0 -2
BITMAP
001040
00C000
02D400
03E000
01E640
041E00
281701
780F00
780F00
780F00
780F00
780F00
780F00
784000
781400
7E0010
3FFAD0
0BFE40
ENDCHAR
STARTCHAR Uhorntilde
ENCODING 7918
SWIDTH 856 0
DWIDTH 12 0
BBX 12 16 0 -2
BITMAP
011400
091000
2D5010
295F40
281B01
780F00
780F00
780F00
780F00
780F00
780F00
784000
781400
7E0010
3FFAD0
0BFE40
ENDCHAR
STARTCHAR uhorntilde
ENCODING 7919
SWIDTH 856 0
DWIDTH 12 0
BBX 12 16 0 -2
BITMAP
011400
091000
2D5010
295F40
281B01
780F00
780F00
780F00
780F00
780F00
780F00
784000
781400
7E0010
3FFAD0
0BFE40
ENDCHAR
STARTCHAR Uhorndotbelow
ENCODING 7920
SWIDTH 856 0
DWIDTH 12 0
BBX 12 18 0 -5
BITMAP
000010
000060
041140
380701
780F00
780F00
780F00
780F00
780F00
780F00
784000
781400
7E0000
1FE580
02D000
02D000
02FA00
02FC00
ENDCHAR
STARTCHAR uhorndotbelow
ENCODING 7921
SWIDTH 856 0
DWIDTH 12 0
BBX 12 18 0 -5
BITMAP
000010
000060
041140
380701
780F00
780F00
780F00
780F00
780F00
780F00
784000
781400
7E0000
1FE580
02D000
02D000
02FA00
02FC00
ENDCHAR
STARTCHAR Ygrave
ENCODING 7922
SWIDTH 805 0
DWIDTH 11 0
BBX 11 17 0 -2
BITMAP
015000
06AF90
1D0010
1E0000
142A44
741A00
B41E00
B41E00
B41D00
B84404
BD0000
3F0400
1F8040
0BC000
03C000
03EA00
03F800
ENDCHAR
STARTCHAR ygrave
ENCODING 7923
SWIDTH 805 0
DWIDTH 11 0
BBX 11 17 0 -2
BITMAP
015000
06AF90
1D0010
1E0000
142A44
741A00
B41E00
B41E00
B41D00
B84404
BD0000
3F0400
1F8040
0BC000
03C000
03EA00
03F800
ENDCHAR
STARTCHAR Ydotbelow
ENCODING 7924
SWIDTH 805 0
DWIDTH 11 0
BBX 11 17 0 -6
BITMAP
140104
740A00
B41E00
B41E00
B41D00
B84404
BD0000
3F0400
1F8040
0BC000
03C000
03EA00
03C000
02C000
03C000
03FD00
02A400
ENDCHAR
STARTCHAR ydotbelow
ENCODING 7925
SWIDTH 805 0
DWIDTH 11 0
BBX 11 17 0 -6
BITMAP
140104
740A00
B41E00
B41E00
B41D00
B84404
BD0000
3F0400
1F8040
0BC000
03C000
03EA00
03C000
02C000
03C000
03FD00
02A400
ENDCHAR
STARTCHAR Yhookabove
ENCODING 7926
SWIDTH 805 0
DWIDTH 11 0
BBX 11 17 0 -2
BITMAP
004000
028140
07E400
02D000
142A04
741A00
B41E00
B41E00
B41D00
B84404
BD0000
3F0400
1F8040
0BC000
03C000
03EA00
03F800
ENDCHAR
STARTCHAR yhookabove
ENCODING 7927
SWIDTH 805 0
DWIDTH 11 0
BBX 11 17 0 -2
BITMAP
004000
028140
07E400
02D000
142A04
741A00
B41E00
B41E00
B41D00
B84404
BD0000
3F0400
1F8040
0BC000
03C000
03EA00
03F800
ENDCHAR
STARTCHAR Ytilde
ENCODING 7928
SWIDTH 805 0
DWIDTH 11 0
BBX 11 16 0 -2
BITMAP
011500
0A0000
1E5400
142F44
741E00
B41E00
B41E00
B41D00
B84404
BD0000
3F0400
1F8040
0BC000
03C000
03EA00
03F800
ENDCHAR
STARTCHAR ytilde
ENCODING 7929
SWIDTH 805 0
DWIDTH 11 0
BBX 11 16 0 -2
BITMAP
011500
0A0000
1E5400
142F44
741E00
B41E00
B41E00
B41D00
B84404
BD0000
3F0400
1F8040
0BC000
03C000
03EA00
03F800
ENDCHAR
STARTCHAR enspace
ENCODING 8192
SWIDTH 500 0
DWIDTH 7 0
BBX 1 1 0 0
BITMAP
00
ENDCHAR
STARTCHAR emspace
ENCODING 8193
SWIDTH 1000 0
DWIDTH 14 0
BBX 1 1 0 0
BITMAP
00
ENDCHAR
STARTCHAR uni2002
ENCODING 8194
SWIDTH 500 0
DWIDTH 7 0
BBX 1 1 0 0
BITMAP
00
ENDCHAR
STARTCHAR uni2003
ENCODING 8195
SWIDTH 1000 0
DWIDTH 14 0
BBX 1 1 0 0
BITMAP
00
ENDCHAR
STARTCHAR space.tab_en
ENCODING 8199
SWIDTH 1100 0
DWIDTH 15 0
BBX 1 1 0 0
BITMAP
00
ENDCHAR
STARTCHAR uni2010
ENCODING 8208
SWIDTH 520 0
DWIDTH 7 0
BBX 7 5 0 2
BITMAP
0400
2400
B400
BEA8
BFE0
ENDCHAR
STARTCHAR figuredash
ENCODING 8210
SWIDTH 834 0
DWIDTH 12 0
BBX 11 5 0 2
BITMAP
040004
280000
780000
7EAAA4
7FFFE0
ENDCHAR
STARTCHAR endash
ENCODING 8211
SWIDTH 834 0
DWIDTH 12 0
BBX 11 5 0 2
BITMAP
040004
280000
780000
7EAAA4
7FFFE0
ENDCHAR
STARTCHAR emdash
ENCODING 8212
SWIDTH 1234 0
DWIDTH 17 0
BBX 17 5 0 2
BITMAP
0400000000
2800000000
7800000000
7EAAAAAA40
7FFFFFFD00
ENDCHAR
STARTCHAR horizontalbar
ENCODING 8213
SWIDTH 1234 0
DWIDTH 17 0
BBX 17 5 0 2
BITMAP
0400000000
2800000000
7800000000
7EAAAAAA40
7FFFFFFD00
ENDCHAR
STARTCHAR quoteleft
ENCODING 8216
SWIDTH 484 0
DWIDTH 7 0
BBX 6 8 0 3
BITMAP
0110
1400
3460
7400
B400
B400
BFE0
6A40
ENDCHAR
STARTCHAR quoteright
ENCODING 8217
SWIDTH 484 0
DWIDTH 7 0
BBX 6 8 0 3
BITMAP
0400
7400
B400
BE40
7800
3950
7F80
2900
ENDCHAR
STARTCHAR quotesinglbase
ENCODING 8218
SWIDTH 484 0
DWIDTH 7 0
BBX 5 8 0 -3
BITMAP
0400
2400
7400
B400
BE40
7800
7E80
7E00
ENDCHAR
STARTCHAR quotedblleft
ENCODING 8220
SWIDTH 784 0
DWIDTH 11 0
BBX 11 8 0 3
BITMAP
011004
140400
74A860
B40800
B50800
B40804
BFFFF0
6A6A80
ENDCHAR
STARTCHAR quotedblright
ENCODING 8221
SWIDTH 784 0
DWIDTH 11 0
BBX 11 8 0 3
BITMAP
140804
740800
B40800
BE4E40
B41C04
797D60
BF7F80
692900
ENDCHAR
STARTCHAR quotedblbase
ENCODING 8222
SWIDTH 784 0
DWIDTH 11 0
BBX 10 8 0 -3
BITMAP
040400
240800
B44800
B40800
BE4E40
B41C00
7ABE90
7E3F40
ENDCHAR
STARTCHAR dagger
ENCODING 8224
SWIDTH 818 0
DWIDTH 11 0
BBX 11 13 0 -2
BITMAP
005000
01C000
03C000
144000
740400
B40000
BFD0F8
BFD0E0
02D000
02C000
02C000
02EA00
02F800
ENDCHAR
STARTCHAR daggerdbl
ENCODING 8225
SWIDTH 818 0
DWIDTH 11 0
BBX 11 13 0 -2
BITMAP
005000
01C044
140000
740400
B40000
BFC0F4
6FC090
140000
740400
B54054
BFC0F4
56EA40
02F800
ENDCHAR
STARTCHAR bullet
ENCODING 8226
SWIDTH 543 0
DWIDTH 8 0
BBX 7 8 0 1
BITMAP
0400
2400
B410
B400
B410
B400
BEA4
BFE0
ENDCHAR
STARTCHAR ellipsis
ENCODING 8230
SWIDTH 1210 0
DWIDTH 17 0
BBX 16 6 0 -2
BITMAP
04010040
24090280
B4090280
B4090280
BEAFABEA
7F9FE7F8
ENDCHAR
STARTCHAR perthousand
ENCODING 8240
SWIDTH 1517 0
DWIDTH 21 0
BBX 20 13 0 -2
BITMAP
0000400000
1401800000
7442400000
B492000000
B442005415
B402080140
B905080100
7FFD186108
1A6C28610C
0028281104
00383C0281
007EBFAFFA
007D2FD6F8
ENDCHAR
STARTCHAR minute
ENCODING 8242
SWIDTH 456 0
DWIDTH 6 0
BBX 6 8 0 3
BITMAP
0410
2800
7400
7400
7400
B400
BF80
6A00
ENDCHAR
STARTCHAR second
ENCODING 8243
SWIDTH 766 0
DWIDTH 11 0
BBX 11 8 0 3
BITMAP
041404
280C00
741800
741800
741800
B41800
BFFFD0
6A6A40
ENDCHAR
STARTCHAR guilsinglleft
ENCODING 8249
SWIDTH 663 0
DWIDTH 9 0
BBX 8 8 0 0
BITMAP
0100
0400
3405
7419
7800
7D00
7FFA
06FD
ENDCHAR
STARTCHAR guilsinglright
ENCODING 8250
SWIDTH 663 0
DWIDTH 9 0
BBX 8 8 0 0
BITMAP
1801
3800
7D40
7E90
1800
3801
7EB8
7E90
ENDCHAR
STARTCHAR fraction
ENCODING 8260
SWIDTH 417 0
DWIDTH 6 0
BBX 6 13 0 -2
BITMAP
0110
0D00
2C00
2C00
3800
3800
7400
7400
B000
B000
E000
FA00
F800
ENDCHAR
STARTCHAR zero.sups
ENCODING 8304
SWIDTH 656 0
DWIDTH 9 0
BBX 7 9 0 1
BITMAP
1000
70A0
70B0
70B0
70A0
7000
7954
2FF4
0140
ENDCHAR
STARTCHAR foursuperior
ENCODING 8308
SWIDTH 608 0
DWIDTH 9 0
BBX 8 10 0 1
BITMAP
1460
74A0
B4A0
B450
B404
B800
BFE0
2AF5
01FD
00A4
ENDCHAR
STARTCHAR five.sups
ENCODING 8309
SWIDTH 593 0
DWIDTH 8 0
BBX 8 10 0 1
BITMAP
0401
7400
7429
7401
7800
7FE0
3400
7401
BFF4
6A90
ENDCHAR
STARTCHAR six.sups
ENCODING 8310
SWIDTH 628 0
DWIDTH 9 0
BBX 8 10 0 1
BITMAP
0101
1800
3469
7400
B400
B470
B410
7C00
3FA4
1A90
ENDCHAR
STARTCHAR seven.sups
ENCODING 8311
SWIDTH 577 0
DWIDTH 8 0
BBX 8 10 0 1
BITMAP
1401
7000
BA90
BF40
0400
1C14
3C10
3C00
3F80
2A00
ENDCHAR
STARTCHAR eight.sups
ENCODING 8312
SWIDTH 638 0
DWIDTH 9 0
BBX 9 10 0 1
BITMAP
010000
080000
387000
7D1100
385440
747400
B41000
B80000
7FA800
1A9000
ENDCHAR
STARTCHAR nine.sups
ENCODING 8313
SWIDTH 628 0
DWIDTH 9 0
BBX 8 10 0 1
BITMAP
0100
1410
7470
B410
B800
7FA0
2C00
3C01
3FF8
2A90
ENDCHAR
STARTCHAR parenleft.sups
ENCODING 8317
SWIDTH 434 0
DWIDTH 6 0
BBX 5 11 0 1
BITMAP
1000
6100
A040
A000
A000
A000
A000
B000
7900
3F80
0100
ENDCHAR
STARTCHAR parenright.sups
ENCODING 8318
SWIDTH 435 0
DWIDTH 6 0
BBX 5 11 0 1
BITMAP
2000
B000
BC00
2C00
1C00
1C00
1C00
1400
7140
BE00
1000
ENDCHAR
STARTCHAR n.sups
ENCODING 8319
SWIDTH 673 0
DWIDTH 9 0
BBX 8 9 0 1
BITMAP
1400
3050
70B0
70B0
70B0
70B0
70B0
7E7E
1414
ENDCHAR
STARTCHAR zero.sinf
ENCODING 8320
SWIDTH 656 0
DWIDTH 9 0
BBX 7 9 0 -2
BITMAP
1000
70A0
70B0
70B0
70A0
7000
7954
2FF4
0140
ENDCHAR
STARTCHAR one.sinf
ENCODING 8321
SWIDTH 557 0
DWIDTH 8 0
BBX 7 10 0 -2
BITMAP
0400
7840
7E00
6E00
1E00
1904
2400
B400
BFF8
6AA0
ENDCHAR
STARTCHAR two.sinf
ENCODING 8322
SWIDTH 585 0
DWIDTH 8 0
BBX 7 10 0 -2
BITMAP
0400
3800
7E90
7E40
1414
7464
B400
B400
BFFC
AAA0
ENDCHAR
STARTCHAR three.sinf
ENCODING 8323
SWIDTH 584 0
DWIDTH 8 0
BBX 7 10 0 -2
BITMAP
1404
7400
BE80
6C14
2C00
2FD0
2400
B400
BFF4
6A90
ENDCHAR
STARTCHAR four.sinf
ENCODING 8324
SWIDTH 620 0
DWIDTH 9 0
BBX 8 10 0 -2
BITMAP
1451
70A0
B0A0
B050
B004
B800
BFE0
6AE5
01FD
00A4
ENDCHAR
STARTCHAR five.sinf
ENCODING 8325
SWIDTH 593 0
DWIDTH 8 0
BBX 8 10 0 -2
BITMAP
0401
7400
7429
7401
7800
7FE0
3400
7401
BFF4
6A90
ENDCHAR
STARTCHAR six.sinf
ENCODING 8326
SWIDTH 628 0
DWIDTH 9 0
BBX 8 10 0 -2
BITMAP
0101
1800
3469
7400
B400
B470
B410
7C00
3FA4
1A90
ENDCHAR
STARTCHAR seven.sinf
ENCODING 8327
SWIDTH 577 0
DWIDTH 8 0
BBX 8 10 0 -2
BITMAP
1401
7000
BA90
BF40
0400
1C14
3C10
3C00
3F80
2A00
ENDCHAR
STARTCHAR eight.sinf
ENCODING 8328
SWIDTH 638 0
DWIDTH 9 0
BBX 9 10 0 -2
BITMAP
010000
080000
387000
7D1100
385440
747400
B41000
B80000
7FA800
1A9000
ENDCHAR
STARTCHAR nine.sinf
ENCODING 8329
SWIDTH 628 0
DWIDTH 9 0
BBX 8 10 0 -2
BITMAP
0100
1410
7470
B410
B800
7FA0
2C00
3C01
3FF8
2A90
ENDCHAR
STARTCHAR parenleft.sinf
ENCODING 8333
SWIDTH 434 0
DWIDTH 6 0
BBX 5 11 0 -2
BITMAP
1000
6100
A040
A000
A000
A000
A000
B000
7900
3F80
0100
ENDCHAR
STARTCHAR parenright.sinf
ENCODING 8334
SWIDTH 435 0
DWIDTH 6 0
BBX 5 11 0 -2
BITMAP
2000
B000
BC00
2C00
1C00
1C00
1C00
1400
7140
BE00
1000
ENDCHAR
STARTCHAR colonsign
ENCODING 8353
SWIDTH 728 0
DWIDTH 10 0
BBX 10 14 0 -2
BITMAP
001100
008500
001100
144000
340A90
741F40
B40000
B40000
B40000
781100
7E4010
2FD550
07FF40
02ED00
ENDCHAR
STARTCHAR lira
ENCODING 8356
SWIDTH 795 0
DWIDTH 11 0
BBX 11 12 0 -2
BITMAP
040000
180000
380B80
700300
704000
F40400
B00200
F81A00
B84000
780000
7EAAA4
7FFFD0
ENDCHAR
STARTCHAR naira
ENCODING 8358
SWIDTH 853 0
DWIDTH 12 0
BBX 12 13 0 -2
BITMAP
040140
280300
784700
781200
740401
700010
F40001
B01801
F81E11
B81F00
781F00
7E9FA8
7F4BE0
ENDCHAR
STARTCHAR peseta
ENCODING 8359
SWIDTH 812 0
DWIDTH 11 0
BBX 10 13 0 -2
BITMAP
040010
280000
784000
740400
701E10
F01E00
F84000
780000
781A90
781E00
780000
7E9000
7F4000
ENDCHAR
STARTCHAR dong
ENCODING 8363
SWIDTH 782 0
DWIDTH 11 0
BBX 10 16 0 -5
BITMAP
000510
001400
009040
01D000
02FC10
054040
241400
743C00
B43C00
B40000
BD5540
BEAA40
2C0000
2C0000
3FFF40
2AA900
ENDCHAR
STARTCHAR Euro
ENCODING 8364
SWIDTH 748 0
DWIDTH 10 0
BBX 10 13 0 -2
BITMAP
004000
050000
1C0000
380A90
744040
B80A40
B40000
B51400
B80A40
7C0000
3E0000
2FEA90
0BFF80
ENDCHAR
STARTCHAR peso
ENCODING 8369
SWIDTH 812 0
DWIDTH 11 0
BBX 12 13 0 -2
BITMAP
040010
280000
740000
700410
F41E04
F00510
F84009
F80014
781A80
781E00
780000
7E9000
7F4000
ENDCHAR
STARTCHAR guarani
ENCODING 8370
SWIDTH 788 0
DWIDTH 11 0
BBX 11 15 0 -3
BITMAP
001000
008050
000400
140010
341FD0
741A40
B40500
B41D00
B80000
781440
7E4004
2FD0A0
07EA80
02F800
005000
ENDCHAR
STARTCHAR cedi
ENCODING 8373
SWIDTH 728 0
DWIDTH 10 0
BBX 10 14 0 -2
BITMAP
001000
008040
000400
140000
340A90
741F40
B40000
B40000
B40000
780400
7E4010
2FD090
07FA40
02F800
ENDCHAR
STARTCHAR indianrupee
ENCODING 8377
SWIDTH 713 0
DWIDTH 10 0
BBX 10 13 0 -2
BITMAP
040010
341400
B90010
BA8040
740400
BE8090
B40040
740410
BEA400
BFF400
00B400
00BE90
007F40
ENDCHAR
STARTCHAR turkishlira
ENCODING 8378
SWIDTH 795 0
DWIDTH 11 0
BBX 11 13 0 -2
BITMAP
041000
240000
740000
B44000
A01400
F44000
E11A00
F41E00
F40904
B44004
B40010
BEAA80
7FF900
ENDCHAR
STARTCHAR ruble
ENCODING 8381
SWIDTH 782 0
DWIDTH 11 0
BBX 11 13 0 -2
BITMAP
040000
280000
784000
781900
781E04
780004
784014
740AE0
700380
704100
F41400
BE9000
7F4000
ENDCHAR
STARTCHAR liter
ENCODING 8467
SWIDTH 749 0
DWIDTH 10 0
BBX 10 12 0 -2
BITMAP
000010
184110
741800
742800
B40000
B44010
B41640
B40540
B80000
7E0000
3FFF40
06A800
ENDCHAR
STARTCHAR uni2117
ENCODING 8471
SWIDTH 967 0
DWIDTH 14 0
BBX 13 14 0 -3
BITMAP
01400500
096FF940
29D55D40
75C40640
75C24640
B5C25640
B5C40A40
B5C1AE40
B5C25E40
79E41D40
79641500
7E400500
2FFAB800
06FF9000
ENDCHAR
STARTCHAR uni2120
ENCODING 8480
SWIDTH 1003 0
DWIDTH 14 0
BBX 13 8 0 2
BITMAP
04060500
345A1400
B51A0400
B9161100
B5561E00
740A1E00
BFEFAFC0
6A5A1A00
ENDCHAR
STARTCHAR trademark
ENCODING 8482
SWIDTH 1003 0
DWIDTH 14 0
BBX 13 8 0 2
BITMAP
20020500
F4161400
FD2E0400
6D2E1100
2D2E1E00
2D2E1E00
2FAFAFC0
1A1A1A00
ENDCHAR
STARTCHAR Omega
ENCODING 8486
SWIDTH 877 0
DWIDTH 12 0
BBX 12 12 0 -2
BITMAP
010004
081040
280600
380F40
780B40
780B40
780B40
744A11
701500
B40500
BFFFFD
6A9AA4
ENDCHAR
STARTCHAR estimated
ENCODING 8494
SWIDTH 815 0
DWIDTH 11 0
BBX 11 11 0 -2
BITMAP
140040
741900
B41900
B40010
B40000
B41FF4
B40550
B80000
7E0000
3FFFD0
06AA00
ENDCHAR
STARTCHAR onethird
ENCODING 8531
SWIDTH 1269 0
DWIDTH 18 0
BBX 17 13 0 -2
BITMAP
0400110000
3440800000
7802C10000
7E02810000
1E03820000
1E07430000
190643E400
2402078140
BEAB07FC00
BFFE070000
000E0B0000
001FAFAA40
001F8FFD00
ENDCHAR
STARTCHAR twothirds
ENCODING 8532
SWIDTH 1269 0
DWIDTH 18 0
BBX 17 13 0 -2
BITMAP
0400110000
2801800000
7941C10000
7E45810000
1852820000
351B430000
B46643E400
B401078140
BEAA07FC00
BFFE070000
000E0B0000
001FAFAA40
001F8FFD00
ENDCHAR
STARTCHAR oneeighth
ENCODING 8539
SWIDTH 1283 0
DWIDTH 18 0
BBX 18 13 0 -2
BITMAP
0400110000
2440800000
7902C10000
7E02810000
2E03820000
1E07421C00
1502434440
7402061510
BEAB051D00
BFEE090400
000E0A0000
001FAFEA40
001F9BF900
ENDCHAR
STARTCHAR threeeighths
ENCODING 8540
SWIDTH 1293 0
DWIDTH 18 0
BBX 18 13 0 -2
BITMAP
0404110000
3400900000
B542C10000
BE42C10000
6C12810000
2FD1820C00
2401434440
3402421510
BEAB051D00
BFDB050400
000E0A0000
000FAFEA40
001F8BF900
ENDCHAR
STARTCHAR fiveeighths
ENCODING 8541
SWIDTH 1303 0
DWIDTH 18 0
BBX 18 13 0 -2
BITMAP
0401100000
3401900000
742AD00000
7401C10000
7800C14000
7FE0820D00
7400834000
7402421510
BEAB461E00
BFEB060400
000B0B0000
000FAFEA40
000FCBF900
ENDCHAR
STARTCHAR seveneighths
ENCODING 8542
SWIDTH 1241 0
DWIDTH 17 0
BBX 17 13 0 -2
BITMAP
1401400000
7001800000
BA91400000
BFD1440000
0502050040
1C1B092400
3C1E090040
3C1E080040
3E9D083800
3E2D181000
002C1C0000
003EBFA900
003F6FF400
ENDCHAR
STARTCHAR arrowleft
ENCODING 8592
SWIDTH 1100 0
DWIDTH 15 0
BBX 11 10 2 -1
BITMAP
000400
000000
010440
040000
740000
FE04A4
7FD0E0
0BF800
01FD00
002400
ENDCHAR
STARTCHAR arrowup
ENCODING 8593
SWIDTH 1100 0
DWIDTH 15 0
BBX 11 11 2 -1
BITMAP
000400
001000
008040
024000
060000
080404
2E90A4
7FD0E0
06D040
02E900
02F800
ENDCHAR
STARTCHAR arrowright
ENCODING 8594
SWIDTH 1100 0
DWIDTH 15 0
BBX 10 10 2 -1
BITMAP
005400
02C000
068410
240400
B40000
BA8410
BFC140
02D500
02E000
014000
ENDCHAR
STARTCHAR arrowdown
ENCODING 8595
SWIDTH 1100 0
DWIDTH 15 0
BBX 11 11 2 -1
BITMAP
001000
009000
02D000
055004
2C0404
7E0000
2F4000
0FC040
07E000
02F800
00E000
ENDCHAR
STARTCHAR arrowupleft
ENCODING 8598
SWIDTH 1100 0
DWIDTH 15 0
BBX 9 10 3 -1
BITMAP
100000
700040
F40400
F41000
B84000
780000
7C7400
3EFD00
287800
001000
ENDCHAR
STARTCHAR arrowupright
ENCODING 8599
SWIDTH 1100 0
DWIDTH 15 0
BBX 8 8 3 0
BITMAP
0400
3800
BE10
3D04
1400
7438
FEBE
3D28
ENDCHAR
STARTCHAR arrowdownright
ENCODING 8600
SWIDTH 1100 0
DWIDTH 15 0
BBX 9 10 3 -1
BITMAP
010100
141400
740000
FD0400
7E1000
180100
390000
BFFA40
1AFF40
000400
ENDCHAR
STARTCHAR arrowdownleft
ENCODING 8601
SWIDTH 1100 0
DWIDTH 15 0
BBX 9 10 3 -1
BITMAP
010100
081400
380000
384000
740000
750400
B00140
F6BE00
FE9400
500000
ENDCHAR
STARTCHAR uni21AA
ENCODING 8618
SWIDTH 1100 0
DWIDTH 15 0
BBX 12 12 2 -2
BITMAP
040000
701550
B0BFD0
F06540
F07400
F06404
F40101
BD0040
7FF414
1AB440
00B900
00E000
ENDCHAR
STARTCHAR uni21AB
ENCODING 8619
SWIDTH 1100 0
DWIDTH 15 0
BBX 11 13 2 -2
BITMAP
010000
1D0000
2D5540
2FFFC0
1556C0
0042C0
000280
105010
B41004
FE03E0
6FD140
0BF900
01B400
ENDCHAR
STARTCHAR uni21B0
ENCODING 8624
SWIDTH 1100 0
DWIDTH 15 0
BBX 12 11 1 -2
BITMAP
001000
004040
040401
2D0400
7F80D0
1FE4E0
02FEA0
007EE0
0001E0
0001FD
0000A4
ENDCHAR
STARTCHAR uni21B1
ENCODING 8625
SWIDTH 1100 0
DWIDTH 15 0
BBX 11 12 2 -2
BITMAP
001000
00B040
00A400
040100
240100
747414
B47040
B47500
B46000
B44000
BF0000
680000
ENDCHAR
STARTCHAR uni21B2
ENCODING 8626
SWIDTH 1100 0
DWIDTH 15 0
BBX 11 12 2 -2
BITMAP
000040
000280
000780
001280
010380
001010
605004
FD0290
BF8340
1FE400
02F800
005000
ENDCHAR
STARTCHAR uni21B3
ENCODING 8627
SWIDTH 1100 0
DWIDTH 15 0
BBX 11 12 2 -2
BITMAP
100000
B00000
F01000
F0A000
F0B000
F10100
F40140
BEA014
6FF050
00E500
01F400
018000
ENDCHAR
STARTCHAR partialdiff
ENCODING 8706
SWIDTH 792 0
DWIDTH 11 0
BBX 11 12 0 -2
BITMAP
050010
1D0004
2E5400
2FA900
080040
240040
742D00
B41800
B44000
BD0010
7FEA80
1BF900
ENDCHAR
STARTCHAR Delta
ENCODING 8710
SWIDTH 830 0
DWIDTH 12 0
BBX 11 12 0 -2
BITMAP
010000
0A1000
0D0400
1D0D00
2C0D00
381E00
341E00
741500
B40000
B40000
BFFFF4
6AAA90
ENDCHAR
STARTCHAR product
ENCODING 8719
SWIDTH 859 0
DWIDTH 12 0
BBX 11 12 0 -2
BITMAP
140000
784010
780500
781F00
781F00
780F00
780F00
780F00
780F00
781F00
7FDFF8
2A0690
ENDCHAR
STARTCHAR summation
ENCODING 8721
SWIDTH 750 0
DWIDTH 11 0
BBX 10 13 0 -3
BITMAP
140000
780000
780550
7C0280
7F0000
2FC400
0B4000
050000
140400
740000
B40000
BEAA90
BFFF80
ENDCHAR
STARTCHAR minus
ENCODING 8722
SWIDTH 834 0
DWIDTH 12 0
BBX 11 4 0 2
BITMAP
180000
780000
7EAAA4
7FFFD0
ENDCHAR
STARTCHAR uni2215
ENCODING 8725
SWIDTH 417 0
DWIDTH 6 0
BBX 6 13 0 -2
BITMAP
0110
0D00
2C00
2C00
3800
3800
7400
7400
B000
B000
E000
FA00
F800
ENDCHAR
STARTCHAR uni2219
ENCODING 8729
SWIDTH 464 0
DWIDTH 7 0
BBX 6 6 0 1
BITMAP
0400
2400
B400
B400
BEA0
BF80
ENDCHAR
STARTCHAR radical
ENCODING 8730
SWIDTH 841 0
DWIDTH 12 0
BBX 9 13 0 -2
BITMAP
000080
000380
000740
000B00
101B00
B00E00
F40900
FE0400
6F0000
0F4000
0B8000
07FF80
02A900
ENDCHAR
STARTCHAR infinity
ENCODING 8734
SWIDTH 978 0
DWIDTH 14 0
BBX 13 10 0 -1
BITMAP
00010040
14004000
74252400
B4353800
B4393800
B5101000
B8000000
BE9B9540
2FEFF800
01014000
ENDCHAR
STARTCHAR integral
ENCODING 8747
SWIDTH 574 0
DWIDTH 8 0
BBX 8 14 0 -3
BITMAP
0100
0610
1D05
2D04
2D00
2D00
2D00
2D00
2D00
2800
6040
E010
FA80
F900
ENDCHAR
STARTCHAR approxequal
ENCODING 8776
SWIDTH 834 0
DWIDTH 12 0
BBX 11 9 0 0
BITMAP
000004
180000
780000
7FFEA4
7A5A94
180000
780000
7EFEA4
7ABF80
ENDCHAR
STARTCHAR notequal
ENCODING 8800
SWIDTH 834 0
DWIDTH 12 0
BBX 11 12 0 -2
BITMAP
001440
042004
180100
780000
7FD0B4
6E9090
180000
780400
7E41A4
7FD6E0
07F400
014000
ENDCHAR
STARTCHAR lessequal
ENCODING 8804
SWIDTH 814 0
DWIDTH 11 0
BBX 10 10 0 -2
BITMAP
080010
2806D0
380640
7C0000
3E4000
2D5000
280000
780000
7FFFE0
2AAA40
ENDCHAR
STARTCHAR greaterequal
ENCODING 8805
SWIDTH 814 0
DWIDTH 11 0
BBX 9 12 1 -2
BITMAP
200000
F00000
F40000
FFA400
6FA400
100000
700140
F00500
F00000
F00000
FFFF80
AAAA00
ENDCHAR
STARTCHAR block
ENCODING 9608
SWIDTH 1000 0
DWIDTH 14 0
BBX 16 16 -1 -3
BITMAP
55555555
BFFFFFFE
BFFFFFFE
BFFFFFFE
BFFFFFFE
BFFFFFFE
BFFFFFFE
BFFFFFFE
BFFFFFFE
BFFFFFFE
BFFFFFFE
BFFFFFFE
BFFFFFFE
BFFFFFFE
BFFFFFFE
55555555
ENDCHAR
STARTCHAR blacksquare
ENCODING 9632
SWIDTH 1100 0
DWIDTH 15 0
BBX 9 8 3 0
BITMAP
140000
780000
780000
780000
780000
780000
7FFF40
6AA800
ENDCHAR
STARTCHAR blackuppointingtriangle
ENCODING 9650
SWIDTH 1100 0
DWIDTH 15 0
BBX 9 8 3 0
BITMAP
004000
024000
060000
0C0000
240400
700000
BFFF80
AAAA00
ENDCHAR
STARTCHAR whiteuppointingtriangle
ENCODING 9651
SWIDTH 1100 0
DWIDTH 15 0
BBX 9 8 4 1
BITMAP
004000
011000
010400
040400
100100
100100
400040
155500
ENDCHAR
STARTCHAR blackrightpointingtriangle
ENCODING 9654
SWIDTH 1100 0
DWIDTH 15 0
BBX 9 10 3 -1
BITMAP
140000
740000
740000
745000
744040
740500
742400
794000
780000
100000
ENDCHAR
STARTCHAR whiterightpointingtriangle
ENCODING 9655
SWIDTH 1100 0
DWIDTH 15 0
BBX 7 8 5 1
BITMAP
5400
4100
4050
4004
4004
4050
4500
5000
ENDCHAR
STARTCHAR blackdownpointingtriangle
ENCODING 9660
SWIDTH 1100 0
DWIDTH 15 0
BBX 10 8 3 0
BITMAP
600010
F44400
BC1000
7E0000
2F4000
0FC400
07E000
024000
ENDCHAR
STARTCHAR whitedownpointingtriangle
ENCODING 9661
SWIDTH 1100 0
DWIDTH 15 0
BBX 9 7 4 2
BITMAP
155500
400040
100100
040100
040400
011000
015000
ENDCHAR
STARTCHAR blackleftpointingtriangle
ENCODING 9664
SWIDTH 1100 0
DWIDTH 15 0
BBX 9 10 3 -1
BITMAP
000040
000000
000000
041000
280000
7F4000
2FF400
02FE40
007E00
000400
ENDCHAR
STARTCHAR whiteleftpointingtriangle
ENCODING 9665
SWIDTH 1100 0
DWIDTH 15 0
BBX 7 8 5 1
BITMAP
0014
0144
1404
4004
5004
0404
0144
0014
ENDCHAR
STARTCHAR blackdiamond
ENCODING 9670
SWIDTH 1100 0
DWIDTH 15 0
BBX 11 10 2 -1
BITMAP
001100
004040
010410
041004
281004
7E0410
2F8040
0BE100
02F800
009000
ENDCHAR
STARTCHAR lozenge
ENCODING 9674
SWIDTH 831 0
DWIDTH 12 0
BBX 9 12 0 -2
BITMAP
014000
070000
090040
1C4900
281E00
381E00
7C4900
3D0040
2F0000
1F4000
0BFF40
06A900
ENDCHAR
STARTCHAR uni25D6
ENCODING 9686
SWIDTH 546 0
DWIDTH 8 0
BBX 9 16 0 -3
BITMAP
001500
01BF40
0BFF40
2FFF40
7FFF40
7FFF40
BFFF40
BFFF40
BFFF40
BFFF40
7FFF40
7FFF40
1FFF40
0BFF40
01BF40
001500
ENDCHAR
STARTCHAR uni25D7
ENCODING 9687
SWIDTH 546 0
DWIDTH 8 0
BBX 9 16 -1 -3
BITMAP
550000
BF9000
BFF400
BFFD00
BFFE00
BFFF40
BFFF40
BFFF40
BFFF40
BFFF40
BFFF40
BFFE00
BFFD00
BFE400
BF9000
540000
ENDCHAR
STARTCHAR uni25DC
ENCODING 9692
SWIDTH 1280 0
DWIDTH 18 0
BBX 16 16 1 -3
BITMAP
00001555
0006FFFD
002FFFFD
01BFFFFD
02FFFFFD
0BFFFFFD
1FFFFFFD
2FFFFFFD
3FFFFFFD
7FFFFFFD
7FFFFFFD
7FFFFFFD
7FFFFFFD
7FFFFFFD
7FFFFFFD
55555555
ENDCHAR
STARTCHAR uni25DD
ENCODING 9693
SWIDTH 1280 0
DWIDTH 18 0
BBX 16 16 1 -3
BITMAP
55540000
7FFF9000
7FFFF800
7FFFFE40
7FFFFF80
7FFFFFE0
7FFFFFF4
7FFFFFF8
7FFFFFF8
7FFFFFFC
7FFFFFFD
7FFFFFFD
7FFFFFFD
7FFFFFFD
7FFFFFFD
55555554
ENDCHAR
STARTCHAR uni25DE
ENCODING 9694
SWIDTH 1280 0
DWIDTH 18 0
BBX 16 16 1 -3
BITMAP
55555555
7FFFFFFD
7FFFFFFD
7FFFFFFD
7FFFFFFD
7FFFFFFD
7FFFFFFC
7FFFFFF8
7FFFFFF4
7FFFFFF4
7FFFFFE0
7FFFFF80
7FFFFE00
7FFFF800
7FFE5000
55500000
ENDCHAR
STARTCHAR uni25DF
ENCODING 9695
SWIDTH 1280 0
DWIDTH 18 0
BBX 16 16 1 -3
BITMAP
55555555
7FFFFFFD
7FFFFFFD
7FFFFFFD
7FFFFFFD
7FFFFFFD
7FFFFFFD
2FFFFFFD
2FFFFFFD
1FFFFFFD
0BFFFFFD
02FFFFFD
01BFFFFD
002FFFFD
0006BFFD
00000554
ENDCHAR
STARTCHAR uni261A
ENCODING 9754
SWIDTH 1100 0
DWIDTH 15 0
BBX 13 10 1 -1
BITMAP
00000400
04001400
79500000
BFD00000
17D00000
02E00000
01F55400
01FFF940
00557D00
00001000
ENDCHAR
STARTCHAR uni261B
ENCODING 9755
SWIDTH 1100 0
DWIDTH 15 0
BBX 13 10 1 -1
BITMAP
04000000
28400040
78000540
78001E00
78000400
78001000
78555000
7DBF4000
7E540000
10000000
ENDCHAR
STARTCHAR uni261C
ENCODING 9756
SWIDTH 1100 0
DWIDTH 15 0
BBX 11 8 3 1
BITMAP
005054
550558
554058
014058
010058
014058
015558
000054
ENDCHAR
STARTCHAR uni261D
ENCODING 9757
SWIDTH 1100 0
DWIDTH 15 0
BBX 8 11 5 0
BITMAP
1000
4400
4400
4900
4554
4044
4004
4004
1004
5555
AAA9
ENDCHAR
STARTCHAR uni261E
ENCODING 9758
SWIDTH 1100 0
DWIDTH 15 0
BBX 11 8 3 1
BITMAP
641400
554154
540154
540540
540100
540500
555500
640000
ENDCHAR
STARTCHAR uni261F
ENCODING 9759
SWIDTH 1100 0
DWIDTH 15 0
BBX 8 11 5 0
BITMAP
5554
AAA9
5555
1004
4004
4004
0404
1514
0154
0014
0014
ENDCHAR
STARTCHAR uni27A1
ENCODING 10145
SWIDTH 650 0
DWIDTH 9 0
BBX 10 22 -1 -6
BITMAP
140000
2D0000
2F4000
6F8000
BFE000
BFF400
BFFD00
BFFE00
BFFF80
BFFFD0
BFFFE0
BFFFE0
BFFFD0
BFFF80
BFFE00
BFF900
BFF400
BFE000
6F8000
2E4000
2D0000
040000
ENDCHAR
STARTCHAR uni2B1B
ENCODING 11035
SWIDTH 1280 0
DWIDTH 18 0
BBX 16 16 1 -3
BITMAP
55555555
7FFFFFFD
7FFFFFFD
7FFFFFFD
7FFFFFFD
7FFFFFFD
7FFFFFFD
7FFFFFFD
7FFFFFFD
7FFFFFFD
7FFFFFFD
7FFFFFFD
7FFFFFFD
7FFFFFFD
7FFFFFFD
55555554
ENDCHAR
STARTCHAR uni2B24
ENCODING 11044
SWIDTH 1280 0
DWIDTH 18 0
BBX 16 16 1 -3
BITMAP
001AA400
01BFFE40
0BFFFFE0
2FFFFFF4
7FFFFFF8
7FFFFFFD
BFFFFFFE
BFFFFFFE
FFFFFFFE
BFFFFFFE
BFFFFFFD
7FFFFFFD
2FFFFFF8
0BFFFFE0
02FFFF80
006BE900
ENDCHAR
STARTCHAR A.salt
ENCODING 57600
SWIDTH 836 0
DWIDTH 12 0
BBX 11 12 0 -2
BITMAP
010000
180000
380900
781F00
781E00
780000
784010
781A00
781F00
781F00
7F9FF4
6A0A90
ENDCHAR
STARTCHAR Agrave.salt
ENCODING 57601
SWIDTH 836 0
DWIDTH 12 0
BBX 11 16 0 -2
BITMAP
010000
060010
0F0000
0FE950
090000
180000
380900
781F00
781E00
780000
784010
781A00
781F00
781F00
7F9FF4
6A0A90
ENDCHAR
STARTCHAR Aacute.salt
ENCODING 57602
SWIDTH 836 0
DWIDTH 12 0
BBX 11 15 0 -2
BITMAP
010000
0B0010
0F9A90
0D0000
180000
380900
781F00
781E00
780000
784010
781A00
781F00
781F00
7F9FF4
6A0A90
ENDCHAR
STARTCHAR Acircumflex.salt
ENCODING 57603
SWIDTH 836 0
DWIDTH 12 0
BBX 11 15 0 -2
BITMAP
010010
0A0000
0FAA90
0D0000
180000
380900
781F00
781E00
780000
784010
781A00
781F00
781F00
7F9FF4
6A0A90
ENDCHAR
STARTCHAR Atilde.salt
ENCODING 57604
SWIDTH 836 0
DWIDTH 12 0
BBX 11 15 0 -2
BITMAP
010000
0A0000
0FA550
0D0000
180000
380900
781F00
781E00
780000
784010
781A00
781F00
781F00
7F9FF4
6A0A90
ENDCHAR
STARTCHAR Adieresis.salt
ENCODING 57605
SWIDTH 836 0
DWIDTH 12 0
BBX 11 15 0 -2
BITMAP
050800
1D0800
1F9990
1D0000
180000
380900
781F00
781E00
780000
784010
781A00
781F00
781F00
7F9FF4
6A0A90
ENDCHAR
STARTCHAR Aring.salt
ENCODING 57606
SWIDTH 836 0
DWIDTH 12 0
BBX 11 15 0 -2
BITMAP
010000
0A0900
1E0D00
1D1000
180000
380900
781F00
781E00
780000
784010
781A00
781F00
781F00
7F9FF4
6A0A90
ENDCHAR
STARTCHAR Amacron.salt
ENCODING 57607
SWIDTH 836 0
DWIDTH 12 0
BBX 11 15 0 -2
BITMAP
020010
0A0000
0F9590
0D0000
180000
380900
781F00
781E00
780000
784010
781A00
781F00
781F00
7F9FF4
6A0A90
ENDCHAR
STARTCHAR Abreve.salt
ENCODING 57608
SWIDTH 836 0
DWIDTH 12 0
BBX 11 16 0 -2
BITMAP
010110
0A0500
1F0010
0FD580
090000
180000
380900
781F00
781E00
780000
784010
781A00
781F00
781F00
7F9FF4
6A0A90
ENDCHAR
STARTCHAR Aogonek.salt
ENCODING 57609
SWIDTH 836 0
DWIDTH 12 0
BBX 11 15 0 -5
BITMAP
010000
180000
380900
781F00
781E00
780000
784010
781A00
781F00
781E00
7F9E04
6A1E00
001F54
001FE0
000140
ENDCHAR
STARTCHAR E.salt
ENCODING 57610
SWIDTH 743 0
DWIDTH 10 0
BBX 10 12 0 -2
BITMAP
010000
080000
340550
741A80
B40000
B40000
B41E40
B40510
780000
7E0000
2FFFD0
06AA40
ENDCHAR
STARTCHAR Egrave.salt
ENCODING 57611
SWIDTH 743 0
DWIDTH 10 0
BBX 10 16 0 -2
BITMAP
010000
090000
2E0000
2FFA90
190000
080000
340550
741A80
B40000
B40000
B41E40
B40510
780000
7E0000
2FFFD0
06AA40
ENDCHAR
STARTCHAR Eacute.salt
ENCODING 57612
SWIDTH 743 0
DWIDTH 10 0
BBX 10 15 0 -2
BITMAP
010000
0A0010
1FAB80
1D0000
080000
340550
741A80
B40000
B40000
B41E40
B40510
780000
7E0000
2FFFD0
06AA40
ENDCHAR
STARTCHAR Ecircumflex.salt
ENCODING 57613
SWIDTH 743 0
DWIDTH 10 0
BBX 10 15 0 -2
BITMAP
010000
0A0400
1EBF90
1D0000
180000
340550
741A80
B40000
B40000
B41E40
B40510
780000
7E0000
2FFFD0
06AA40
ENDCHAR
STARTCHAR Edieresis.salt
ENCODING 57614
SWIDTH 743 0
DWIDTH 10 0
BBX 10 15 0 -2
BITMAP
090800
2D0800
2EAE90
2D0000
080000
340550
741A80
B40000
B40000
B41E40
B40510
780000
7E0000
2FFFD0
06AA40
ENDCHAR
STARTCHAR Emacron.salt
ENCODING 57615
SWIDTH 743 0
DWIDTH 10 0
BBX 10 15 0 -2
BITMAP
010010
0E0000
1FAA90
1D0000
080000
340550
741A80
B40000
B40000
B41E40
B40510
780000
7E0000
2FFFD0
06AA40
ENDCHAR
STARTCHAR Ebreve.salt
ENCODING 57616
SWIDTH 743 0
DWIDTH 10 0
BBX 10 16 0 -2
BITMAP
011100
0A0400
1F0010
1FE680
090000
080000
340550
741A80
B40000
B40000
B41E40
B40510
780000
7E0000
2FFFD0
06AA40
ENDCHAR
STARTCHAR Edotaccent.salt
ENCODING 57617
SWIDTH 743 0
DWIDTH 10 0
BBX 10 16 0 -2
BITMAP
001000
00C000
03C000
03EA40
010000
080000
340550
741A80
B40000
B40000
B41E40
B40510
780000
7E0000
2FFFD0
06AA40
ENDCHAR
STARTCHAR Eogonek.salt
ENCODING 57618
SWIDTH 743 0
DWIDTH 10 0
BBX 10 15 0 -5
BITMAP
010000
080000
340550
741A80
B40000
B40000
B41E40
B40510
780000
7E0000
2FF810
06B800
007D50
007F80
000500
ENDCHAR
STARTCHAR Ecaron.salt
ENCODING 57619
SWIDTH 743 0
DWIDTH 10 0
BBX 10 16 0 -2
BITMAP
010010
0A0000
1E4000
1FE680
050000
080000
340550
741A80
B40000
B40000
B41E40
B40510
780000
7E0000
2FFFD0
06AA40
ENDCHAR
STARTCHAR I.salt
ENCODING 57620
SWIDTH 471 0
DWIDTH 7 0
BBX 6 12 0 -2
BITMAP
1800
7800
7800
7800
7800
7800
7800
7800
7800
7800
7FD0
2A00
ENDCHAR
STARTCHAR Igrave.salt
ENCODING 57621
SWIDTH 471 0
DWIDTH 7 0
BBX 7 16 0 -2
BITMAP
0400
2400
B400
BFA4
7810
7800
7800
7800
7800
7800
7800
7800
7800
7800
7FD0
2A00
ENDCHAR
STARTCHAR Iacute.salt
ENCODING 57622
SWIDTH 471 0
DWIDTH 7 0
BBX 7 16 0 -2
BITMAP
0004
1400
7404
BAB4
B800
7800
7800
7800
7800
7800
7800
7800
7800
7800
7FD0
2A00
ENDCHAR
STARTCHAR Icircumflex.salt
ENCODING 57623
SWIDTH 471 0
DWIDTH 7 0
BBX 7 15 0 -2
BITMAP
1004
A000
FBF4
A800
7800
7800
7800
7800
7800
7800
7800
7800
7800
7FD0
2A00
ENDCHAR
STARTCHAR Idieresis.salt
ENCODING 57624
SWIDTH 471 0
DWIDTH 7 0
BBX 7 15 0 -2
BITMAP
5080
D080
FAE8
A810
7800
7800
7800
7800
7800
7800
7800
7800
7800
7FD0
2A00
ENDCHAR
STARTCHAR Itilde.salt
ENCODING 57625
SWIDTH 471 0
DWIDTH 7 0
BBX 7 15 0 -2
BITMAP
1000
A000
BAA4
6800
7800
7800
7800
7800
7800
7800
7800
7800
7800
7FD0
2A00
ENDCHAR
STARTCHAR Imacron.salt
ENCODING 57626
SWIDTH 471 0
DWIDTH 7 0
BBX 7 15 0 -2
BITMAP
2004
B000
FAA0
F800
7800
7800
7800
7800
7800
7800
7800
7800
7800
7FD0
2A00
ENDCHAR
STARTCHAR Ibreve.salt
ENCODING 57627
SWIDTH 471 0
DWIDTH 7 0
BBX 8 16 -1 -2
BITMAP
0451
2810
7C00
7FA8
2E00
1E00
1E00
1E00
1E00
1E00
1E00
1E00
1E00
1E00
1FF4
0A80
ENDCHAR
STARTCHAR Iogonek.salt
ENCODING 57628
SWIDTH 471 0
DWIDTH 7 0
BBX 6 15 0 -5
BITMAP
0800
3800
7800
7800
7800
7800
7800
7800
7800
7800
7410
7400
BD50
7F80
0500
ENDCHAR
STARTCHAR Idotaccent.salt
ENCODING 57629
SWIDTH 471 0
DWIDTH 7 0
BBX 6 16 0 -2
BITMAP
0400
1800
7800
7E90
7800
7800
7800
7800
7800
7800
7800
7800
7800
7800
7FD0
2A00
ENDCHAR
STARTCHAR L.salt
ENCODING 57630
SWIDTH 715 0
DWIDTH 10 0
BBX 10 12 0 -2
BITMAP
140000
780000
780000
780000
780000
780000
780000
780010
784000
780010
7FFFD0
2AAA00
ENDCHAR
STARTCHAR Lacute.salt
ENCODING 57631
SWIDTH 715 0
DWIDTH 10 0
BBX 10 15 0 -2
BITMAP
040000
380040
7EAE00
781400
780000
780000
780000
780000
780000
780000
780010
784000
780010
7FFFD0
2AAA00
ENDCHAR
STARTCHAR Lcommaaccent.salt
ENCODING 57632
SWIDTH 715 0
DWIDTH 10 0
BBX 10 17 0 -7
BITMAP
140000
780000
780000
780000
780000
780000
780000
780010
784000
780010
7FEAD0
2B8000
078100
07E500
07C500
03F800
029000
ENDCHAR
STARTCHAR Lcaron.salt
ENCODING 57633
SWIDTH 715 0
DWIDTH 10 0
BBX 10 12 0 -2
BITMAP
140500
781C00
781C00
781D50
781F40
781500
780000
780010
784000
780010
7FFFD0
2AAA00
ENDCHAR
STARTCHAR Ldot.salt
ENCODING 57634
SWIDTH 715 0
DWIDTH 10 0
BBX 10 12 0 -2
BITMAP
140000
780000
780000
781800
781C00
781E90
781F80
780510
784000
780010
7FFFD0
2AAA00
ENDCHAR
STARTCHAR Lslash.salt
ENCODING 57635
SWIDTH 725 0
DWIDTH 10 0
BBX 10 12 0 -2
BITMAP
080000
380000
780400
740000
704000
F00400
F80000
B80010
784000
780000
7FFFD0
2AAA40
ENDCHAR
STARTCHAR M.salt
ENCODING 57636
SWIDTH 1170 0
DWIDTH 16 0
BBX 16 12 0 -2
BITMAP
01000000
18004000
38091240
781E0780
781E0780
781E0780
781E0780
781E0780
781E0780
781E0781
7FEFFBFD
6A1A86A0
ENDCHAR
STARTCHAR N.salt
ENCODING 57637
SWIDTH 846 0
DWIDTH 12 0
BBX 11 12 0 -2
BITMAP
010004
180000
380900
781F00
781F00
780F00
780F00
780F00
780F00
781F00
7FCFF8
6A0A90
ENDCHAR
STARTCHAR Ntilde.salt
ENCODING 57638
SWIDTH 846 0
DWIDTH 12 0
BBX 11 15 0 -2
BITMAP
010000
0B0000
0FA550
0D0000
180000
380900
781F00
781F00
780F00
780F00
780F00
780F00
781F00
7FCFF8
6A0A90
ENDCHAR
STARTCHAR Nacute.salt
ENCODING 57639
SWIDTH 846 0
DWIDTH 12 0
BBX 11 16 0 -2
BITMAP
000010
014000
070010
0F9A90
0D0000
180000
380900
781F00
781F00
780F00
780F00
780F00
780F00
781F00
7FCFF8
6A0A90
ENDCHAR
STARTCHAR Ncommaaccent.salt
ENCODING 57640
SWIDTH 846 0
DWIDTH 12 0
BBX 11 17 0 -7
BITMAP
010004
180000
380900
781F00
781F00
780F00
780F00
780F00
780F00
781F00
7FDAF8
6AD050
02D000
02E400
02D100
01FD00
01A000
ENDCHAR
STARTCHAR Ncaron.salt
ENCODING 57641
SWIDTH 846 0
DWIDTH 12 0
BBX 11 16 0 -2
BITMAP
010010
0B0000
0F4010
0FE580
050000
180000
380900
781F00
781F00
780F00
780F00
780F00
780F00
781F00
7FCFF8
6A0A90
ENDCHAR
STARTCHAR W.salt
ENCODING 57642
SWIDTH 1170 0
DWIDTH 16 0
BBX 15 12 0 -2
BITMAP
14050140
781E0780
781E0780
781E0780
781E0780
781E0780
781E0780
78041100
78000010
7D005004
3FFBFEA0
0AE9BE40
ENDCHAR
STARTCHAR Wcircumflex.salt
ENCODING 57643
SWIDTH 1170 0
DWIDTH 16 0
BBX 15 15 0 -2
BITMAP
00140000
00700000
00BAFE00
141A0540
781E0780
781E0780
781E0780
781E0780
781E0780
781E0780
78041100
78000010
7D005004
3FFBFEA0
0AE9BE40
ENDCHAR
STARTCHAR Wgrave.salt
ENCODING 57644
SWIDTH 1170 0
DWIDTH 16 0
BBX 15 16 0 -2
BITMAP
00040000
00700100
00F40000
00FFA900
141E0540
781E0780
781E0780
781E0780
781E0780
781E0780
781E0780
78041100
78000010
7D005004
3FFBFEA0
0AE9BE40
ENDCHAR
STARTCHAR Wacute.salt
ENCODING 57645
SWIDTH 1170 0
DWIDTH 16 0
BBX 15 15 0 -2
BITMAP
00140000
00740000
00BAAD00
141E0140
781E0780
781E0780
781E0780
781E0780
781E0780
781E0780
78041100
78000010
7D005004
3FFBFEA0
0AE9BE40
ENDCHAR
STARTCHAR Wdieresis.salt
ENCODING 57646
SWIDTH 1170 0
DWIDTH 16 0
BBX 15 15 0 -2
BITMAP
00605000
00E05000
01FAAA40
141E0540
781E0780
781E0780
781E0780
781E0780
781E0780
781E0780
78041100
78000010
7D005004
3FFBFEA0
0AE9BE40
ENDCHAR
STARTCHAR X.salt
ENCODING 57647
SWIDTH 837 0
DWIDTH 12 0
BBX 11 12 0 -2
BITMAP
080100
3C0D00
3D0900
2E0400
181000
244000
741A00
741F00
B41F00
B81F00
BFCFF4
6A0A90
ENDCHAR
STARTCHAR Y.salt
ENCODING 57648
SWIDTH 806 0
DWIDTH 11 0
BBX 10 12 0 -2
BITMAP
140200
741E00
B41E00
B41E00
B40500
B84000
BD0010
3FC080
0BC000
03C000
03FE00
02A400
ENDCHAR
STARTCHAR Yacute.salt
ENCODING 57649
SWIDTH 806 0
DWIDTH 11 0
BBX 10 15 0 -2
BITMAP
010000
0A0010
1FAB90
141A00
741E00
B41E00
B41E00
B40500
B84000
BD0010
3FC080
0BC000
03C000
03FE00
02A400
ENDCHAR
STARTCHAR Ycircumflex.salt
ENCODING 57650
SWIDTH 806 0
DWIDTH 11 0
BBX 10 15 0 -2
BITMAP
010010
0A0400
1EBF90
141E00
741E00
B41E00
B41E00
B40500
B84000
BD0010
3FC080
0BC000
03C000
03FE00
02A400
ENDCHAR
STARTCHAR Ydieresis.salt
ENCODING 57651
SWIDTH 806 0
DWIDTH 11 0
BBX 10 15 0 -2
BITMAP
090800
2D0800
2EAE90
242E00
741E00
B41E00
B41E00
B40500
B84000
BD0010
3FC080
0BC000
03C000
03FE00
02A400
ENDCHAR
STARTCHAR Ygrave.salt
ENCODING 57652
SWIDTH 806 0
DWIDTH 11 0
BBX 10 16 0 -2
BITMAP
010000
090000
1E0000
1FFA90
242E00
741E00
B41E00
B41E00
B40500
B84000
BD0010
3FC080
0BC000
03C000
03FE00
02A400
ENDCHAR
STARTCHAR AE.salt
ENCODING 57653
SWIDTH 1113 0
DWIDTH 16 0
BBX 15 12 0 -2
BITMAP
01000000
08001000
38050154
781F02A0
781E1000
78000000
784012D0
781A0140
781F0000
781F0000
7F9FFFF4
6A0AAA90
ENDCHAR
STARTCHAR IJ.salt
ENCODING 57654
SWIDTH 1133 0
DWIDTH 16 0
BBX 15 12 0 -2
BITMAP
18000200
78000B00
78000F00
78000F00
78010F00
780C0F00
781C0F00
781C0500
781D0000
781E4004
7FEFFAD0
2A06BA00
ENDCHAR
STARTCHAR IJ.stack
ENCODING 57655
SWIDTH 1363 0
DWIDTH 19 0
BBX 18 12 0 -2
BITMAP
1400000500
7410002D00
B901402D00
BF41402D00
1B40042D00
0B40242D00
0B40B42D00
0500741400
3410244000
B4002D0010
BFFFBFFB40
6AA91AE900
ENDCHAR
STARTCHAR quoteleft.salt
ENCODING 57656
SWIDTH 407 0
DWIDTH 6 0
BBX 5 6 0 4
BITMAP
0400
2540
7500
B940
BF40
1400
ENDCHAR
STARTCHAR quoteright.salt
ENCODING 57657
SWIDTH 407 0
DWIDTH 6 0
BBX 5 6 0 4
BITMAP
1400
7440
B900
7940
7E00
1400
ENDCHAR
STARTCHAR ampersand.salt
ENCODING 57658
SWIDTH 732 0
DWIDTH 10 0
BBX 10 15 0 -3
BITMAP
001000
008040
010000
090000
2C0550
3D0A80
3D1000
240000
702E40
B01510
B40400
BD0010
7FC090
1BEA00
02F800
ENDCHAR
STARTCHAR caron.2
ENCODING 57659
SWIDTH 600 0
DWIDTH 8 0
BBX 5 6 1 4
BITMAP
0800
3800
7400
7940
BF00
1400
ENDCHAR
STARTCHAR indexup
ENCODING 57660
SWIDTH 1100 0
DWIDTH 15 0
BBX 9 12 3 -2
BITMAP
080000
380000
385000
780000
780000
780000
7C0000
7C0000
340000
B00000
FFFF80
AAA900
ENDCHAR
STARTCHAR indexdown
ENCODING 57661
SWIDTH 1100 0
DWIDTH 15 0
BBX 9 12 3 -2
BITMAP
200000
B40040
FC0040
780000
380000
780000
781500
78BD00
789000
7C0000
3E0000
240000
ENDCHAR
STARTCHAR indexupleft
ENCODING 57662
SWIDTH 1100 0
DWIDTH 15 0
BBX 11 12 2 -2
BITMAP
1C0000
3F0000
2F4000
090000
180010
340040
BD0104
7F4410
1FD040
07C100
02E400
02D000
ENDCHAR
STARTCHAR indexupright
ENCODING 57663
SWIDTH 1100 0
DWIDTH 15 0
BBX 11 11 2 -2
BITMAP
000010
001050
005010
018004
144000
781000
BE0400
2F8140
0BE000
02F900
00B400
ENDCHAR
STARTCHAR indexdownleft
ENCODING 57664
SWIDTH 1100 0
DWIDTH 15 0
BBX 13 11 1 -1
BITMAP
00004000
00051000
001E0400
00244100
00401040
01400400
05000240
14900900
76F90400
F5FE0000
50280000
ENDCHAR
STARTCHAR indexdownright
ENCODING 57665
SWIDTH 1100 0
DWIDTH 15 0
BBX 13 10 1 -1
BITMAP
00100000
00410000
01040000
04100400
20400000
BA400000
BFD01800
17F47F40
01FE6F40
00740400
ENDCHAR
STARTCHAR indexdownleft.outline
ENCODING 57666
SWIDTH 1100 0
DWIDTH 15 0
BBX 12 10 3 0
BITMAP
000400
001A00
001280
0044A0
050128
040049
110054
454140
505500
001400
ENDCHAR
STARTCHAR indexdownright.outline
ENCODING 57667
SWIDTH 1100 0
DWIDTH 15 0
BBX 12 10 3 0
BITMAP
005000
019000
062000
184500
610040
840010
540154
051554
005415
001000
ENDCHAR
STARTCHAR indexupleft.outline
ENCODING 57668
SWIDTH 1100 0
DWIDTH 15 0
BBX 9 12 4 -1
BITMAP
100000
550000
154000
151000
141000
500540
400480
101280
044A00
022800
01A000
014000
ENDCHAR
STARTCHAR indexupright.outline
ENCODING 57669
SWIDTH 1100 0
DWIDTH 15 0
BBX 9 12 4 -1
BITMAP
000140
000440
005100
014500
010100
140140
840040
610140
184100
061400
019400
005000
ENDCHAR
STARTCHAR uni261A.salt
ENCODING 57670
SWIDTH 1100 0
DWIDTH 15 0
BBX 13 9 1 0
BITMAP
00000400
04001400
79500000
BFF00000
15F10400
00FD1800
00BD7D40
002E7D00
002D0000
ENDCHAR
STARTCHAR uni261B.salt
ENCODING 57671
SWIDTH 1100 0
DWIDTH 15 0
BBX 13 10 1 -1
BITMAP
04000000
18400040
78001540
78002E00
78011400
78614000
7EB40000
7EFD0000
00780000
00100000
ENDCHAR
STARTCHAR indexdown.salt
ENCODING 57672
SWIDTH 1100 0
DWIDTH 15 0
BBX 9 12 3 -2
BITMAP
090000
2D4040
2F4040
190000
141000
7B4000
AFE800
07FC00
003C00
003D00
002E00
001800
ENDCHAR
STARTCHAR indexdownleft.salt
ENCODING 57673
SWIDTH 1100 0
DWIDTH 15 0
BBX 13 10 1 -1
BITMAP
00010000
000B0000
00180000
00400040
01400840
06050900
08744400
28FFD000
782BF400
60018000
ENDCHAR
STARTCHAR indexdownright.salt
ENCODING 57674
SWIDTH 1100 0
DWIDTH 15 0
BBX 13 10 1 -1
BITMAP
00100000
00410000
01040000
04100000
28800000
7FC10000
27847440
038EFD00
07E87E00
06401800
ENDCHAR
STARTCHAR indexup.salt
ENCODING 57675
SWIDTH 1100 0
DWIDTH 15 0
BBX 9 12 3 -2
BITMAP
080000
380000
740000
744000
B44100
B41000
B80140
BC0000
740000
B00000
FFFD00
AAA400
ENDCHAR
STARTCHAR indexupleft.salt
ENCODING 57676
SWIDTH 1100 0
DWIDTH 15 0
BBX 11 12 2 -2
BITMAP
084000
3D0000
3F4000
1F4000
060000
0E0044
1D0004
285410
7FF000
65A000
01F800
00A000
ENDCHAR
STARTCHAR indexupright.salt
ENCODING 57677
SWIDTH 1100 0
DWIDTH 15 0
BBX 11 12 2 -2
BITMAP
000040
000100
000000
005040
01C000
044040
280010
7E0544
2F82F4
0BE180
02F400
009000
ENDCHAR
STARTCHAR uni261C.salt
ENCODING 57678
SWIDTH 1100 0
DWIDTH 15 0
BBX 11 8 3 1
BITMAP
015454
540158
554058
001058
005058
005158
001454
001400
ENDCHAR
STARTCHAR uni261D.salt
ENCODING 57679
SWIDTH 1100 0
DWIDTH 15 0
BBX 8 11 5 0
BITMAP
1000
5000
4400
4400
4940
4454
4145
4014
4040
5550
AAA0
ENDCHAR
STARTCHAR uni261E.salt
ENCODING 57680
SWIDTH 1100 0
DWIDTH 15 0
BBX 11 8 3 1
BITMAP
545500
550014
540554
541100
541100
551400
544000
001000
ENDCHAR
STARTCHAR uni261F.salt
ENCODING 57681
SWIDTH 1100 0
DWIDTH 15 0
BBX 8 11 5 0
BITMAP
0554
2AA9
1555
0404
1004
4541
5441
0154
0014
0014
0014
ENDCHAR
STARTCHAR indexdownleft.salt_outline
ENCODING 57682
SWIDTH 1100 0
DWIDTH 15 0
BBX 11 9 3 1
BITMAP
000400
001A00
001580
005560
010058
040054
115440
454440
501140
ENDCHAR
STARTCHAR indexdownright.salt_outline
ENCODING 57683
SWIDTH 1100 0
DWIDTH 15 0
BBX 11 10 3 0
BITMAP
004000
029000
0A1000
285500
A10040
580040
041510
044444
051014
010000
ENDCHAR
STARTCHAR indexupleft.salt_outline
ENCODING 57684
SWIDTH 1100 0
DWIDTH 15 0
BBX 9 12 4 -1
BITMAP
100000
440000
114000
045000
051000
110400
150540
501580
555600
005800
01A000
004000
ENDCHAR
STARTCHAR indexupright.salt_outline
ENCODING 57685
SWIDTH 1100 0
DWIDTH 15 0
BBX 9 12 4 -1
BITMAP
000100
000440
001100
004400
011400
041100
540500
610140
285540
0A1000
029000
004000
ENDCHAR
STARTCHAR block.v
ENCODING 57687
SWIDTH 1000 0
DWIDTH 14 0
BBX 16 16 -1 -3
BITMAP
6AAAAAA9
7FFFFFFD
7FFFFFFD
7FFFFFFD
7FFFFFFD
7FFFFFFD
7FFFFFFD
7FFFFFFD
7FFFFFFD
7FFFFFFD
7FFFFFFD
7FFFFFFD
7FFFFFFD
7FFFFFFD
7FFFFFFD
6AAAAAA9
ENDCHAR
STARTCHAR uni25D6.v
ENCODING 57688
SWIDTH 1335 0
DWIDTH 19 0
BBX 16 8 1 1
BITMAP
001BF900
01FFFF90
07FFFFE4
1FFFFFF8
2FFFFFFD
2FFFFFFE
3FFFFFFE
7FFFFFFE
ENDCHAR
STARTCHAR uni25D7.v
ENCODING 57689
SWIDTH 1335 0
DWIDTH 19 0
BBX 16 8 1 1
BITMAP
7FFFFFFE
3FFFFFFE
2FFFFFFE
1FFFFFFD
1BFFFFF8
07FFFFE4
01BFFF90
001BE900
ENDCHAR
STARTCHAR uni27A1.w
ENCODING 57690
SWIDTH 650 0
DWIDTH 9 0
BBX 10 22 0 -6
BITMAP
000140
000780
001BC0
002FD0
00BFE0
01FFE0
06FFE0
0BFFE0
2FFFE0
7FFFE0
BFFFE0
BFFFE0
7FFFE0
1FFFE0
0BFFE0
02FFE0
01FFE0
007FE0
002F90
000BC0
000680
000100
ENDCHAR
STARTCHAR uni27A1.n
ENCODING 57691
SWIDTH 1000 0
DWIDTH 14 0
BBX 22 10 -4 0
BITMAP
01AAAAAAA400
6FFFFFFFFF90
2FFFFFFFFF80
1BFFFFFFFE40
02FFFFFFF800
007FFFFFD000
001BFFFE4000
0002FFF80000
00007FD00000
000015400000
ENDCHAR
STARTCHAR uni27A1.s
ENCODING 57692
SWIDTH 1000 0
DWIDTH 14 0
BBX 22 10 -4 0
BITMAP
00001A400000
00007FD00000
0002FFF80000
001BFFFE4000
007FFFFFD000
02FFFFFFF800
1BFFFFFFFE40
6FFFFFFFFF80
6FFFFFFFFF90
01AAAAAAA400
ENDCHAR
STARTCHAR uni2B24.salt
ENCODING 57693
SWIDTH 1280 0
DWIDTH 18 0
BBX 16 16 1 -3
BITMAP
006AA900
06FFFF90
2FFFFFF4
7FFFFFFD
7FFFFFFD
7FFFFFFD
7FFFFFFD
7FFFFFFD
7FFFFFFD
7FFFFFFD
7FFFFFFD
7FFFFFFD
7FFFFFFD
2FFFFFF4
06FFFF90
005AA500
ENDCHAR
STARTCHAR uni25DD.curve
ENCODING 57694
SWIDTH 1280 0
DWIDTH 18 0
BBX 16 16 1 -3
BITMAP
55555400
7FFFFF80
7FFFFFE0
7FFFFFF8
7FFFFFFC
7FFFFFFD
7FFFFFFD
7FFFFFFD
7FFFFFFD
7FFFFFFD
7FFFFFFD
7FFFFFFD
7FFFFFFD
7FFFFFFD
7FFFFFFD
55555554
ENDCHAR
STARTCHAR uni2B1B.trapezoid_e
ENCODING 57695
SWIDTH 1280 0
DWIDTH 18 0
BBX 17 16 1 -3
BITMAP
5555555540
7FFFFFFF80
7FFFFFFF40
7FFFFFFF40
7FFFFFFF40
7FFFFFFF00
7FFFFFFE00
7FFFFFFD00
7FFFFFFD00
7FFFFFFD00
7FFFFFFC00
7FFFFFF800
7FFFFFF400
7FFFFFF400
7FFFFFF400
5555555000
ENDCHAR
STARTCHAR uni2B1B.trapezoid_w
ENCODING 57696
SWIDTH 1280 0
DWIDTH 18 0
BBX 17 16 0 -3
BITMAP
5555555540
BFFFFFFF40
7FFFFFFF40
7FFFFFFF40
7FFFFFFF40
3FFFFFFF40
2FFFFFFF40
1FFFFFFF40
1FFFFFFF40
1FFFFFFF40
0FFFFFFF40
0BFFFFFF40
0BFFFFFF40
07FFFFFF40
07FFFFFF40
0155555540
ENDCHAR
STARTCHAR arrowleft.chevron
ENCODING 57697
SWIDTH 1330 0
DWIDTH 19 0
BBX 19 20 0 -5
BITMAP
0001800000
0007800000
000B955554
002FFFFFF4
00BFFFFFE0
01FFFFFFD0
07FFFFFFC0
1BFFFFFF80
2FFFFFFF40
BFFFFFFE00
BFFFFFFE00
2FFFFFFF40
0BFFFFFF80
07FFFFFFD0
01FFFFFFD0
00BFFFFFE0
002FFFFFF4
000B955554
0006800000
0001800000
ENDCHAR
STARTCHAR arrowup.chevron
ENCODING 57698
SWIDTH 1280 0
DWIDTH 18 0
BBX 20 20 -1 -5
BITMAP
0000180000
0000BE0000
0006FF9000
001FFFF400
007FFFFE00
02FFFFFF80
0BFFFFFFE4
6FFFFFFFFD
ABFFFFFFEA
07FFFFFFD0
07FFFFFFD0
07FFFFFFD0
07FFFFFFD0
07FFFFFFD0
07FFFFFFD0
07FFFFFFD0
07FFFFFFD0
07FF96FFD0
07E4001BD0
0640000190
ENDCHAR
STARTCHAR arrowright.chevron
ENCODING 57699
SWIDTH 1330 0
DWIDTH 19 0
BBX 19 20 0 -5
BITMAP
0000090000
00000E0000
55556F8000
BFFFFFD000
7FFFFFF400
2FFFFFFD00
1FFFFFFE00
0BFFFFFF80
0BFFFFFFE0
07FFFFFFF4
07FFFFFFF4
0BFFFFFFD0
0FFFFFFF80
1FFFFFFE00
2FFFFFF800
7FFFFFF400
BFFFFFD000
55555F8000
00000E0000
0000080000
ENDCHAR
STARTCHAR arrowdown.chevron
ENCODING 57700
SWIDTH 1280 0
DWIDTH 18 0
BBX 20 20 -1 -5
BITMAP
0640000150
07E4001BD0
07FF95BFD0
07FFFFFFD0
07FFFFFFD0
07FFFFFFD0
07FFFFFFD0
07FFFFFFD0
07FFFFFFD0
07FFFFFFD0
07FFFFFFD0
ABFFFFFFEA
7FFFFFFFFD
1BFFFFFFE4
02FFFFFF80
00BFFFFE00
001FFFF400
0006FF9000
0000BE4000
0000280000
ENDCHAR
STARTCHAR uni25D6.deco
ENCODING 57701
SWIDTH 560 0
DWIDTH 8 0
BBX 9 18 0 -4
BITMAP
001900
00BE40
01FF40
0BFF40
1FFF40
2FFF40
3FFF40
7FFF40
7FFF40
7FFF40
7FFF40
3FFF40
2FFF40
1FFF40
06FF40
01FF40
00AD00
001900
ENDCHAR
STARTCHAR uni25D7.deco
ENCODING 57702
SWIDTH 560 0
DWIDTH 8 0
BBX 8 18 -1 -4
BITMAP
1900
6E80
BFD0
BFE4
BFFD
BFFE
BFFE
BFFF
BFFF
BFFF
BFFF
BFFE
BFFE
BFFD
BFE4
BFD0
6E40
1900
ENDCHAR
STARTCHAR uni25D6.v_deco
ENCODING 57703
SWIDTH 1280 0
DWIDTH 18 0
BBX 18 9 0 0
BITMAP
0005550000
00AFFF9000
02FFFFF800
07FFFFFD00
2FFFFFFF80
7FFFFFFFD0
BFFFFFFFE0
6FFFFFFF50
0555555500
ENDCHAR
STARTCHAR uni25D7.v_deco
ENCODING 57704
SWIDTH 1280 0
DWIDTH 18 0
BBX 18 9 0 1
BITMAP
1555555500
6FFFFFFF50
BFFFFFFFE0
7FFFFFFF90
2FFFFFFF80
07FFFFF900
02FFFFF400
006FFF9000
0001540000
ENDCHAR
STARTCHAR uni25D6.bevel
ENCODING 57705
SWIDTH 350 0
DWIDTH 5 0
BBX 5 16 1 -3
BITMAP
0140
1B40
2F40
BF40
FF40
FF40
FF40
FF40
FF40
FF40
FF40
FF40
BF40
2F40
1B40
0140
ENDCHAR
STARTCHAR uni25D7.bevel
ENCODING 57706
SWIDTH 350 0
DWIDTH 5 0
BBX 5 16 -1 -3
BITMAP
5000
B800
BE00
BF80
BF80
BF80
BF80
BF80
BF80
BF80
BF80
BF80
BF40
BE00
B800
5000
ENDCHAR
STARTCHAR uni25D6.v_bevel
ENCODING 57707
SWIDTH 1280 0
DWIDTH 18 0
BBX 16 6 1 2
BITMAP
01555500
06FFFF90
1FFFFFF4
6FFFFFF8
7FFFFFFD
15555554
ENDCHAR
STARTCHAR uni25D7.v_bevel
ENCODING 57708
SWIDTH 1280 0
DWIDTH 18 0
BBX 16 6 1 2
BITMAP
15555554
7FFFFFFD
2FFFFFF8
1FFFFFE4
06FFFF80
00555500
ENDCHAR
STARTCHAR uni25D6.spike
ENCODING 57709
SWIDTH 350 0
DWIDTH 5 0
BBX 6 16 0 -3
BITMAP
1A50
1FD0
0BD0
07D0
07D0
0BD0
1FD0
7FD0
7FD0
1FD0
07D0
07D0
07D0
0BD0
1FD0
1950
ENDCHAR
STARTCHAR uni25D7.spike
ENCODING 57710
SWIDTH 350 0
DWIDTH 5 0
BBX 6 16 -1 -3
BITMAP
5A40
BF40
BE00
BD00
BC00
BD00
BF40
BFD0
BF80
BF40
BD00
BC00
BD00
BE00
BF40
5640
ENDCHAR
STARTCHAR uni25D6.v_spike
ENCODING 57711
SWIDTH 1280 0
DWIDTH 18 0
BBX 16 6 1 2
BITMAP
00014000
5007D005
B96FF56E
BFFFFFFD
7FFFFFFD
55555555
ENDCHAR
STARTCHAR uni25D7.v_spike
ENCODING 57712
SWIDTH 1280 0
DWIDTH 18 0
BBX 16 6 1 2
BITMAP
6AAAAAA9
7FFFFFFD
BFFFFFFE
B91FF46E
5007D005
00014000
ENDCHAR
STARTCHAR uni25D6.square
ENCODING 57713
SWIDTH 350 0
DWIDTH 5 0
BBX 5 16 1 -3
BITMAP
1540
7F40
7F40
7F40
7F40
7F40
7F40
7F40
7F40
7F40
7F40
7F40
7F40
7F40
7F40
1540
ENDCHAR
STARTCHAR uni25D7.square
ENCODING 57714
SWIDTH 350 0
DWIDTH 5 0
BBX 5 16 -1 -3
BITMAP
5500
BF40
BF40
BF40
BF40
BF40
BF40
BF40
BF40
BF40
BF40
BF40
BF40
BF40
BF40
5500
ENDCHAR
STARTCHAR uni25D6.v_square
ENCODING 57715
SWIDTH 1280 0
DWIDTH 18 0
BBX 16 4 1 3
BITMAP
7FFFFFFD
7FFFFFFD
7FFFFFFD
7FFFFFFD
ENDCHAR
STARTCHAR uni25D7.v_square
ENCODING 57716
SWIDTH 1280 0
DWIDTH 18 0
BBX 16 4 1 3
BITMAP
7FFFFFFD
7FFFFFFD
7FFFFFFD
6FFFFFF9
ENDCHAR
STARTCHAR uni25D6.rounded
ENCODING 57717
SWIDTH 350 0
DWIDTH 5 0
BBX 5 16 1 -3
BITMAP
0540
2F40
7F40
7F40
BF40
BF40
FF40
FF40
FF40
BF40
BF40
BF40
7F40
7F40
2F40
0540
ENDCHAR
STARTCHAR uni25D7.rounded
ENCODING 57718
SWIDTH 350 0
DWIDTH 5 0
BBX 5 16 -1 -3
BITMAP
5400
BE00
BE40
BF40
BF80
BF80
BF80
BF80
BF80
BF80
BF80
BF80
BF40
BE00
BD00
5400
ENDCHAR
STARTCHAR uni25D6.v_rounded
ENCODING 57719
SWIDTH 1280 0
DWIDTH 18 0
BBX 16 6 1 2
BITMAP
00055000
06FFFF90
2FFFFFF8
7FFFFFFD
7FFFFFFD
15555554
ENDCHAR
STARTCHAR uni25D7.v_rounded
ENCODING 57720
SWIDTH 1280 0
DWIDTH 18 0
BBX 16 6 1 2
BITMAP
15555554
7FFFFFFD
7FFFFFFD
2FFFFFF8
06BFFE90
00014000
ENDCHAR
STARTCHAR uni21AB.arrow
ENCODING 57721
SWIDTH 1000 0
DWIDTH 14 0
BBX 18 26 -1 -13
BITMAP
5555000000
7FFFD00000
7FFFF90000
7FFFFF4000
7FFFFFD000
7FFFFFE000
7FFFFFF000
7FFFFFF400
7FFFFFF800
7FFFFFF800
7FFFFFF800
7FFFFFF800
7FFFFFF800
7FFFFFF800
7FFFFFF800
5BFFFFF800
07FFFFF800
AFFFFFFE90
6FFFFFFF80
1BFFFFFE00
06FFFFF800
01BFFFE000
006FFF4000
000BFD0000
0002F40000
0000900000
ENDCHAR
STARTCHAR uni21AC.arrow
ENCODING 57722
SWIDTH 1000 0
DWIDTH 14 0
BBX 18 26 -1 -3
BITMAP
0000900000
0002F40000
001BFD0000
006FFF8000
01BFFFE000
06FFFFF800
1FFFFFFE00
7FFFFFFF80
ABFFFFFE90
0BFFFFF800
5BFFFFF800
7FFFFFF800
7FFFFFF800
7FFFFFF800
7FFFFFF800
7FFFFFF800
7FFFFFF800
7FFFFFF800
7FFFFFF400
7FFFFFF000
7FFFFFE000
7FFFFF8000
7FFFFF4000
7FFFF90000
7FFF900000
5555000000
ENDCHAR
STARTCHAR uni21AB.v_arrow
ENCODING 57723
SWIDTH 1335 0
DWIDTH 19 0
BBX 26 18 -9 -5
BITMAP
000092AAAAAA90
0002D7FFFFFFE0
000BEBFFFFFFE0
002FFFFFFFFFE0
00BFFFFFFFFFE0
02FFFFFFFFFFE0
0BFFFFFFFFFFE0
2FFFFFFFFFFFD0
7FFFFFFFFFFFD0
2FFFFFFFFFFF80
0BFFFFFFFFFF40
02FFFFFFFFFE00
01BFFFFFFFF400
006FFFFFFF9000
001FEAAAA50000
0007D000000000
00019000000000
00004000000000
ENDCHAR
STARTCHAR uni21AC.v_arrow
ENCODING 57724
SWIDTH 1335 0
DWIDTH 19 0
BBX 26 18 1 -5
BITMAP
2AAAAAA9180000
7FFFFFFE1E0000
7FFFFFFFAF8000
7FFFFFFFFFE000
7FFFFFFFFFF400
3FFFFFFFFFFD00
3FFFFFFFFFFF40
2FFFFFFFFFFFD0
1FFFFFFFFFFFF0
1FFFFFFFFFFFE0
0BFFFFFFFFFF80
02FFFFFFFFFE00
00BFFFFFFFF800
001BFFFFFFE000
00016AAAAF8000
000000001E0000
00000000190000
00000000100000
ENDCHAR
STARTCHAR uni25D6.wings
ENCODING 57725
SWIDTH 900 0
DWIDTH 13 0
BBX 13 22 0 -6
BITMAP
01555000
06FFF400
07FFF800
5BFFFE40
BFFFFFC0
BFFFFFC0
BFFFFFC0
BFFFFFC0
BFFFFFC0
BFFFFFC0
BFFFFFC0
BFFFFFC0
BFFFFFC0
BFFFFFC0
BFFFFFC0
BFFFFFC0
BFFFFFC0
BFFFFFC0
57FFFE40
07FFF800
06FFF400
01555000
ENDCHAR
STARTCHAR uni25D7.wings
ENCODING 57726
SWIDTH 900 0
DWIDTH 13 0
BBX 14 22 -1 -6
BITMAP
00555400
02FFF800
03FFF800
6BFFF940
BFFFFFD0
BFFFFFD0
BFFFFFD0
BFFFFFD0
BFFFFFD0
BFFFFFD0
BFFFFFD0
BFFFFFD0
BFFFFFD0
BFFFFFD0
BFFFFFD0
BFFFFFD0
BFFFFFD0
BFFFFFD0
5BFFF940
02FFF800
02FFF800
00555000
ENDCHAR
STARTCHAR uni25D6.v_wings
ENCODING 57727
SWIDTH 1280 0
DWIDTH 18 0
BBX 22 14 -2 -2
BITMAP
015555555000
01FFFFFFF400
01FFFFFFF400
6FFFFFFFFF80
7FFFFFFFFFD0
7FFFFFFFFFD0
7FFFFFFFFFD0
7FFFFFFFFFD0
7FFFFFFFFFD0
7FFFFFFFFFD0
2BFFFFFFFE80
02FFFFFFF800
02FFFFFFF400
015555555000
ENDCHAR
STARTCHAR uni25D7.v_wings
ENCODING 57728
SWIDTH 1280 0
DWIDTH 18 0
BBX 22 14 -2 -2
BITMAP
015555555400
02FFFFFFF400
02FFFFFFF800
2BFFFFFFFE80
7FFFFFFFFFD0
7FFFFFFFFFD0
7FFFFFFFFFD0
7FFFFFFFFFD0
7FFFFFFFFFD0
7FFFFFFFFFD0
6AFFFFFFFA80
01FFFFFFF400
01FFFFFFF400
005555555000
ENDCHAR
STARTCHAR uni2B1B.chevron_e
ENCODING 57729
SWIDTH 1280 0
DWIDTH 18 0
BBX 18 16 0 -3
BITMAP
5555555400
BFFFFFFD00
7FFFFFFE00
2FFFFFFF40
1FFFFFFF40
0BFFFFFF80
0BFFFFFFD0
07FFFFFFE0
07FFFFFFE0
0BFFFFFFD0
0FFFFFFF80
1FFFFFFF40
2FFFFFFF40
7FFFFFFE00
BFFFFFFD00
5555555400
ENDCHAR
STARTCHAR uni2B1B.chevron_n
ENCODING 57730
SWIDTH 1280 0
DWIDTH 18 0
BBX 16 18 1 -4
BITMAP
00069000
01AFF940
1BFFFFE4
7FFFFFFD
7FFFFFFD
7FFFFFFD
7FFFFFFD
7FFFFFFD
7FFFFFFD
7FFFFFFD
7FFFFFFD
7FFFFFFD
7FFFFFFD
7FFFFFFD
7FFFFFFD
7FE56BFD
7E4001BD
54000019
ENDCHAR
STARTCHAR uni2B1B.chevron_s
ENCODING 57731
SWIDTH 1280 0
DWIDTH 18 0
BBX 16 18 1 -4
BITMAP
64000019
7E5006BD
7FF96FFD
7FFFFFFD
7FFFFFFD
7FFFFFFD
7FFFFFFD
7FFFFFFD
7FFFFFFD
7FFFFFFD
7FFFFFFD
7FFFFFFD
7FFFFFFD
7FFFFFFD
7FFFFFFD
1AFFFF94
006FF900
00065000
ENDCHAR
STARTCHAR uni2B1B.chevron_w
ENCODING 57732
SWIDTH 1280 0
DWIDTH 18 0
BBX 18 16 0 -3
BITMAP
0155555550
07FFFFFFD0
0BFFFFFFD0
1FFFFFFF80
1FFFFFFF40
2FFFFFFE00
7FFFFFFE00
BFFFFFFD00
BFFFFFFD00
7FFFFFFE00
2FFFFFFF00
1FFFFFFF40
1FFFFFFF80
0BFFFFFFD0
07FFFFFFE0
0155555550
ENDCHAR
STARTCHAR uni2B1B.semichevron_e
ENCODING 57733
SWIDTH 650 0
DWIDTH 9 0
BBX 10 16 0 -3
BITMAP
555550
BFFFE0
7FFFE0
2FFFE0
1FFFE0
0FFFE0
0BFFE0
07FFE0
07FFE0
0BFFE0
0FFFE0
1FFFE0
2FFFE0
7FFFE0
BFFFE0
555550
ENDCHAR
STARTCHAR uni2B1B.semichevron_w
ENCODING 57734
SWIDTH 650 0
DWIDTH 9 0
BBX 10 16 -1 -3
BITMAP
555550
BFFFE0
BFFFD0
BFFF80
BFFF80
BFFF40
BFFE00
BFFD00
BFFD00
BFFE00
BFFF40
BFFF80
BFFF80
BFFFD0
BFFFE0
555550
ENDCHAR
STARTCHAR uni2B1B.semichevron_n
ENCODING 57735
SWIDTH 1000 0
DWIDTH 14 0
BBX 16 10 -1 0
BITMAP
64000015
7E4001BD
7FE96BFD
7FFFFFFD
7FFFFFFD
7FFFFFFD
7FFFFFFD
7FFFFFFD
7FFFFFFD
6AAAAAA9
ENDCHAR
STARTCHAR uni2B1B.semichevron_s
ENCODING 57736
SWIDTH 1000 0
DWIDTH 14 0
BBX 16 10 -1 0
BITMAP
7FFFFFFD
7FFFFFFD
7FFFFFFD
7FFFFFFD
7FFFFFFD
7FFFFFFD
7FFFFFFD
7FE55BFD
7E4001BD
54000015
ENDCHAR
STARTCHAR space.v
ENCODING 57737
SWIDTH 1000 0
DWIDTH 14 0
BBX 1 1 0 0
BITMAP
00
ENDCHAR
STARTCHAR Agrave.v
ENCODING 57738
SWIDTH 1000 0
DWIDTH 14 0
BBX 11 15 1 -2
BITMAP
010000
0B0000
0F9500
0F9550
020000
0A1000
0D0500
1C0A00
280500
384010
780500
781F00
781F00
7FDFF8
2A0A90
ENDCHAR
STARTCHAR Aacute.v
ENCODING 57739
SWIDTH 1000 0
DWIDTH 14 0
BBX 11 15 1 -2
BITMAP
000010
020000
0F0550
0F9540
0B0000
0A1000
0D0500
1C0A00
280500
384010
780500
781F00
781F00
7FDFF8
2A0A90
ENDCHAR
STARTCHAR Acircumflex.v
ENCODING 57740
SWIDTH 1000 0
DWIDTH 14 0
BBX 11 14 1 -2
BITMAP
020000
0B1A40
0F9550
0B0000
0A1000
0D0500
1C0A00
280500
384010
780500
781F00
781F00
7FDFF8
2A0A90
ENDCHAR
STARTCHAR Atilde.v
ENCODING 57741
SWIDTH 1000 0
DWIDTH 14 0
BBX 11 15 1 -2
BITMAP
004010
020000
0F1410
0F9550
0B0000
0A1000
0D0500
1C0A00
280500
384010
780500
781F00
781F00
7FDFF8
2A0A90
ENDCHAR
STARTCHAR Adieresis.v
ENCODING 57742
SWIDTH 1000 0
DWIDTH 14 0
BBX 11 15 1 -2
BITMAP
010500
0A0500
1E0900
1F9550
0B0000
0A1000
0D0500
1C0A00
280500
384010
780500
781F00
781F00
7FDFF8
2A0A90
ENDCHAR
STARTCHAR Aring.v
ENCODING 57743
SWIDTH 1000 0
DWIDTH 14 0
BBX 11 15 1 -2
BITMAP
004010
021040
0B0E00
0F1540
0F0500
0A0000
0D0900
1C0E00
280500
384010
780500
781F00
781F00
7FDFF4
2A0A90
ENDCHAR
STARTCHAR Amacron.v
ENCODING 57744
SWIDTH 1000 0
DWIDTH 14 0
BBX 11 14 1 -2
BITMAP
030000
0F0010
0F9550
0B0000
0A1000
0D0500
1C0A00
280500
384010
780500
781F00
781F00
7FDFF8
2A0A90
ENDCHAR
STARTCHAR Abreve.v
ENCODING 57745
SWIDTH 1000 0
DWIDTH 14 0
BBX 11 15 1 -2
BITMAP
020600
0F1040
0F8050
0B9540
030000
0A1000
0D0500
1C0A00
280500
384010
780500
781F00
781F00
7FDFF8
2A0A90
ENDCHAR
STARTCHAR Aogonek.v
ENCODING 57746
SWIDTH 1000 0
DWIDTH 14 0
BBX 11 14 1 -4
BITMAP
014000
070000
0A0000
1D0900
2C0A00
384010
784000
780A00
781F00
7E9E04
7F4E00
001F00
001FF8
000A90
ENDCHAR
STARTCHAR Ccedilla.v
ENCODING 57747
SWIDTH 1000 0
DWIDTH 14 0
BBX 11 13 1 -3
BITMAP
010000
080000
280554
780FE0
780540
780000
780000
780000
7D0100
3F9064
0BD0E0
02F900
02F400
ENDCHAR
STARTCHAR Cacute.v
ENCODING 57748
SWIDTH 1000 0
DWIDTH 14 0
BBX 11 15 1 -2
BITMAP
000010
020000
0B0550
0FA540
090000
184000
380AA4
780FD0
780000
780000
780004
7C0000
3E4000
2FFFF4
06AA90
ENDCHAR
STARTCHAR Ccircumflex.v
ENCODING 57749
SWIDTH 1000 0
DWIDTH 14 0
BBX 11 14 1 -2
BITMAP
020000
0B1A40
0FA550
090000
184000
380AA4
780FD0
780000
780000
780004
7C0000
3E4000
2FFFF4
06AA90
ENDCHAR
STARTCHAR Cdotaccent.v
ENCODING 57750
SWIDTH 1000 0
DWIDTH 14 0
BBX 11 15 1 -2
BITMAP
001040
01D000
01E040
01A540
050000
184000
380AA4
780FD0
780000
780000
780004
7C0000
3E4000
2FFFF4
06AA90
ENDCHAR
STARTCHAR Ccaron.v
ENCODING 57751
SWIDTH 1000 0
DWIDTH 14 0
BBX 11 15 1 -2
BITMAP
020000
0B0000
0FD050
0BA540
050000
184000
380AA4
780FD0
780000
780000
780004
7C0000
3E4000
2FFFF4
06AA90
ENDCHAR
STARTCHAR Dcaron.v
ENCODING 57752
SWIDTH 1000 0
DWIDTH 14 0
BBX 11 15 1 -2
BITMAP
020000
0B0000
0F9050
095540
180004
780000
780E00
780F00
780B00
780B00
780500
784000
780010
7FFFD0
2AA900
ENDCHAR
STARTCHAR Egrave.v
ENCODING 57753
SWIDTH 1000 0
DWIDTH 14 0
BBX 11 15 1 -2
BITMAP
010000
0B0000
0F9500
0D5554
180000
780000
780FF4
780010
784000
780A90
780544
784000
780000
7FFFF4
2AAA90
ENDCHAR
STARTCHAR Eacute.v
ENCODING 57754
SWIDTH 1000 0
DWIDTH 14 0
BBX 11 15 1 -2
BITMAP
000010
020000
0F0550
0D5544
180000
780000
780FF4
780010
784000
780A90
780544
784000
780000
7FFFF4
2AAA90
ENDCHAR
STARTCHAR Ecircumflex.v
ENCODING 57755
SWIDTH 1000 0
DWIDTH 14 0
BBX 11 14 1 -2
BITMAP
020000
0F1A40
0D5554
180000
780000
780FF4
780010
784000
780A90
780544
784000
780000
7FFFF4
2AAA90
ENDCHAR
STARTCHAR Edieresis.v
ENCODING 57756
SWIDTH 1000 0
DWIDTH 14 0
BBX 11 15 1 -2
BITMAP
010500
0A0900
1E0900
1D5554
280000
780000
780FF4
780010
784000
780A90
780544
784000
780000
7FFFF4
2AAA90
ENDCHAR
STARTCHAR Emacron.v
ENCODING 57757
SWIDTH 1000 0
DWIDTH 14 0
BBX 11 14 1 -2
BITMAP
070000
0F0010
0D5554
180000
780000
780FF4
780010
784000
780A90
780544
784000
780000
7FFFF4
2AAA90
ENDCHAR
STARTCHAR Ebreve.v
ENCODING 57758
SWIDTH 1000 0
DWIDTH 14 0
BBX 11 15 1 -2
BITMAP
020600
0F1040
0F8050
095544
180000
780000
780FF4
780010
784000
780A90
780544
784000
780000
7FFFF4
2AAA90
ENDCHAR
STARTCHAR Edotaccent.v
ENCODING 57759
SWIDTH 1000 0
DWIDTH 14 0
BBX 11 15 1 -2
BITMAP
005040
01D000
02D040
055544
180000
780000
780FF4
780010
784000
780A90
780544
784000
780000
7FFFF4
2AAA90
ENDCHAR
STARTCHAR Eogonek.v
ENCODING 57760
SWIDTH 1000 0
DWIDTH 14 0
BBX 11 14 1 -4
BITMAP
080000
384000
780554
780560
784000
780550
780F90
780000
780040
7EA904
7FFE00
001E00
001FF4
000A90
ENDCHAR
STARTCHAR Ecaron.v
ENCODING 57761
SWIDTH 1000 0
DWIDTH 14 0
BBX 11 15 1 -2
BITMAP
020000
0B0000
0F9050
095544
180000
780000
780FF4
780010
784000
780A90
780544
784000
780000
7FFFF4
2AAA90
ENDCHAR
STARTCHAR Gcircumflex.v
ENCODING 57762
SWIDTH 1000 0
DWIDTH 14 0
BBX 11 14 1 -2
BITMAP
020000
0F1A40
0FA550
090000
184000
380AA0
781F80
780200
780B00
784500
7C0000
3E4000
2FFFF4
06AA90
ENDCHAR
STARTCHAR Gbreve.v
ENCODING 57763
SWIDTH 1000 0
DWIDTH 14 0
BBX 11 15 1 -2
BITMAP
020600
0F1040
0F8050
0BA540
050000
184000
380AA0
781F80
780200
780B00
784500
7C0000
3E4000
2FFFF4
06AA90
ENDCHAR
STARTCHAR Gdotaccent.v
ENCODING 57764
SWIDTH 1000 0
DWIDTH 14 0
BBX 11 15 1 -2
BITMAP
005040
01D000
02D040
02A540
050000
184000
380AA0
781F80
780200
780B00
784500
7C0000
3E4000
2FFFF4
06AA90
ENDCHAR
STARTCHAR Gcommaaccent.v
ENCODING 57765
SWIDTH 1000 0
DWIDTH 14 0
BBX 11 16 1 -6
BITMAP
010000
080000
280550
781FD0
780640
780700
780A00
784000
3D0000
2FAAA4
0BD0A0
01D140
02E400
02D100
01FD00
01A000
ENDCHAR
STARTCHAR Hcircumflex.v
ENCODING 57766
SWIDTH 1000 0
DWIDTH 14 0
BBX 11 14 1 -2
BITMAP
020000
0F1A40
0D6F90
180B00
780F00
780A00
780000
784010
780500
780F00
780F00
780F00
7FDFF4
2A4A90
ENDCHAR
STARTCHAR Igrave.v
ENCODING 57767
SWIDTH 1000 0
DWIDTH 14 0
BBX 10 15 2 -2
BITMAP
040000
2C0000
3E5400
395540
600000
F00000
FA4190
BF4140
0B4000
0B4000
150010
B01000
F00000
FFFFD0
AAAA40
ENDCHAR
STARTCHAR Iacute.v
ENCODING 57768
SWIDTH 1000 0
DWIDTH 14 0
BBX 10 15 2 -2
BITMAP
000040
080000
3C1540
395500
700000
F00000
FA4190
BF4140
0B4000
0B4000
150010
B01000
F00000
FFFFD0
AAAA40
ENDCHAR
STARTCHAR Icircumflex.v
ENCODING 57769
SWIDTH 1000 0
DWIDTH 14 0
BBX 10 14 2 -2
BITMAP
080000
3C6900
395540
700000
F00000
FA4190
BF4140
0B4000
0B4000
150010
B01000
F00000
FFFFD0
AAAA40
ENDCHAR
STARTCHAR Idieresis.v
ENCODING 57770
SWIDTH 1000 0
DWIDTH 14 0
BBX 10 15 2 -2
BITMAP
041400
282400
782400
795540
700000
F00000
FA4190
BF4140
0B4000
0B4000
150010
B01000
F00000
FFFFD0
AAAA40
ENDCHAR
STARTCHAR Itilde.v
ENCODING 57771
SWIDTH 1000 0
DWIDTH 14 0
BBX 10 15 2 -2
BITMAP
000040
080000
3C5040
395540
700000
F00000
FA4190
BF4140
0B4000
0B4000
150010
B01000
F00000
FFFFD0
AAAA40
ENDCHAR
STARTCHAR Imacron.v
ENCODING 57772
SWIDTH 1000 0
DWIDTH 14 0
BBX 10 14 2 -2
BITMAP
1C0000
3C0040
395540
700000
F00000
FA4190
BF4140
0B4000
0B4000
150010
B01000
F00000
FFFFD0
AAAA40
ENDCHAR
STARTCHAR Ibreve.v
ENCODING 57773
SWIDTH 1000 0
DWIDTH 14 0
BBX 10 15 2 -2
BITMAP
081800
3C4100
3E0140
295500
600000
F00000
FA4190
BF4140
0B4000
0B4000
150010
B01000
F00000
FFFFD0
AAAA40
ENDCHAR
STARTCHAR Iogonek.v
ENCODING 57774
SWIDTH 1000 0
DWIDTH 14 0
BBX 10 14 2 -4
BITMAP
200000
F01000
F50050
FF4180
5B4100
0B4000
0A0000
200000
F00100
FAA410
FFF800
007800
007FD0
002A40
ENDCHAR
STARTCHAR Idotaccent.v
ENCODING 57775
SWIDTH 1000 0
DWIDTH 14 0
BBX 10 15 2 -2
BITMAP
014100
074000
0B4100
155500
600000
F00000
FA4190
BF4140
0B4000
0B4000
150010
B01000
F00000
FFFFD0
AAAA40
ENDCHAR
STARTCHAR Jcircumflex.v
ENCODING 57776
SWIDTH 1000 0
DWIDTH 14 0
BBX 11 14 1 -2
BITMAP
009000
02D690
02FF94
015700
000F00
000F00
001F00
181F00
781F00
784500
7C0000
3E0010
2FFAD0
06FA00
ENDCHAR
STARTCHAR Kcommaaccent.v
ENCODING 57777
SWIDTH 1000 0
DWIDTH 14 0
BBX 11 16 1 -6
BITMAP
080100
380C00
780800
780000
784100
780000
780F00
780F00
780F00
7E9FA4
7F90A0
01D140
02E400
02D100
01FD00
01A000
ENDCHAR
STARTCHAR Lacute.v
ENCODING 57778
SWIDTH 1000 0
DWIDTH 14 0
BBX 11 15 1 -2
BITMAP
000040
180000
381540
7D6D00
380000
780000
780000
780040
780200
780B00
780500
784010
780000
7FFFF4
2AAA90
ENDCHAR
STARTCHAR Lcommaaccent.v
ENCODING 57779
SWIDTH 1000 0
DWIDTH 14 0
BBX 11 16 1 -6
BITMAP
080000
380000
780000
780000
780140
780700
780A00
780000
780000
7EAAA4
7FD0A0
01D140
02E400
02D100
01FD00
01A000
ENDCHAR
STARTCHAR Lcaron.v
ENCODING 57780
SWIDTH 1000 0
DWIDTH 14 0
BBX 11 12 1 -2
BITMAP
080140
380740
780B00
780F54
780FA0
780700
780B00
780500
784010
780000
7FFFF4
2AAA90
ENDCHAR
STARTCHAR Ntilde.v
ENCODING 57781
SWIDTH 1000 0
DWIDTH 14 0
BBX 11 15 1 -2
BITMAP
000010
020000
0F1410
0D6F90
180F00
784300
780100
780000
780000
781800
781E10
781F00
781F00
7FDFF4
2A0A90
ENDCHAR
STARTCHAR Nacute.v
ENCODING 57782
SWIDTH 1000 0
DWIDTH 14 0
BBX 11 15 1 -2
BITMAP
000010
020000
0F0550
0D6F80
180B00
784300
780100
780000
780000
781800
781E10
781F00
781F00
7FDFF4
2A0A90
ENDCHAR
STARTCHAR Ncommaaccent.v
ENCODING 57783
SWIDTH 1000 0
DWIDTH 14 0
BBX 11 16 1 -6
BITMAP
080200
384700
781200
780400
780000
781400
781D10
781F00
781F00
7E9FA4
7F90A0
01D140
02E400
02D100
01FD00
01A000
ENDCHAR
STARTCHAR Ncaron.v
ENCODING 57784
SWIDTH 1000 0
DWIDTH 14 0
BBX 11 15 1 -2
BITMAP
020000
0B0000
0F9050
096F40
180B00
784300
780100
780000
780000
781800
781E10
781F00
781F00
7FDFF4
2A0A90
ENDCHAR
STARTCHAR Ograve.v
ENCODING 57785
SWIDTH 1000 0
DWIDTH 14 0
BBX 11 15 1 -2
BITMAP
010000
0B0000
0F9500
0F9550
040000
180000
380F00
780F00
780B00
780B00
780500
7C1040
3E0004
2FFAD0
06FA00
ENDCHAR
STARTCHAR Oacute.v
ENCODING 57786
SWIDTH 1000 0
DWIDTH 14 0
BBX 11 15 1 -2
BITMAP
000010
020000
0F0550
0F9540
090000
180000
380F00
780F00
780B00
780B00
780500
7C1040
3E0004
2FFAD0
06FA00
ENDCHAR
STARTCHAR Ocircumflex.v
ENCODING 57787
SWIDTH 1000 0
DWIDTH 14 0
BBX 11 14 1 -2
BITMAP
020000
0F1A40
0F9550
090004
180000
380F00
780F00
780B00
780B00
780500
7C1040
3E0004
2FFAD0
06FA00
ENDCHAR
STARTCHAR Otilde.v
ENCODING 57788
SWIDTH 1000 0
DWIDTH 14 0
BBX 11 15 1 -2
BITMAP
000010
020000
0F1410
0F9550
090000
180000
380F00
780F00
780B00
780B00
780500
7C1040
3E0004
2FFAD0
06FA00
ENDCHAR
STARTCHAR Odieresis.v
ENCODING 57789
SWIDTH 1000 0
DWIDTH 14 0
BBX 11 15 1 -2
BITMAP
010500
0A0900
1E0900
1F9550
090000
180000
380F00
780F00
780B00
780B00
780500
7C1040
3E0004
2FFAD0
06FA00
ENDCHAR
STARTCHAR Omacron.v
ENCODING 57790
SWIDTH 1000 0
DWIDTH 14 0
BBX 11 14 1 -2
BITMAP
070000
0F0010
0F9550
090000
180000
380F00
780F00
780B00
780B00
780500
7C1040
3E0004
2FFAD0
06FA00
ENDCHAR
STARTCHAR Obreve.v
ENCODING 57791
SWIDTH 1000 0
DWIDTH 14 0
BBX 11 15 1 -2
BITMAP
020600
0F1040
0F8050
0B9550
050000
180000
380F00
780F00
780B00
780B00
780500
7C1040
3E0004
2FFAD0
06FA00
ENDCHAR
STARTCHAR Ohungarumlaut.v
ENCODING 57792
SWIDTH 1000 0
DWIDTH 14 0
BBX 11 16 1 -2
BITMAP
004144
034700
070600
0B0A00
0F9550
090000
180000
380F00
780F00
780B00
780B00
780500
7C1040
3E0004
2FFAD0
06FA00
ENDCHAR
STARTCHAR Racute.v
ENCODING 57793
SWIDTH 1000 0
DWIDTH 14 0
BBX 11 15 1 -2
BITMAP
000010
060000
0E0550
1D5540
280000
780000
780D00
780804
784040
780000
780A00
780F00
780F00
7FDFF8
2A4690
ENDCHAR
STARTCHAR Rcommaaccent.v
ENCODING 57794
SWIDTH 1000 0
DWIDTH 14 0
BBX 11 16 1 -6
BITMAP
080010
384000
780800
780D04
780044
784000
780500
780F00
780F00
7E9FA4
7F90A0
01D140
02E400
02D100
01FD00
01A000
ENDCHAR
STARTCHAR Rcaron.v
ENCODING 57795
SWIDTH 1000 0
DWIDTH 14 0
BBX 11 15 1 -2
BITMAP
020000
0B0000
0F9050
095540
180000
780000
780D00
780804
784040
780000
780A00
780F00
780F00
7FDFF8
2A4690
ENDCHAR
STARTCHAR Sacute.v
ENCODING 57796
SWIDTH 1000 0
DWIDTH 14 0
BBX 11 15 1 -2
BITMAP
000010
020000
0F0550
0FA540
090000
184000
380BF4
784004
7C0000
3F9500
2EA900
180000
780014
7FFFD0
2AAA00
ENDCHAR
STARTCHAR Scircumflex.v
ENCODING 57797
SWIDTH 1000 0
DWIDTH 14 0
BBX 11 14 1 -2
BITMAP
020000
0F1A40
0FA550
090000
184000
380BF4
784004
7C0000
3F9500
2EA900
180000
780014
7FFFD0
2AAA00
ENDCHAR
STARTCHAR Scedilla.v
ENCODING 57798
SWIDTH 1000 0
DWIDTH 14 0
BBX 11 13 1 -3
BITMAP
010000
080000
280AA4
380550
7C0000
7E0000
3FFE00
180000
380404
7E8090
7F8180
03E800
07E000
ENDCHAR
STARTCHAR Scaron.v
ENCODING 57799
SWIDTH 1000 0
DWIDTH 14 0
BBX 11 15 1 -2
BITMAP
020000
0B0000
0F9050
0BA540
050000
184000
380BF4
784004
7C0000
3F9500
2EA900
180000
780014
7FFFD0
2AAA00
ENDCHAR
STARTCHAR Scommaaccent.v
ENCODING 57800
SWIDTH 1000 0
DWIDTH 14 0
BBX 11 16 1 -6
BITMAP
010000
080000
280AA4
380550
7C0000
7E0000
3FFE00
180000
380004
7EAA90
7FD040
01D100
02E400
02D100
01FD00
01A000
ENDCHAR
STARTCHAR Tcommaaccent.v
ENCODING 57801
SWIDTH 1000 0
DWIDTH 14 0
BBX 11 15 1 -5
BITMAP
080000
380400
7D4014
7FD070
16D040
02D000
02D000
02D000
02E540
02D000
02D000
02E500
01E500
01F800
005000
ENDCHAR
STARTCHAR Tcaron.v
ENCODING 57802
SWIDTH 1000 0
DWIDTH 14 0
BBX 11 15 1 -2
BITMAP
020000
0B0000
0F9050
095540
180000
780000
7E9064
2FD050
02D000
02D000
02D000
02D000
02D000
02FE00
01A800
ENDCHAR
STARTCHAR Ugrave.v
ENCODING 57803
SWIDTH 1000 0
DWIDTH 14 0
BBX 10 15 1 -2
BITMAP
010000
0B0000
0F9500
0D6F90
180B00
780F00
780F00
780F00
780F00
780F00
780500
7C0040
3E0000
2FFAD0
06FA00
ENDCHAR
STARTCHAR Uacute.v
ENCODING 57804
SWIDTH 1000 0
DWIDTH 14 0
BBX 10 14 1 -2
BITMAP
024000
0B4550
096F90
180B00
780F00
780F00
780F00
780F00
780F00
780500
7C0040
3E0000
2FFAD0
06FA00
ENDCHAR
STARTCHAR Ucircumflex.v
ENCODING 57805
SWIDTH 1000 0
DWIDTH 14 0
BBX 10 14 1 -2
BITMAP
020000
0F1A40
0D6F90
180B00
780F00
780F00
780F00
780F00
780F00
780500
7C0040
3E0000
2FFAD0
06FA00
ENDCHAR
STARTCHAR Udieresis.v
ENCODING 57806
SWIDTH 1000 0
DWIDTH 14 0
BBX 10 15 1 -2
BITMAP
010500
0A0900
1E0900
1D6F90
280F00
780F00
780F00
780F00
780F00
780F00
780500
7C0040
3E0000
2FFAD0
06FA00
ENDCHAR
STARTCHAR Utilde.v
ENCODING 57807
SWIDTH 1000 0
DWIDTH 14 0
BBX 10 15 1 -2
BITMAP
000010
020000
0F1410
0D6F90
180F00
780F00
780F00
780F00
780F00
780F00
780500
7C0040
3E0000
2FFAD0
06FA00
ENDCHAR
STARTCHAR Umacron.v
ENCODING 57808
SWIDTH 1000 0
DWIDTH 14 0
BBX 10 14 1 -2
BITMAP
070000
0F0010
0D6F90
180F00
780F00
780F00
780F00
780F00
780F00
780500
7C0040
3E0000
2FFAD0
06FA00
ENDCHAR
STARTCHAR Ubreve.v
ENCODING 57809
SWIDTH 1000 0
DWIDTH 14 0
BBX 10 15 1 -2
BITMAP
020600
0F1040
0F8050
096F40
180F00
780F00
780F00
780F00
780F00
780F00
780500
7C0040
3E0000
2FFAD0
06FA00
ENDCHAR
STARTCHAR Uring.v
ENCODING 57810
SWIDTH 1000 0
DWIDTH 14 0
BBX 10 17 1 -2
BITMAP
014010
070500
0F0E00
0F1540
0F8050
096F40
180B00
780F00
780F00
780F00
780F00
780F00
780500
7C0040
3E0000
2FFAD0
06FA00
ENDCHAR
STARTCHAR Uhungarumlaut.v
ENCODING 57811
SWIDTH 1000 0
DWIDTH 14 0
BBX 11 16 1 -2
BITMAP
004144
034300
070600
0B0A00
096F90
180F00
780F00
780F00
780F00
780F00
780F00
780500
7C0040
3E0000
2FFAD0
06FA00
ENDCHAR
STARTCHAR Uogonek.v
ENCODING 57812
SWIDTH 1000 0
DWIDTH 14 0
BBX 11 14 1 -4
BITMAP
080200
380B00
780F00
780F00
780F00
780F00
780A00
780000
7D0404
3F9050
1FD440
02E000
01FF40
00A900
ENDCHAR
STARTCHAR Wcircumflex.v
ENCODING 57813
SWIDTH 1000 0
DWIDTH 14 0
BBX 11 14 1 -2
BITMAP
020000
0F1A40
096FD0
241780
B40780
B41580
B41040
B40000
740000
780500
7C0A00
3D0F04
3FEFE0
1A4A80
ENDCHAR
STARTCHAR Wgrave.v
ENCODING 57814
SWIDTH 1000 0
DWIDTH 14 0
BBX 11 15 1 -2
BITMAP
010000
0B0000
0F9500
096FD0
241B80
B40780
B41580
B41040
B40000
740000
780500
7C0A00
3D0F04
3FEFE0
1A4A80
ENDCHAR
STARTCHAR Wacute.v
ENCODING 57815
SWIDTH 1000 0
DWIDTH 14 0
BBX 11 15 1 -2
BITMAP
000010
020000
0B0550
096FC0
241680
B40780
B41580
B41040
B40000
740000
780500
7C0A00
3D0F04
3FEFE0
1A4A80
ENDCHAR
STARTCHAR Wdieresis.v
ENCODING 57816
SWIDTH 1000 0
DWIDTH 14 0
BBX 11 15 1 -2
BITMAP
010500
0A0500
0F0600
196FD0
241B80
B40780
B41580
B41040
B40000
740000
780500
7C0A00
3D0F04
3FEFE0
1A4A80
ENDCHAR
STARTCHAR Yacute.v
ENCODING 57817
SWIDTH 1000 0
DWIDTH 14 0
BBX 10 14 1 -2
BITMAP
024000
0B4550
096F90
180700
780F00
780F00
7C0500
3E0000
2F4410
0FC000
07D000
02D040
02FE00
01A800
ENDCHAR
STARTCHAR Ycircumflex.v
ENCODING 57818
SWIDTH 1000 0
DWIDTH 14 0
BBX 10 14 1 -2
BITMAP
020000
0F1A40
0D6F90
180B00
780F00
780F00
7C0500
3E0000
2F4410
0FC000
07D000
02D040
02FE00
01A800
ENDCHAR
STARTCHAR Ydieresis.v
ENCODING 57819
SWIDTH 1000 0
DWIDTH 14 0
BBX 10 15 1 -2
BITMAP
010500
0A0500
1E0900
1D6F90
280B00
780F00
780F00
7C0500
3E0000
2F4410
0FC000
07D000
02D040
02FE00
01A800
ENDCHAR
STARTCHAR Ygrave.v
ENCODING 57820
SWIDTH 1000 0
DWIDTH 14 0
BBX 10 15 1 -2
BITMAP
010000
0B0000
0F9500
0D6F90
180B00
780F00
780F00
7C0500
3E0000
2F4410
0FC000
07D000
02D040
02FE00
01A800
ENDCHAR
STARTCHAR Zacute.v
ENCODING 57821
SWIDTH 1000 0
DWIDTH 14 0
BBX 11 14 1 -2
BITMAP
024000
0B4550
0A5550
180000
3C0000
3EA400
2FE100
004400
011000
184100
384000
780000
7FFFF4
2AAA90
ENDCHAR
STARTCHAR Zdotaccent.v
ENCODING 57822
SWIDTH 1000 0
DWIDTH 14 0
BBX 11 15 1 -2
BITMAP
005040
01D000
02D040
055540
180000
3C0000
3EA400
2FE100
004400
011000
184100
384000
780000
7FFFF4
2AAA90
ENDCHAR
STARTCHAR Zcaron.v
ENCODING 57823
SWIDTH 1000 0
DWIDTH 14 0
BBX 11 15 1 -2
BITMAP
020000
0B0000
0F9050
0A5540
180000
3C0000
3EA400
2FE100
004400
011000
184100
384000
780000
7FFFF4
2AAA90
ENDCHAR
STARTCHAR AE.v
ENCODING 57824
SWIDTH 1000 0
DWIDTH 14 0
BBX 11 12 1 -2
BITMAP
010000
0A1100
0D0014
281414
342400
740000
B50128
B41410
B43400
B43800
BFBFF8
696A90
ENDCHAR
STARTCHAR Eth.v
ENCODING 57825
SWIDTH 1000 0
DWIDTH 14 0
BBX 10 12 1 -2
BITMAP
080000
384000
780500
780F00
700300
F04300
F80B00
F80500
784000
780010
7FFFD0
2AA900
ENDCHAR
STARTCHAR Oslash.v
ENCODING 57826
SWIDTH 1000 0
DWIDTH 14 0
BBX 11 14 1 -3
BITMAP
000104
010004
081040
280800
381800
781400
780140
780240
780200
7C1040
3D0000
2D1AD0
1FFA00
1A0000
ENDCHAR
STARTCHAR Thorn.v
ENCODING 57827
SWIDTH 1000 0
DWIDTH 14 0
BBX 11 12 1 -2
BITMAP
080000
380000
784000
780010
780F00
780F00
780000
784004
780590
780F80
7FD400
2A4000
ENDCHAR
STARTCHAR Dcroat.v
ENCODING 57828
SWIDTH 1000 0
DWIDTH 14 0
BBX 10 12 1 -2
BITMAP
080000
384000
780500
780F00
700300
F04300
F80B00
F80500
784000
780010
7FFFD0
2AA900
ENDCHAR
STARTCHAR Hbar.v
ENCODING 57829
SWIDTH 1000 0
DWIDTH 14 0
BBX 12 12 1 -2
BITMAP
080200
380601
704010
F00000
F80F01
B80000
784010
780000
781F00
781F00
7FDFF4
2A0A90
ENDCHAR
STARTCHAR IJ.v
ENCODING 57830
SWIDTH 1000 0
DWIDTH 14 0
BBX 10 12 1 -2
BITMAP
080200
380B00
780F00
780F00
780F00
7E9F00
7F8F00
050400
280000
780010
7FFFC0
2AA900
ENDCHAR
STARTCHAR Ldot.v
ENCODING 57831
SWIDTH 1000 0
DWIDTH 14 0
BBX 11 15 1 -5
BITMAP
080000
380000
780000
780000
780140
780700
780A00
780000
780000
7EAAA4
7FE5A0
01E000
01E000
01FF40
01A800
ENDCHAR
STARTCHAR Lslash.v
ENCODING 57832
SWIDTH 1000 0
DWIDTH 14 0
BBX 11 12 1 -2
BITMAP
080000
380000
780400
780000
744140
B40B00
B80F00
780500
784010
780000
7FFFF4
2AAA90
ENDCHAR
STARTCHAR Eng.v
ENCODING 57833
SWIDTH 1000 0
DWIDTH 14 0
BBX 11 12 1 -3
BITMAP
040040
280400
380F00
780F00
780F00
780F00
780F00
780D00
781800
7FF804
2ABE90
007E40
ENDCHAR
STARTCHAR OE.v
ENCODING 57834
SWIDTH 1000 0
DWIDTH 14 0
BBX 12 11 1 -2
BITMAP
080040
341414
742814
B42840
B42800
B42818
B41414
780040
7E0001
2FFFF8
06AA90
ENDCHAR
STARTCHAR Tbar.v
ENCODING 57835
SWIDTH 1000 0
DWIDTH 14 0
BBX 11 13 1 -2
BITMAP
040000
280000
780400
7D4014
7FD070
168050
060400
1E0000
1FD050
0BD000
02D000
02FA00
02FD00
ENDCHAR
STARTCHAR Germandbls.v
ENCODING 57836
SWIDTH 1000 0
DWIDTH 14 0
BBX 11 12 1 -2
BITMAP
080000
384000
780400
780C04
780C40
780C10
780F40
780900
780800
781804
7FFFD0
2A6A40
ENDCHAR
STARTCHAR A.salt_v
ENCODING 57837
SWIDTH 1000 0
DWIDTH 14 0
BBX 11 12 1 -2
BITMAP
010004
080000
380900
381F00
780A00
780000
784010
780A00
781F00
781F00
7FDFF4
2A0A90
ENDCHAR
STARTCHAR Agrave.salt_v
ENCODING 57838
SWIDTH 1000 0
DWIDTH 14 0
BBX 11 15 1 -2
BITMAP
010000
0B0000
0F9500
0F9550
040000
184000
380F00
781F00
780000
784010
780500
781F00
781F00
7FDFF4
2A0A90
ENDCHAR
STARTCHAR Aacute.salt_v
ENCODING 57839
SWIDTH 1000 0
DWIDTH 14 0
BBX 11 15 1 -2
BITMAP
000010
020000
0F0550
0F9550
080000
184000
380F00
781F00
780000
784010
780500
781F00
781F00
7FDFF4
2A0A90
ENDCHAR
STARTCHAR Acircumflex.salt_v
ENCODING 57840
SWIDTH 1000 0
DWIDTH 14 0
BBX 11 14 1 -2
BITMAP
020000
0F1A40
0F9550
080000
184000
380F00
781F00
780000
784010
780500
781F00
781F00
7FDFF4
2A0A90
ENDCHAR
STARTCHAR Atilde.salt_v
ENCODING 57841
SWIDTH 1000 0
DWIDTH 14 0
BBX 11 15 1 -2
BITMAP
000010
020000
0F1410
0F9550
080000
184000
380F00
781F00
780000
784010
780500
781F00
781F00
7FDFF4
2A0A90
ENDCHAR
STARTCHAR Adieresis.salt_v
ENCODING 57842
SWIDTH 1000 0
DWIDTH 14 0
BBX 11 15 1 -2
BITMAP
010500
0A0900
1E0900
1F9550
080000
184000
380F00
781F00
780000
784010
780500
781F00
781F00
7FDFF4
2A0A90
ENDCHAR
STARTCHAR Aring.salt_v
ENCODING 57843
SWIDTH 1000 0
DWIDTH 14 0
BBX 11 15 1 -2
BITMAP
004000
021040
0E0E00
0F1540
0C0500
184000
380F00
781F00
780000
784010
780500
781F00
781F00
7FDFF4
2A0A90
ENDCHAR
STARTCHAR Amacron.salt_v
ENCODING 57844
SWIDTH 1000 0
DWIDTH 14 0
BBX 11 14 1 -2
BITMAP
070000
0F0010
0F9550
080000
184000
380F00
781F00
780000
784010
780500
781F00
781F00
7FDFF4
2A0A90
ENDCHAR
STARTCHAR Abreve.salt_v
ENCODING 57845
SWIDTH 1000 0
DWIDTH 14 0
BBX 11 15 1 -2
BITMAP
020600
0F1040
0F8050
0B9550
040000
184000
380F00
781F00
780000
784010
780500
781F00
781F00
7FDFF4
2A0A90
ENDCHAR
STARTCHAR Aogonek.salt_v
ENCODING 57846
SWIDTH 1000 0
DWIDTH 14 0
BBX 11 14 1 -5
BITMAP
040004
180000
381F00
781F00
780000
784010
780500
781F00
781F00
7FDE04
2A0E00
001F94
000FF4
000140
ENDCHAR
STARTCHAR E.salt_v
ENCODING 57847
SWIDTH 1000 0
DWIDTH 14 0
BBX 11 12 1 -2
BITMAP
010000
080000
280554
780AA0
784000
780000
780F90
780544
7C0000
3E4000
1FFFF4
06AA90
ENDCHAR
STARTCHAR Egrave.salt_v
ENCODING 57848
SWIDTH 1000 0
DWIDTH 14 0
BBX 11 15 1 -2
BITMAP
010000
0B0000
0F9500
0FA554
050000
184000
380FF4
780010
784000
780A90
780544
7C0000
3E4000
2FFFF4
06AA90
ENDCHAR
STARTCHAR Eacute.salt_v
ENCODING 57849
SWIDTH 1000 0
DWIDTH 14 0
BBX 11 15 1 -2
BITMAP
000010
020000
0F0550
0FA544
090000
184000
380FF4
780010
784000
780A90
780544
7C0000
3E4000
2FFFF4
06AA90
ENDCHAR
STARTCHAR Ecircumflex.salt_v
ENCODING 57850
SWIDTH 1000 0
DWIDTH 14 0
BBX 11 14 1 -2
BITMAP
020000
0F1A40
0FA554
090000
184000
380FF4
780010
784000
780A90
780544
7C0000
3E4000
2FFFF4
06AA90
ENDCHAR
STARTCHAR Edieresis.salt_v
ENCODING 57851
SWIDTH 1000 0
DWIDTH 14 0
BBX 11 15 1 -2
BITMAP
010500
0A0900
1E0900
1FA550
090000
184000
380FF4
780010
784000
780A90
780544
7C0000
3E4000
2FFFF4
06AA90
ENDCHAR
STARTCHAR Emacron.salt_v
ENCODING 57852
SWIDTH 1000 0
DWIDTH 14 0
BBX 11 14 1 -2
BITMAP
070000
0F0010
0FA554
090000
184000
380FF4
780010
784000
780A90
780544
7C0000
3E4000
2FFFF4
06AA90
ENDCHAR
STARTCHAR Ebreve.salt_v
ENCODING 57853
SWIDTH 1000 0
DWIDTH 14 0
BBX 11 15 1 -2
BITMAP
020600
0F1040
0F8050
0BA544
050000
184000
380FF4
780010
784000
780A90
780544
7C0000
3E4000
2FFFF4
06AA90
ENDCHAR
STARTCHAR Edotaccent.salt_v
ENCODING 57854
SWIDTH 1000 0
DWIDTH 14 0
BBX 11 15 1 -2
BITMAP
005040
01D000
02D040
02A544
050000
184000
380FF4
780010
784000
780A90
780544
7C0000
3E4000
2FFFF4
06AA90
ENDCHAR
STARTCHAR Eogonek.salt_v
ENCODING 57855
SWIDTH 1000 0
DWIDTH 14 0
BBX 11 14 1 -4
BITMAP
010000
080000
280554
780560
784000
780550
780B90
780000
7D0040
2FA904
0BFE00
001E00
001FF4
000A90
ENDCHAR
STARTCHAR Ecaron.salt_v
ENCODING 57856
SWIDTH 1000 0
DWIDTH 14 0
BBX 11 15 1 -2
BITMAP
020000
0B0000
0F9050
0BA544
050000
184000
380FF4
780010
784000
780A90
780544
7C0000
3E4000
2FFFF4
06AA90
ENDCHAR
STARTCHAR I.salt_v
ENCODING 57857
SWIDTH 1000 0
DWIDTH 14 0
BBX 6 12 4 -2
BITMAP
1400
7400
B400
B400
B400
B400
B400
B400
B400
B410
BF80
6A00
ENDCHAR
STARTCHAR I_I.salt_v
ENCODING 57858
SWIDTH 1000 0
DWIDTH 14 0
BBX 11 12 1 -2
BITMAP
080200
380B00
780F00
780F00
780F00
780F00
780F00
780F00
780F00
780F00
7FDFF4
2A4A90
ENDCHAR
STARTCHAR Igrave.salt_v
ENCODING 57859
SWIDTH 1000 0
DWIDTH 14 0
BBX 8 15 3 -2
BITMAP
1000
B000
F950
FE59
1D00
2D00
2D00
2D00
2D00
2D00
2D00
2D00
2D04
2FE0
1A80
ENDCHAR
STARTCHAR Iacute.salt_v
ENCODING 57860
SWIDTH 1000 0
DWIDTH 14 0
BBX 8 15 3 -2
BITMAP
0001
2000
F055
FE54
AD00
2D00
2D00
2D00
2D00
2D00
2D00
2D00
2D04
2FE0
1A80
ENDCHAR
STARTCHAR Icircumflex.salt_v
ENCODING 57861
SWIDTH 1000 0
DWIDTH 14 0
BBX 8 14 3 -2
BITMAP
2000
F1A4
FE59
AD00
2D00
2D00
2D00
2D00
2D00
2D00
2D00
2D04
2FE0
1A80
ENDCHAR
STARTCHAR Idieresis.salt_v
ENCODING 57862
SWIDTH 1000 0
DWIDTH 14 0
BBX 9 15 2 -2
BITMAP
041400
282400
782400
7F9640
2B4000
0B4000
0B4000
0B4000
0B4000
0B4000
0B4000
0B4000
0B4100
0BF800
06A000
ENDCHAR
STARTCHAR Itilde.salt_v
ENCODING 57863
SWIDTH 1000 0
DWIDTH 14 0
BBX 8 15 3 -2
BITMAP
0001
2000
F141
FE58
AD00
2D00
2D00
2D00
2D00
2D00
2D00
2D00
2D04
2FE0
1A80
ENDCHAR
STARTCHAR Imacron.salt_v
ENCODING 57864
SWIDTH 1000 0
DWIDTH 14 0
BBX 8 14 3 -2
BITMAP
7000
F001
FE59
6D00
2D00
2D00
2D00
2D00
2D00
2D00
2D00
2D04
2FE0
1A80
ENDCHAR
STARTCHAR Ibreve.salt_v
ENCODING 57865
SWIDTH 1000 0
DWIDTH 14 0
BBX 8 15 3 -2
BITMAP
2060
F104
F805
FE54
2D00
2D00
2D00
2D00
2D00
2D00
2D00
2D00
2D04
2FE0
1A80
ENDCHAR
STARTCHAR Iogonek.salt_v
ENCODING 57866
SWIDTH 1000 0
DWIDTH 14 0
BBX 6 15 4 -5
BITMAP
0400
2400
B400
B400
B400
B400
B400
B400
B400
B400
B450
B000
B950
BF80
1500
ENDCHAR
STARTCHAR Idotaccent.salt_v
ENCODING 57867
SWIDTH 1000 0
DWIDTH 14 0
BBX 6 15 4 -2
BITMAP
1410
7400
B410
B950
7400
B400
B400
B400
B400
B400
B400
B400
B410
BF80
6A00
ENDCHAR
STARTCHAR L.salt_v
ENCODING 57868
SWIDTH 1000 0
DWIDTH 14 0
BBX 11 12 1 -2
BITMAP
080000
380000
780000
780000
780000
780000
780000
780004
784000
780000
7FFFF4
2AAA90
ENDCHAR
STARTCHAR Lacute.salt_v
ENCODING 57869
SWIDTH 1000 0
DWIDTH 14 0
BBX 11 15 1 -2
BITMAP
000040
180000
381540
7D6D00
380000
780000
780000
780000
780000
780000
780004
784000
780000
7FFFF4
2AAA90
ENDCHAR
STARTCHAR Lcommaaccent.salt_v
ENCODING 57870
SWIDTH 1000 0
DWIDTH 14 0
BBX 11 16 1 -6
BITMAP
080000
380000
780000
780000
780000
780000
780400
780000
780000
7EAAA4
7FD0A0
01D100
02E400
02D100
01FD00
01A000
ENDCHAR
STARTCHAR Lcaron.salt_v
ENCODING 57871
SWIDTH 1000 0
DWIDTH 14 0
BBX 12 12 1 -2
BITMAP
080050
3802C0
780380
7803D5
7807F4
780150
780000
780004
784000
780000
7FFFF4
2AAA90
ENDCHAR
STARTCHAR Ldot.salt_v
ENCODING 57872
SWIDTH 1000 0
DWIDTH 14 0
BBX 11 15 1 -5
BITMAP
080000
380000
780000
780000
780000
780000
780400
780000
780000
7EAAA4
7F95E0
028000
078000
07FD00
02A400
ENDCHAR
STARTCHAR Lslash.salt_v
ENCODING 57873
SWIDTH 1000 0
DWIDTH 14 0
BBX 11 12 1 -2
BITMAP
080000
380000
780400
740000
704000
F00400
F80000
B80004
784000
780000
7FFFF4
2AAA90
ENDCHAR
STARTCHAR L.salt_s_v
ENCODING 57874
SWIDTH 1000 0
DWIDTH 14 0
BBX 11 12 1 -2
BITMAP
041000
180000
780000
780000
780000
780000
780000
780004
784000
780000
7FFFF4
2AAA90
ENDCHAR
STARTCHAR M.salt_v
ENCODING 57875
SWIDTH 1000 0
DWIDTH 14 0
BBX 12 12 1 -2
BITMAP
040000
240100
B01440
F06080
F06080
F06080
F06080
F06080
F06080
F06091
FFFFFD
A9A5A0
ENDCHAR
STARTCHAR N.salt_v
ENCODING 57876
SWIDTH 1000 0
DWIDTH 14 0
BBX 11 12 1 -2
BITMAP
010004
080040
380900
380F00
780F00
780F00
780F00
780F00
780F00
781F00
7FDFF4
2A0A90
ENDCHAR
STARTCHAR Ntilde.salt_v
ENCODING 57877
SWIDTH 1000 0
DWIDTH 14 0
BBX 11 15 1 -2
BITMAP
000010
020000
0F1410
0F9550
090000
180000
380E00
780F00
780F00
780F00
780F00
780F00
781F00
7FDFF4
2A4A90
ENDCHAR
STARTCHAR Nacute.salt_v
ENCODING 57878
SWIDTH 1000 0
DWIDTH 14 0
BBX 11 15 1 -2
BITMAP
000010
020000
0F0550
0F9550
090000
180000
380E00
780F00
780F00
780F00
780F00
780F00
781F00
7FDFF4
2A4A90
ENDCHAR
STARTCHAR Ncommaaccent.salt_v
ENCODING 57879
SWIDTH 1000 0
DWIDTH 14 0
BBX 11 15 1 -5
BITMAP
010000
080040
280500
380F00
780F00
780F00
780F00
780F00
7EAAA4
3FD060
02D000
02E500
01E500
01F800
005000
ENDCHAR
STARTCHAR Ncaron.salt_v
ENCODING 57880
SWIDTH 1000 0
DWIDTH 14 0
BBX 11 15 1 -2
BITMAP
020000
0B0000
0F9050
0B9540
040000
180000
380E00
780F00
780F00
780F00
780F00
780F00
781F00
7FDFF4
2A4A90
ENDCHAR
STARTCHAR W.salt_v
ENCODING 57881
SWIDTH 1000 0
DWIDTH 14 0
BBX 11 12 1 -2
BITMAP
205080
B06080
F06080
F06080
F06080
F06080
F06080
F01440
F40100
B80400
7FFFE4
1A9A80
ENDCHAR
STARTCHAR Wcircumflex.salt_v
ENCODING 57882
SWIDTH 1000 0
DWIDTH 14 0
BBX 11 14 1 -2
BITMAP
020000
0F1A40
09B5E0
706080
F06080
F06080
F06080
F06080
F06080
F01440
F40100
B80400
7FFFE4
2A9A80
ENDCHAR
STARTCHAR Wgrave.salt_v
ENCODING 57883
SWIDTH 1000 0
DWIDTH 14 0
BBX 11 15 1 -2
BITMAP
010000
0B0000
0F9500
09B5D0
706080
F06080
F06080
F06080
F06080
F06080
F01440
F40100
B80400
7FFFE4
2A9A80
ENDCHAR
STARTCHAR Wacute.salt_v
ENCODING 57884
SWIDTH 1000 0
DWIDTH 14 0
BBX 11 15 1 -2
BITMAP
000010
020000
0F0550
09B590
706080
F06080
F06080
F06080
F06080
F06080
F01440
F40100
B80400
7FFFE4
2A9A80
ENDCHAR
STARTCHAR Wdieresis.salt_v
ENCODING 57885
SWIDTH 1000 0
DWIDTH 14 0
BBX 11 15 1 -2
BITMAP
010500
0A0900
1E0900
19B5E0
706080
F06080
F06080
F06080
F06080
F06080
F01440
F40100
B80400
7FFFE4
2A9A80
ENDCHAR
STARTCHAR X.salt_v
ENCODING 57886
SWIDTH 1100 0
DWIDTH 15 0
BBX 11 12 2 -2
BITMAP
180500
7C0D00
7D0C00
3D0400
281004
344000
B41900
B42E00
B41E00
B41E00
BF9FF4
6A0A90
ENDCHAR
STARTCHAR Y.salt_v
ENCODING 57887
SWIDTH 1000 0
DWIDTH 14 0
BBX 11 12 1 -2
BITMAP
080200
380B00
780F00
780F00
780500
7C0000
3E0014
2FD050
07D000
02D040
02FE00
01A800
ENDCHAR
STARTCHAR Yacute.salt_v
ENCODING 57888
SWIDTH 1000 0
DWIDTH 14 0
BBX 11 15 1 -2
BITMAP
000010
020000
0F0550
0E6F40
180B00
780F00
780F00
780A00
7C0000
3D0404
2FD050
0BD040
02D040
02FE00
01A800
ENDCHAR
STARTCHAR Ycircumflex.salt_v
ENCODING 57889
SWIDTH 1000 0
DWIDTH 14 0
BBX 11 14 1 -2
BITMAP
020000
0F1A40
0EAF90
180B00
780F00
780F00
780A00
7C0000
3D0404
2FD050
0BD040
02D040
02FE00
01A800
ENDCHAR
STARTCHAR Ydieresis.salt_v
ENCODING 57890
SWIDTH 1000 0
DWIDTH 14 0
BBX 11 15 1 -2
BITMAP
010500
0A0900
1E0900
1EAF90
280B00
780F00
780F00
780A00
7C0000
3D0404
2FD050
0BD040
02D040
02FE00
01A800
ENDCHAR
STARTCHAR Ygrave.salt_v
ENCODING 57891
SWIDTH 1000 0
DWIDTH 14 0
BBX 11 15 1 -2
BITMAP
010000
0B0000
0F9500
0EAF90
180B00
780F00
780F00
780A00
7C0000
3D0404
2FD050
0BD040
02D040
02FE00
01A800
ENDCHAR
STARTCHAR AE.salt_v
ENCODING 57892
SWIDTH 1000 0
DWIDTH 14 0
BBX 12 11 1 -2
BITMAP
080040
341414
742814
B42840
B40000
B40018
B41414
B42840
B42801
BFBFF8
692A90
ENDCHAR
STARTCHAR IJ.salt_v
ENCODING 57893
SWIDTH 1000 0
DWIDTH 14 0
BBX 10 23 1 -7
BITMAP
001000
009000
02D000
02D000
02D000
02D000
02D000
02D000
02D000
02D040
02FE00
01A900
000700
000F00
000F00
001F00
181F00
381F00
784500
7C0000
3E0000
2FFAD0
06FA00
ENDCHAR
STARTCHAR IJ.stack_v
ENCODING 57894
SWIDTH 1000 0
DWIDTH 14 0
BBX 11 22 1 -7
BITMAP
180000
3C0400
3E8064
3FD060
02D000
02D000
018000
180400
3C0000
3EAAA4
3FFF90
000600
000F00
000F00
001F00
181F00
381F00
780900
7C0000
3D0004
2FEA90
0BFE40
ENDCHAR
STARTCHAR commaaccent.v
ENCODING 57895
SWIDTH 1000 0
DWIDTH 14 0
BBX 5 6 4 -7
BITMAP
2400
B400
B940
7940
7E00
1400
ENDCHAR
STARTCHAR hyphen.v
ENCODING 57896
SWIDTH 1000 0
DWIDTH 14 0
BBX 5 7 4 1
BITMAP
0400
2400
7400
7400
7400
7E80
7E00
ENDCHAR
STARTCHAR endash.v
ENCODING 57897
SWIDTH 1000 0
DWIDTH 14 0
BBX 5 10 4 -1
BITMAP
1400
7400
7400
7400
7400
7400
7400
7400
7F80
6A00
ENDCHAR
STARTCHAR emdash.v
ENCODING 57898
SWIDTH 1000 0
DWIDTH 14 0
BBX 5 16 4 -4
BITMAP
1400
7400
7400
7400
7400
7400
7400
7400
7400
7400
7400
7400
7400
7800
7F80
6900
ENDCHAR
STARTCHAR parenleft.v
ENCODING 57899
SWIDTH 1000 0
DWIDTH 14 0
BBX 15 7 -1 1
BITMAP
00400010
01000004
08000000
28055500
382FFF40
7E955BE4
3F0007E0
ENDCHAR
STARTCHAR parenright.v
ENCODING 57900
SWIDTH 1000 0
DWIDTH 14 0
BBX 16 7 -1 1
BITMAP
00000040
18000240
38000000
7C000000
3E000000
2FEAAA90
0BFFFE40
ENDCHAR
STARTCHAR bracketleft.v
ENCODING 57901
SWIDTH 1000 0
DWIDTH 14 0
BBX 15 6 -1 1
BITMAP
18000000
38400010
78055500
782FFF40
7E955BE4
3F0007E0
ENDCHAR
STARTCHAR bracketright.v
ENCODING 57902
SWIDTH 1000 0
DWIDTH 14 0
BBX 15 7 -1 1
BITMAP
00000040
18000240
38000000
78400010
78000000
7EAAAAA4
3FFFFFE0
ENDCHAR
STARTCHAR braceleft.v
ENCODING 57903
SWIDTH 1000 0
DWIDTH 14 0
BBX 15 8 -1 0
BITMAP
00014000
00400010
04010000
1C405000
381AFA40
3D6EFF94
7F400BF4
15000140
ENDCHAR
STARTCHAR braceright.v
ENCODING 57904
SWIDTH 1000 0
DWIDTH 14 0
BBX 16 8 -1 0
BITMAP
04000040
28001100
7C405010
3D010000
3F540150
1FFF5F80
056FD500
00050000
ENDCHAR
STARTCHAR quoteleft.v
ENCODING 57905
SWIDTH 1000 0
DWIDTH 14 0
BBX 6 8 4 1
BITMAP
0410
2400
7190
F000
F100
F010
FFD0
AA40
ENDCHAR
STARTCHAR quoteright.v
ENCODING 57906
SWIDTH 1000 0
DWIDTH 14 0
BBX 6 8 4 0
BITMAP
1410
B040
F000
FA00
F410
7990
BF40
6800
ENDCHAR
STARTCHAR quotedblleft.v
ENCODING 57907
SWIDTH 1000 0
DWIDTH 14 0
BBX 11 8 1 1
BITMAP
010404
080500
286D24
380500
780540
780500
7FFFF4
2AAA90
ENDCHAR
STARTCHAR quotedblright.v
ENCODING 57908
SWIDTH 1000 0
DWIDTH 14 0
BBX 11 8 1 0
BITMAP
040500
280500
780500
7E4790
3C0900
2D6E54
3FAFD0
291A40
ENDCHAR
STARTCHAR quotesinglbase.v
ENCODING 57909
SWIDTH 1000 0
DWIDTH 14 0
BBX 6 8 4 1
BITMAP
0410
2000
B040
F000
FA00
B400
BA40
BD00
ENDCHAR
STARTCHAR quotedblbase.v
ENCODING 57910
SWIDTH 1000 0
DWIDTH 14 0
BBX 11 8 1 0
BITMAP
040500
280500
780500
7E4790
3C0900
2D6E54
3FAFD0
291A40
ENDCHAR
STARTCHAR guilsinglleft.v
ENCODING 57911
SWIDTH 1000 0
DWIDTH 14 0
BBX 10 8 2 0
BITMAP
010000
090000
1C0000
2C1400
382400
396950
7FBF80
151500
ENDCHAR
STARTCHAR guilsinglright.v
ENCODING 57912
SWIDTH 1000 0
DWIDTH 14 0
BBX 8 8 2 0
BITMAP
0414
7824
7C14
7C00
3D00
2E00
1FFD
0AA0
ENDCHAR
STARTCHAR guillemotleft.v
ENCODING 57913
SWIDTH 1000 0
DWIDTH 14 0
BBX 10 12 2 -2
BITMAP
010000
050000
1C0000
281400
396950
7F5580
190000
1C0000
2C1400
396950
7FBF80
151500
ENDCHAR
STARTCHAR guillemotright.v
ENCODING 57914
SWIDTH 1000 0
DWIDTH 14 0
BBX 8 12 2 -2
BITMAP
0414
3814
7C00
3D00
2F55
1868
3814
7C00
3D00
2F41
1FF8
0690
ENDCHAR
STARTCHAR period.v
ENCODING 57915
SWIDTH 1000 0
DWIDTH 14 0
BBX 6 6 4 1
BITMAP
0410
7000
F000
F000
FA90
FF40
ENDCHAR
STARTCHAR comma.v
ENCODING 57916
SWIDTH 1000 0
DWIDTH 14 0
BBX 6 8 4 1
BITMAP
0410
2000
B040
F000
FA00
B400
BA40
BD00
ENDCHAR
STARTCHAR ellipsis.v
ENCODING 57917
SWIDTH 1000 0
DWIDTH 14 0
BBX 16 6 -1 1
BITMAP
04010441
701C0200
F01C0700
F01C0700
FABEABA9
FF7FDBF4
ENDCHAR
STARTCHAR exclamdown.v
ENCODING 57918
SWIDTH 1000 0
DWIDTH 14 0
BBX 6 13 4 -2
BITMAP
1410
7000
B000
B400
BFD0
7400
B400
B400
B400
B000
B000
BA90
BF40
ENDCHAR
STARTCHAR questiondown.v
ENCODING 57919
SWIDTH 1000 0
DWIDTH 14 0
BBX 10 13 2 -2
BITMAP
001040
00D000
02D000
02D040
02EA40
040000
200000
B01640
F01910
F00000
F80000
BFAA90
2FFF40
ENDCHAR
STARTCHAR dagger.v
ENCODING 57920
SWIDTH 1000 0
DWIDTH 14 0
BBX 11 13 1 -2
BITMAP
001040
009000
02D000
044000
380400
780000
7FE0B8
7FE0A0
01D000
01D000
01D000
02FA00
02FD00
ENDCHAR
STARTCHAR daggerdbl.v
ENCODING 57921
SWIDTH 1000 0
DWIDTH 14 0
BBX 11 13 1 -2
BITMAP
001040
01D040
180000
380400
780000
7FD0B8
6BD0A4
180000
780400
795054
7FD0B4
16FA50
02FD00
ENDCHAR
STARTCHAR perthousand.v
ENCODING 57922
SWIDTH 1000 0
DWIDTH 14 0
BBX 14 12 0 -2
BITMAP
04044400
24020000
74801000
B4010000
B8004000
7FC00010
1B905000
02008200
09251040
18781000
3EBFFF40
682AA900
ENDCHAR
STARTCHAR ampersand.salt_v
ENCODING 57923
SWIDTH 1000 0
DWIDTH 14 0
BBX 11 14 1 -3
BITMAP
002010
004000
060000
0E0154
1E06A0
1E1400
0C4000
281FD0
780540
780100
7E0000
2FF034
06FA90
00BD00
ENDCHAR
STARTCHAR quoteleft.salt_v
ENCODING 57924
SWIDTH 1000 0
DWIDTH 14 0
BBX 6 6 1 1
BITMAP
0500
1850
3800
7950
7F80
1500
ENDCHAR
STARTCHAR quoteright.salt_v
ENCODING 57925
SWIDTH 1000 0
DWIDTH 14 0
BBX 6 6 1 1
BITMAP
0410
2840
7D40
7C40
3F40
2800
ENDCHAR
STARTCHAR A.s_v
ENCODING 57926
SWIDTH 1000 0
DWIDTH 14 0
BBX 11 12 1 -2
BITMAP
004000
020000
0A1000
0D0500
1C0A00
280500
384010
780500
781F00
781F00
7FDFF8
2A0A90
ENDCHAR
STARTCHAR C.s_v
ENCODING 57927
SWIDTH 1000 0
DWIDTH 14 0
BBX 11 11 1 -2
BITMAP
050000
184000
380AA4
780FD0
780000
780000
780004
7C0000
3E4000
2FFFF4
06AA90
ENDCHAR
STARTCHAR D.s_v
ENCODING 57928
SWIDTH 1000 0
DWIDTH 14 0
BBX 11 12 1 -2
BITMAP
040000
180004
780000
780E00
780F00
780B00
780B00
780500
784000
780010
7FFFD0
2AA900
ENDCHAR
STARTCHAR E.s_v
ENCODING 57929
SWIDTH 1000 0
DWIDTH 14 0
BBX 11 12 1 -2
BITMAP
040004
180000
780000
780FF4
780010
784000
780A90
780544
784000
780000
7FFFF4
2AAA90
ENDCHAR
STARTCHAR G.s_v
ENCODING 57930
SWIDTH 1000 0
DWIDTH 14 0
BBX 11 11 1 -2
BITMAP
050000
184000
380AA0
781F80
780200
780B00
784500
7C0000
3E4000
2FFFF4
06AA90
ENDCHAR
STARTCHAR H.s_v
ENCODING 57931
SWIDTH 1000 0
DWIDTH 14 0
BBX 11 12 1 -2
BITMAP
041100
180700
780F00
780A00
780000
784010
780500
780F00
780F00
780F00
7FDFF4
2A4A90
ENDCHAR
STARTCHAR I.s_v
ENCODING 57932
SWIDTH 1000 0
DWIDTH 14 0
BBX 10 12 2 -2
BITMAP
100000
600000
F00000
FA4190
BF4140
0B4000
0B4000
150010
B01000
F00000
FFFFD0
AAAA40
ENDCHAR
STARTCHAR J.s_v
ENCODING 57933
SWIDTH 1000 0
DWIDTH 14 0
BBX 10 12 1 -2
BITMAP
000100
000700
000F00
000F00
001F00
181F00
781F00
784500
7C0000
3E0010
2FFAD0
06FA00
ENDCHAR
STARTCHAR K.s_v
ENCODING 57934
SWIDTH 1000 0
DWIDTH 14 0
BBX 11 12 1 -2
BITMAP
041004
180500
780C00
780410
780004
784100
780500
780F00
780F00
780F00
7FDFF4
2A4A90
ENDCHAR
STARTCHAR L.s_v
ENCODING 57935
SWIDTH 1000 0
DWIDTH 14 0
BBX 11 12 1 -2
BITMAP
041000
180000
780000
780000
780040
780200
780B00
780500
784010
780000
7FFFF4
2AAA90
ENDCHAR
STARTCHAR N.s_v
ENCODING 57936
SWIDTH 1000 0
DWIDTH 14 0
BBX 11 12 1 -2
BITMAP
040040
180700
784300
780100
780000
780000
781800
781E10
781F00
781F00
7FDFF4
2A0A90
ENDCHAR
STARTCHAR O.s_v
ENCODING 57937
SWIDTH 1000 0
DWIDTH 14 0
BBX 11 11 1 -2
BITMAP
040004
180000
380F00
780F00
780B00
780B00
780500
7C1040
3E0004
2FFAD0
06FA00
ENDCHAR
STARTCHAR R.s_v
ENCODING 57938
SWIDTH 1000 0
DWIDTH 14 0
BBX 11 12 1 -2
BITMAP
040050
180000
780000
780D00
780804
784040
780000
780A00
780F00
780F00
7FDFF8
2A4690
ENDCHAR
STARTCHAR S.s_v
ENCODING 57939
SWIDTH 1000 0
DWIDTH 14 0
BBX 11 11 1 -2
BITMAP
040000
184000
380BF4
784004
7C0000
3F9500
2EA900
180000
780014
7FFFD0
2AAA00
ENDCHAR
STARTCHAR T.s_v
ENCODING 57940
SWIDTH 1000 0
DWIDTH 14 0
BBX 11 12 1 -2
BITMAP
040000
180000
780000
7E9064
2FD050
02D000
02D000
02D000
02D000
02D000
02FE00
01A800
ENDCHAR
STARTCHAR U.s_v
ENCODING 57941
SWIDTH 1000 0
DWIDTH 14 0
BBX 10 12 1 -2
BITMAP
041000
180700
780F00
780F00
780F00
780F00
780F00
780500
7C0040
3E0000
2FFAD0
06FA00
ENDCHAR
STARTCHAR W.s_v
ENCODING 57942
SWIDTH 1000 0
DWIDTH 14 0
BBX 11 12 1 -2
BITMAP
040040
240280
B40780
B41580
B41040
B40000
740000
780500
7C0A00
3D0F04
3FEFE0
1A4A80
ENDCHAR
STARTCHAR Y.s_v
ENCODING 57943
SWIDTH 1000 0
DWIDTH 14 0
BBX 10 12 1 -2
BITMAP
041040
180700
780F00
780F00
7C0500
3E0000
2F4410
0FC000
07D000
02D040
02FE00
01A800
ENDCHAR
STARTCHAR Z.s_v
ENCODING 57944
SWIDTH 1000 0
DWIDTH 14 0
BBX 11 12 1 -2
BITMAP
040000
180000
3C0000
3EA400
2FE100
004400
011000
184100
384000
780000
7FFFF4
2AAA90
ENDCHAR
STARTCHAR A.salt_s_v
ENCODING 57945
SWIDTH 1000 0
DWIDTH 14 0
BBX 11 11 1 -2
BITMAP
040004
184000
380F00
781F00
780000
784010
780500
781F00
781F00
7FDFF4
2A0A90
ENDCHAR
STARTCHAR E.salt_s_v
ENCODING 57946
SWIDTH 1000 0
DWIDTH 14 0
BBX 11 12 1 -2
BITMAP
000004
050000
184000
380FF4
780010
784000
780A90
780544
7C0000
3E4000
2FFFF4
06AA90
ENDCHAR
STARTCHAR I.salt_s_v
ENCODING 57947
SWIDTH 1000 0
DWIDTH 14 0
BBX 6 12 4 -2
BITMAP
0400
2400
B400
B400
B400
B400
B400
B400
B400
B410
BF80
6A00
ENDCHAR
STARTCHAR N.salt_s_v
ENCODING 57948
SWIDTH 1000 0
DWIDTH 14 0
BBX 11 11 1 -2
BITMAP
040004
180000
380E00
780F00
780F00
780F00
780F00
780F00
781F00
7FDFF4
2A4A90
ENDCHAR
STARTCHAR W.salt_s_v
ENCODING 57949
SWIDTH 1000 0
DWIDTH 14 0
BBX 11 12 1 -2
BITMAP
041010
706080
F06080
F06080
F06080
F06080
F06080
F01440
F40100
B80400
7FFFE4
2A9A80
ENDCHAR
STARTCHAR Y.salt_s_v
ENCODING 57950
SWIDTH 1000 0
DWIDTH 14 0
BBX 11 12 1 -2
BITMAP
041000
180700
780F00
780F00
780A00
7C0000
3D0404
2FD050
0BD040
02D040
02FE00
01A800
ENDCHAR
STARTCHAR uniF6C3
ENCODING 63171
SWIDTH 600 0
DWIDTH 8 0
BBX 6 7 1 -7
BITMAP
0400
2400
7400
7E40
7810
3E80
7D00
ENDCHAR
STARTCHAR fi
ENCODING 64257
SWIDTH 1423 0
DWIDTH 20 0
BBX 19 13 0 -2
BITMAP
0400104000
2800024000
78400B4100
780A9B9014
781F8BF414
780001B400
784000B400
780000B400
781F00A000
7818024100
7800074000
7E900BEAA8
7F4007FFE0
ENDCHAR
STARTCHAR fl
ENCODING 64258
SWIDTH 1513 0
DWIDTH 21 0
BBX 21 13 0 -2
BITMAP
040010410000
280002800000
784007800000
780A97800000
781F87800000
780007800000
784007806000
78000781E000
781F07804000
781807840000
780007800000
7E9007EAAA40
7F4007FFFD00
ENDCHAR
STARTCHAR exclam.v
ENCODING 65281
SWIDTH 1000 0
DWIDTH 14 0
BBX 6 13 4 -2
BITMAP
1410
3000
B400
B400
B400
B400
B400
B950
BA80
7000
B000
BA90
BF40
ENDCHAR
STARTCHAR quotedbl.v
ENCODING 65282
SWIDTH 1000 0
DWIDTH 14 0
BBX 10 8 2 1
BITMAP
141410
702400
F02400
F02400
B02400
B42800
BFFFD0
AA6A00
ENDCHAR
STARTCHAR percent.v
ENCODING 65285
SWIDTH 1000 0
DWIDTH 14 0
BBX 11 12 1 -2
BITMAP
040440
240244
748140
B40000
B80040
7FD000
1B8000
024450
091800
1C3D00
2F7FF4
281A80
ENDCHAR
STARTCHAR ampersand.v
ENCODING 65286
SWIDTH 1000 0
DWIDTH 14 0
BBX 12 12 1 -2
BITMAP
010000
060000
1D0540
1E0600
1E1141
184140
341F41
780501
780000
7D0000
3FFFD0
0AAA00
ENDCHAR
STARTCHAR quotesingle.v
ENCODING 65287
SWIDTH 1000 0
DWIDTH 14 0
BBX 6 8 4 1
BITMAP
1410
7400
B400
B400
B400
B400
BF80
6A00
ENDCHAR
STARTCHAR asterisk.v
ENCODING 65290
SWIDTH 1000 0
DWIDTH 14 0
BBX 10 11 2 -1
BITMAP
004100
028000
158150
700000
B41410
FF14D0
AC0000
182810
7F7D40
2FBD00
051000
ENDCHAR
STARTCHAR zero.v
ENCODING 65296
SWIDTH 1000 0
DWIDTH 14 0
BBX 11 12 1 -2
BITMAP
010004
080040
280500
380F00
780F00
780F00
780F00
780500
7C0040
3E0010
2FFAD0
06FA00
ENDCHAR
STARTCHAR one.v
ENCODING 65297
SWIDTH 1000 0
DWIDTH 14 0
BBX 11 12 1 -2
BITMAP
080000
2C0000
3D4000
3FD000
16D000
02D000
02D000
054000
280100
780000
7FFFF4
2AAA90
ENDCHAR
STARTCHAR two.v
ENCODING 65298
SWIDTH 1000 0
DWIDTH 14 0
BBX 11 12 1 -2
BITMAP
080004
2C0000
3D5500
3FE900
150000
080010
2806D0
380540
784000
780000
7FFFF4
2AAA90
ENDCHAR
STARTCHAR three.v
ENCODING 65299
SWIDTH 1000 0
DWIDTH 14 0
BBX 11 12 1 -2
BITMAP
080010
380000
7D5400
7FA800
170140
0F0000
0FFE00
095500
280000
780014
7FFFD0
2AAA00
ENDCHAR
STARTCHAR four.v
ENCODING 65300
SWIDTH 1000 0
DWIDTH 14 0
BBX 11 12 1 -2
BITMAP
080200
380B00
780F00
780F00
780A00
784000
7C0010
3E5500
2FFF00
015F00
000FF4
000A90
ENDCHAR
STARTCHAR five.v
ENCODING 65301
SWIDTH 1000 0
DWIDTH 14 0
BBX 11 12 1 -2
BITMAP
080000
3C4000
3C0554
3C06A0
3C4000
3C0000
3FFE00
2D5500
280000
780014
7FFFD0
2AAA00
ENDCHAR
STARTCHAR six.v
ENCODING 65302
SWIDTH 1000 0
DWIDTH 14 0
BBX 10 12 1 -2
BITMAP
010000
080000
280550
780A90
780000
784000
780F00
780A00
7C0000
3E0010
2FFAD0
06FA00
ENDCHAR
STARTCHAR seven.v
ENCODING 65303
SWIDTH 1000 0
DWIDTH 14 0
BBX 10 12 1 -2
BITMAP
080000
380010
7D5500
7FFF00
155000
014000
070050
0B0280
0F0100
0F0000
0FF800
069000
ENDCHAR
STARTCHAR eight.v
ENCODING 65304
SWIDTH 1000 0
DWIDTH 14 0
BBX 11 12 1 -2
BITMAP
010000
090000
1D0A00
2D0A00
2E1544
184000
381F00
780A00
780000
7E0004
3FFAD0
06FA40
ENDCHAR
STARTCHAR nine.v
ENCODING 65305
SWIDTH 1000 0
DWIDTH 14 0
BBX 11 12 1 -2
BITMAP
010004
080000
280A00
780F00
784010
7D0000
3FAA00
1F5500
0A0000
1E0010
1FFFD0
0AA900
ENDCHAR
STARTCHAR colon.v
ENCODING 65306
SWIDTH 1000 0
DWIDTH 14 0
BBX 6 12 4 -1
BITMAP
0400
2000
B000
F000
F000
FA90
FA40
7000
F000
F000
FA90
FF40
ENDCHAR
STARTCHAR semicolon.v
ENCODING 65307
SWIDTH 1000 0
DWIDTH 14 0
BBX 6 12 4 -2
BITMAP
2000
B000
F000
F410
FF90
7000
B040
F000
FA00
B410
BF40
A900
ENDCHAR
STARTCHAR question.v
ENCODING 65311
SWIDTH 1000 0
DWIDTH 14 0
BBX 10 13 2 -2
BITMAP
140040
700010
F00000
FAA400
FE5000
0C0000
2D0140
2FBF40
2C0400
2C0000
3C0000
3EA000
2FD000
ENDCHAR
STARTCHAR A.v
ENCODING 65313
SWIDTH 1000 0
DWIDTH 14 0
BBX 11 12 1 -2
BITMAP
014000
070000
0E0000
1D0900
2C0E00
380000
784010
780500
781F00
781F00
7FDFF4
2A0A90
ENDCHAR
STARTCHAR B.v
ENCODING 65314
SWIDTH 1000 0
DWIDTH 14 0
BBX 11 12 1 -2
BITMAP
080010
384000
780900
780900
784140
780010
780F00
780A00
784000
780014
7FFFD0
2AAA40
ENDCHAR
STARTCHAR C.v
ENCODING 65315
SWIDTH 1000 0
DWIDTH 14 0
BBX 11 12 1 -2
BITMAP
010000
080000
280554
780FE0
780540
780000
780000
780004
7C0000
3E4000
2FFFF4
06AA90
ENDCHAR
STARTCHAR D.v
ENCODING 65316
SWIDTH 1000 0
DWIDTH 14 0
BBX 10 12 1 -2
BITMAP
080000
384000
780500
780F00
780F00
780B00
780B00
780500
784000
780010
7FFFD0
2AA900
ENDCHAR
STARTCHAR E.v
ENCODING 65317
SWIDTH 1000 0
DWIDTH 14 0
BBX 11 12 1 -2
BITMAP
080000
384000
780554
780AA0
784000
780000
780F90
780544
784000
780000
7FFFF4
2AAA90
ENDCHAR
STARTCHAR F.v
ENCODING 65318
SWIDTH 1000 0
DWIDTH 14 0
BBX 11 12 1 -2
BITMAP
080000
384000
780554
780FE0
780010
784000
780550
780F80
780500
780000
7FD000
2A4000
ENDCHAR
STARTCHAR G.v
ENCODING 65319
SWIDTH 1000 0
DWIDTH 14 0
BBX 11 12 1 -2
BITMAP
010000
080000
280550
781FD0
780540
780200
780F00
784500
7C0000
3E4000
2FFFF4
06AA90
ENDCHAR
STARTCHAR H.v
ENCODING 65320
SWIDTH 1000 0
DWIDTH 14 0
BBX 11 12 1 -2
BITMAP
080200
380B00
780F00
780500
784010
780000
780A00
780F00
780F00
780F00
7FDFF4
2A4A90
ENDCHAR
STARTCHAR I.v
ENCODING 65321
SWIDTH 1000 0
DWIDTH 14 0
BBX 10 12 2 -2
BITMAP
200000
F01000
F50050
FF4180
5B4100
0B4000
0B4000
150010
B01000
F00000
FFFFD0
AAAA40
ENDCHAR
STARTCHAR J.v
ENCODING 65322
SWIDTH 1000 0
DWIDTH 14 0
BBX 10 12 1 -2
BITMAP
000200
000B00
000F00
000F00
001F00
181F00
781F00
784500
7C0000
3E0000
2FFAD0
06FA00
ENDCHAR
STARTCHAR K.v
ENCODING 65323
SWIDTH 1000 0
DWIDTH 14 0
BBX 11 12 1 -2
BITMAP
080100
380D00
780800
780400
784100
784000
780A00
780F00
780F00
780F00
7FDFF4
2A4A90
ENDCHAR
STARTCHAR L.v
ENCODING 65324
SWIDTH 1000 0
DWIDTH 14 0
BBX 11 12 1 -2
BITMAP
080000
380000
780000
780000
780040
780600
780B00
780500
784010
780000
7FFFF4
2AAA90
ENDCHAR
STARTCHAR M.v
ENCODING 65325
SWIDTH 1000 0
DWIDTH 14 0
BBX 11 12 1 -2
BITMAP
140100
740A10
740400
740000
740400
741040
B42640
B42F40
B41B40
B40B40
BF8BF8
6906A0
ENDCHAR
STARTCHAR N.v
ENCODING 65326
SWIDTH 1000 0
DWIDTH 14 0
BBX 11 12 1 -2
BITMAP
080200
384700
781200
780400
780000
781400
781C10
781E10
781F00
781F00
7FDFF4
2A0A90
ENDCHAR
STARTCHAR O.v
ENCODING 65327
SWIDTH 1000 0
DWIDTH 14 0
BBX 11 12 1 -2
BITMAP
010004
081040
380900
781F00
780F00
780B00
780B00
780500
7C1040
3E0004
2FFAD0
06FA00
ENDCHAR
STARTCHAR P.v
ENCODING 65328
SWIDTH 1000 0
DWIDTH 14 0
BBX 11 12 1 -2
BITMAP
080000
384000
780500
780F00
780A00
784000
780004
780AD0
780A40
780000
7FD000
2A4000
ENDCHAR
STARTCHAR Q.v
ENCODING 65329
SWIDTH 1000 0
DWIDTH 14 0
BBX 11 13 1 -3
BITMAP
010004
081040
380500
781F00
780F00
780B00
780B00
780500
7C0000
3E4010
2FD050
07FA00
01F800
ENDCHAR
STARTCHAR R.v
ENCODING 65330
SWIDTH 1000 0
DWIDTH 14 0
BBX 11 12 1 -2
BITMAP
080010
384000
780800
780D00
780404
784040
780500
780F00
780F00
780B00
7FDBF8
2A4690
ENDCHAR
STARTCHAR S.v
ENCODING 65331
SWIDTH 1000 0
DWIDTH 14 0
BBX 11 12 1 -2
BITMAP
010000
080000
280554
3806A0
780004
7D0000
3FE900
195500
280000
780014
7FFFD0
2AAA00
ENDCHAR
STARTCHAR T.v
ENCODING 65332
SWIDTH 1000 0
DWIDTH 14 0
BBX 11 12 1 -2
BITMAP
080000
380400
7D4014
7FD070
16D040
02D000
02D000
02D000
02D000
02D000
02FE00
01A800
ENDCHAR
STARTCHAR U.v
ENCODING 65333
SWIDTH 1000 0
DWIDTH 14 0
BBX 10 12 1 -2
BITMAP
080200
380B00
780F00
780F00
780F00
780F00
780F00
780500
7C0040
3E0000
2FFAD0
06FA00
ENDCHAR
STARTCHAR V.v
ENCODING 65334
SWIDTH 1000 0
DWIDTH 14 0
BBX 10 12 1 -2
BITMAP
080200
380B00
780B00
780B00
780F00
7C0E00
7D0900
3E0000
1F0100
0F4010
0BFF80
06A900
ENDCHAR
STARTCHAR W.v
ENCODING 65335
SWIDTH 1000 0
DWIDTH 14 0
BBX 11 12 1 -2
BITMAP
140180
740780
B40780
B41580
B41040
B40000
740000
780500
7C0A00
3D0F04
3FEFE0
1A4A80
ENDCHAR
STARTCHAR X.v
ENCODING 65336
SWIDTH 1100 0
DWIDTH 15 0
BBX 11 12 2 -2
BITMAP
140200
741E00
B80D00
BC0000
7E1100
2D0000
180404
241E00
741E00
B41E04
BF9FF4
6A0A80
ENDCHAR
STARTCHAR Y.v
ENCODING 65337
SWIDTH 1000 0
DWIDTH 14 0
BBX 10 12 1 -2
BITMAP
080200
380B00
780F00
780E00
7C0500
3E0000
2F4410
0FC000
07D000
02D040
02FE00
01A800
ENDCHAR
STARTCHAR Z.v
ENCODING 65338
SWIDTH 1000 0
DWIDTH 14 0
BBX 11 12 1 -2
BITMAP
080000
380000
3D5400
3FF444
159100
014400
051000
184100
384000
780000
7FFFF4
2AAA90
ENDCHAR
STARTCHAR uni2B24.salt_v
ENCODING 65339
SWIDTH 1280 0
DWIDTH 18 0
BBX 16 16 1 -3
BITMAP
01555540
0BFFFFD0
1FFFFFF4
2FFFFFF8
7FFFFFFD
BFFFFFFD
BFFFFFFE
BFFFFFFE
BFFFFFFE
BFFFFFFE
BFFFFFFD
7FFFFFFD
2FFFFFF8
1FFFFFF4
07FFFFD0
01555540
ENDCHAR
STARTCHAR uni25DD.curve_v
ENCODING 65340
SWIDTH 1280 0
DWIDTH 18 0
BBX 16 16 1 -3
BITMAP
00555555
02FFFFFD
0BFFFFFD
2FFFFFFD
7FFFFFFD
7FFFFFFD
7FFFFFFD
7FFFFFFD
7FFFFFFD
7FFFFFFD
7FFFFFFD
7FFFFFFD
7FFFFFFD
7FFFFFFD
7FFFFFFD
55555555
ENDCHAR
STARTCHAR uni2B1B.trapezoid_e_v
ENCODING 65341
SWIDTH 1280 0
DWIDTH 18 0
BBX 16 17 1 -3
BITMAP
69400000
7FFA5000
7FFFFE94
7FFFFFFD
7FFFFFFD
7FFFFFFD
7FFFFFFD
7FFFFFFD
7FFFFFFD
7FFFFFFD
7FFFFFFD
7FFFFFFD
7FFFFFFD
7FFFFFFD
7FFFFFFD
7FFFFFFD
55555554
ENDCHAR
STARTCHAR uni2B1B.trapezoid_w_v
ENCODING 65342
SWIDTH 1280 0
DWIDTH 18 0
BBX 16 17 1 -4
BITMAP
55555555
7FFFFFFD
7FFFFFFD
7FFFFFFD
7FFFFFFD
7FFFFFFD
7FFFFFFD
7FFFFFFD
7FFFFFFD
7FFFFFFD
7FFFFFFD
7FFFFFFD
7FFFFFFD
7FFFFFFD
7FFFFE54
7FE95000
65400000
ENDCHAR
STARTCHAR .notdef
ENCODING -1
SWIDTH 1100 0
DWIDTH 15 0
BBX 13 14 1 -3
BITMAP
15555540
77FFFF80
F6AAAF80
F4000780
F4000780
F4000780
F4000780
F4000780
F4000780
F4000780
F4000780
FAAAAA80
FFFFFF40
15555400
ENDCHAR
STARTCHAR one.sups
ENCODING -1
SWIDTH 557 0
DWIDTH 8 0
BBX 7 10 0 1
BITMAP
0400
7840
7E00
6E00
1E00
1904
2400
B400
BFF8
6AA0
ENDCHAR
STARTCHAR two.sups
ENCODING -1
SWIDTH 585 0
DWIDTH 8 0
BBX 7 10 0 1
BITMAP
0400
3800
7E90
7E40
1414
7464
B400
B400
BFFC
AAA0
ENDCHAR
STARTCHAR three.sups
ENCODING -1
SWIDTH 584 0
DWIDTH 8 0
BBX 7 10 0 1
BITMAP
1404
7400
BE80
6C14
2C00
2FD0
2400
B400
BFF4
6A90
ENDCHAR
STARTCHAR four.sups
ENCODING -1
SWIDTH 620 0
DWIDTH 9 0
BBX 8 10 0 1
BITMAP
1451
70A0
B0A0
B050
B004
B800
BFE0
6AE5
01FD
00A4
ENDCHAR
ENDFONT
